<svg version="1.1" id="Layer_1" xmlns="http://www.w3.org/2000/svg" xmlns:xlink="http://www.w3.org/1999/xlink" x="0px" y="0px"
	 viewBox="0 0 584.2 508.7" style="enable-background:new 0 0 584.2 508.7;" xml:space="preserve">
<g>
	<rect x="7.1" y="212.1" class="st0" width="1.6" height="26.7"/>
	<path class="st0" d="M7.9,213.2c-3.3,0-5.9-2.7-5.9-5.9c0-3.3,2.7-5.9,5.9-5.9c3.3,0,5.9,2.7,5.9,5.9
		C13.9,210.6,11.2,213.2,7.9,213.2z M7.9,202.9c-2.4,0-4.3,2-4.3,4.3c0,2.4,2,4.3,4.3,4.3c2.4,0,4.3-2,4.3-4.3
		C12.3,204.9,10.3,202.9,7.9,202.9z"/>
	<path class="st0" d="M143.6,115c-3.3,0-5.9-2.7-5.9-5.9c0-3.3,2.7-5.9,5.9-5.9c3.3,0,5.9,2.7,5.9,5.9
		C149.5,112.3,146.8,115,143.6,115z M143.6,104.7c-2.4,0-4.3,2-4.3,4.3s2,4.3,4.3,4.3c2.4,0,4.3-2,4.3-4.3S146,104.7,143.6,104.7z"
		/>
	<path class="st0" d="M114.5,187.9c-3.3,0-5.9-2.7-5.9-5.9c0-3.3,2.7-5.9,5.9-5.9c3.3,0,5.9,2.7,5.9,5.9
		C120.4,185.3,117.7,187.9,114.5,187.9z M114.5,177.7c-2.4,0-4.3,2-4.3,4.3c0,2.4,2,4.3,4.3,4.3c2.4,0,4.3-2,4.3-4.3
		C118.8,179.6,116.9,177.7,114.5,177.7z"/>
	<path class="st0" d="M201.2,187.3c-4.4,0-8-3.6-8-8c0-4.4,3.6-8,8-8c4.4,0,8,3.6,8,8C209.2,183.7,205.6,187.3,201.2,187.3z
		 M201.2,172.8c-3.5,0-6.4,2.9-6.4,6.4s2.9,6.4,6.4,6.4s6.4-2.9,6.4-6.4S204.7,172.8,201.2,172.8z"/>
	<path class="st0" d="M239.8,135.6c-4.4,0-8-3.6-8-8s3.6-8,8-8c4.4,0,8,3.6,8,8S244.3,135.6,239.8,135.6z M239.8,121.2
		c-3.5,0-6.4,2.9-6.4,6.4c0,3.5,2.9,6.4,6.4,6.4s6.4-2.9,6.4-6.4C246.3,124.1,243.4,121.2,239.8,121.2z"/>
	<path class="st0" d="M241.9,22.9c-3,0-5.4-2.4-5.4-5.4s2.4-5.4,5.4-5.4s5.4,2.4,5.4,5.4S244.8,22.9,241.9,22.9z M241.9,13.8
		c-2.1,0-3.8,1.7-3.8,3.8s1.7,3.8,3.8,3.8c2.1,0,3.8-1.7,3.8-3.8S244,13.8,241.9,13.8z"/>
	<path class="st0" d="M287.3,59c-3,0-5.4-2.4-5.4-5.4s2.4-5.4,5.4-5.4s5.4,2.4,5.4,5.4S290.3,59,287.3,59z M287.3,49.8
		c-2.1,0-3.8,1.7-3.8,3.8c0,2.1,1.7,3.8,3.8,3.8c2.1,0,3.8-1.7,3.8-3.8C291.1,51.5,289.4,49.8,287.3,49.8z"/>
	<path class="st0" d="M294.6,87.3c-1,0-2.1-0.3-2.9-0.9c-1.2-0.8-2-2-2.3-3.4c-0.3-1.4,0-2.8,0.8-4c0.8-1.2,2-2,3.4-2.3
		c1.4-0.3,2.8,0,4,0.8l0,0c2.5,1.6,3.2,5,1.5,7.4c-0.8,1.2-2,2-3.4,2.3C295.4,87.3,295,87.3,294.6,87.3z M294.6,78.2
		c-0.3,0-0.5,0-0.8,0.1c-1,0.2-1.8,0.8-2.4,1.6c-0.6,0.8-0.7,1.9-0.5,2.8c0.2,1,0.8,1.8,1.6,2.4s1.9,0.7,2.8,0.5
		c1-0.2,1.8-0.8,2.4-1.6c1.1-1.7,0.7-4.1-1.1-5.2C296.1,78.4,295.4,78.2,294.6,78.2z"/>
	<path class="st0" d="M270,121.1c-1,0-2-0.3-2.9-0.9c-2.5-1.6-3.2-5-1.5-7.4c0.8-1.2,2-2,3.4-2.3s2.8,0,4,0.8c2.5,1.6,3.2,5,1.5,7.4
		C273.4,120.3,271.7,121.1,270,121.1z M270,112c-1.2,0-2.4,0.6-3.2,1.7c-1.1,1.7-0.7,4.1,1.1,5.2c1.7,1.1,4.1,0.7,5.2-1.1
		c1.1-1.7,0.7-4.1-1.1-5.2l0,0C271.4,112.2,270.7,112,270,112z"/>
	<path class="st0" d="M340.1,20.2c-3,0-5.4-2.4-5.4-5.4s2.4-5.4,5.4-5.4s5.4,2.4,5.4,5.4S343,20.2,340.1,20.2z M340.1,11
		c-2.1,0-3.8,1.7-3.8,3.8s1.7,3.8,3.8,3.8s3.8-1.7,3.8-3.8S342.2,11,340.1,11z"/>
	<path class="st0" d="M365.4,110.8c-3,0-5.4-2.4-5.4-5.4s2.4-5.4,5.4-5.4s5.4,2.4,5.4,5.4S368.4,110.8,365.4,110.8z M365.4,101.7
		c-2.1,0-3.8,1.7-3.8,3.8s1.7,3.8,3.8,3.8s3.8-1.7,3.8-3.8S367.5,101.7,365.4,101.7z"/>
	<path class="st0" d="M414.8,123.2c-3,0-5.4-2.4-5.4-5.4s2.4-5.4,5.4-5.4s5.4,2.4,5.4,5.4C420.1,120.8,417.7,123.2,414.8,123.2z
		 M414.8,114c-2.1,0-3.8,1.7-3.8,3.8c0,2.1,1.7,3.8,3.8,3.8c2.1,0,3.8-1.7,3.8-3.8C418.5,115.7,416.8,114,414.8,114z"/>
	<path class="st0" d="M495.3,189.7c-3,0-5.4-2.4-5.4-5.4s2.4-5.4,5.4-5.4s5.4,2.4,5.4,5.4S498.2,189.7,495.3,189.7z M495.3,180.6
		c-2.1,0-3.8,1.7-3.8,3.8c0,2.1,1.7,3.8,3.8,3.8c2.1,0,3.8-1.7,3.8-3.8C499.1,182.3,497.4,180.6,495.3,180.6z"/>
	<path class="st0" d="M497.3,235.5c-3,0-5.4-2.4-5.4-5.4s2.4-5.4,5.4-5.4s5.4,2.4,5.4,5.4S500.3,235.5,497.3,235.5z M497.3,226.4
		c-2.1,0-3.8,1.7-3.8,3.8c0,2.1,1.7,3.8,3.8,3.8c2.1,0,3.8-1.7,3.8-3.8C501.1,228.1,499.4,226.4,497.3,226.4z"/>
	<path class="st0" d="M517.6,281.5c-3,0-5.4-2.4-5.4-5.4s2.4-5.4,5.4-5.4s5.4,2.4,5.4,5.4S520.6,281.5,517.6,281.5z M517.6,272.4
		c-2.1,0-3.8,1.7-3.8,3.8c0,2.1,1.7,3.8,3.8,3.8c2.1,0,3.8-1.7,3.8-3.8C521.4,274.1,519.7,272.4,517.6,272.4z"/>
	<path class="st0" d="M519.6,138.3c-3,0-5.4-2.4-5.4-5.4s2.4-5.4,5.4-5.4s5.4,2.4,5.4,5.4S522.5,138.3,519.6,138.3z M519.6,129.2
		c-2.1,0-3.8,1.7-3.8,3.8s1.7,3.8,3.8,3.8c2.1,0,3.8-1.7,3.8-3.8S521.7,129.2,519.6,129.2z"/>
	<path class="st0" d="M544.2,166.6c-2.2,0-3.9-1.8-3.9-3.9c0-2.2,1.8-3.9,3.9-3.9c2.2,0,3.9,1.8,3.9,3.9
		C548.2,164.9,546.4,166.6,544.2,166.6z M544.2,160.3c-1.3,0-2.4,1.1-2.4,2.4s1.1,2.4,2.4,2.4s2.4-1.1,2.4-2.4
		S545.5,160.3,544.2,160.3z"/>
	<path class="st0" d="M429.1,103c-3,0-5.4-2.4-5.4-5.4s2.4-5.4,5.4-5.4s5.4,2.4,5.4,5.4S432.1,103,429.1,103z M429.1,93.8
		c-2.1,0-3.8,1.7-3.8,3.8s1.7,3.8,3.8,3.8s3.8-1.7,3.8-3.8S431.2,93.8,429.1,93.8z"/>
	<path class="st0" d="M427.4,76.2c-3,0-5.4-2.4-5.4-5.4s2.4-5.4,5.4-5.4s5.4,2.4,5.4,5.4S430.4,76.2,427.4,76.2z M427.4,67.1
		c-2.1,0-3.8,1.7-3.8,3.8s1.7,3.8,3.8,3.8s3.8-1.7,3.8-3.8S429.5,67.1,427.4,67.1z"/>
	<path class="st0" d="M458.2,69.5c-3,0-5.4-2.4-5.4-5.4s2.4-5.4,5.4-5.4s5.4,2.4,5.4,5.4S461.2,69.5,458.2,69.5z M458.2,60.3
		c-2.1,0-3.8,1.7-3.8,3.8s1.7,3.8,3.8,3.8c2.1,0,3.8-1.7,3.8-3.8S460.3,60.3,458.2,60.3z"/>
	<path class="st0" d="M484.7,111.1c-2.2,0-3.9-1.8-3.9-3.9c0-2.1,1.8-3.9,3.9-3.9c2.2,0,3.9,1.8,3.9,3.9
		C488.6,109.3,486.9,111.1,484.7,111.1z M484.7,104.9c-1.3,0-2.3,1-2.3,2.3c0,1.3,1,2.3,2.3,2.3c1.3,0,2.3-1,2.3-2.3
		C487,105.9,486,104.9,484.7,104.9z"/>
	<path class="st0" d="M498.2,151.8c-2.2,0-3.9-1.8-3.9-3.9c0-2.2,1.8-3.9,3.9-3.9c2.2,0,3.9,1.8,3.9,3.9
		C502.1,150,500.4,151.8,498.2,151.8z M498.2,145.5c-1.3,0-2.3,1-2.3,2.3s1,2.3,2.3,2.3c1.3,0,2.3-1,2.3-2.3
		C500.6,146.6,499.5,145.5,498.2,145.5z"/>
	<path class="st0" d="M393.2,48.5c-3,0-5.4-2.4-5.4-5.4s2.4-5.4,5.4-5.4s5.4,2.4,5.4,5.4C398.5,46.1,396.1,48.5,393.2,48.5z
		 M393.2,39.3c-2.1,0-3.8,1.7-3.8,3.8c0,2.1,1.7,3.8,3.8,3.8c2.1,0,3.8-1.7,3.8-3.8C397,41,395.3,39.3,393.2,39.3z"/>
	<path class="st0" d="M357.3,141.7c-3,0-5.4-2.4-5.4-5.4s2.4-5.4,5.4-5.4s5.4,2.4,5.4,5.4S360.3,141.7,357.3,141.7z M357.3,132.6
		c-2.1,0-3.8,1.7-3.8,3.8c0,2.1,1.7,3.8,3.8,3.8c2.1,0,3.8-1.7,3.8-3.8C361.1,134.3,359.4,132.6,357.3,132.6z"/>
	<path class="st0" d="M416.9,45.1c-3,0-5.4-2.4-5.4-5.4s2.4-5.4,5.4-5.4s5.4,2.4,5.4,5.4S419.9,45.1,416.9,45.1z M416.9,36
		c-2.1,0-3.8,1.7-3.8,3.8c0,2.1,1.7,3.8,3.8,3.8s3.8-1.7,3.8-3.8C420.7,37.7,419,36,416.9,36z"/>
	<path class="st0" d="M373.8,138.1c-1,0-1.9-0.3-2.8-0.8c-1.2-0.7-2.1-1.9-2.4-3.3c-0.3-1.4-0.1-2.8,0.6-4.1
		c0.7-1.2,1.9-2.1,3.3-2.4s2.8-0.1,4.1,0.6c1.2,0.7,2.1,1.9,2.4,3.3c0.3,1.4,0.1,2.8-0.6,4.1c-0.7,1.2-1.9,2.1-3.3,2.4
		C374.7,138,374.2,138.1,373.8,138.1z M373.8,128.9c-0.3,0-0.6,0-0.9,0.1c-1,0.2-1.8,0.9-2.3,1.7c-0.5,0.9-0.7,1.9-0.4,2.9
		c0.2,1,0.9,1.8,1.7,2.3c0.9,0.5,1.9,0.7,2.9,0.4c1-0.2,1.8-0.9,2.3-1.7c0.5-0.9,0.7-1.9,0.4-2.9l0,0c-0.2-1-0.9-1.8-1.7-2.3
		C375.2,129.1,374.5,128.9,373.8,128.9z"/>
	<path class="st0" d="M386.8,159c-1.7,0-3.3-0.8-4.3-2.2c-1.8-2.4-1.2-5.8,1.1-7.5c1.2-0.9,2.6-1.2,4-1s2.7,1,3.5,2.1l0,0
		c0.9,1.2,1.2,2.6,1,4c-0.2,1.4-1,2.7-2.1,3.5C389.1,158.6,387.9,159,386.8,159z M386.8,149.8c-0.8,0-1.6,0.2-2.2,0.7
		c-1.7,1.2-2,3.6-0.8,5.3c1.2,1.7,3.6,2,5.3,0.8c0.8-0.6,1.3-1.5,1.5-2.5c0.2-1-0.1-2-0.7-2.8l0,0
		C389.1,150.3,388,149.8,386.8,149.8z"/>
	<path class="st0" d="M404,185c-2.3,0-4.5-1.5-5.2-3.9c-0.8-2.8,0.8-5.8,3.7-6.7c1.4-0.4,2.8-0.2,4.1,0.4c1.3,0.7,2.2,1.8,2.6,3.2
		c0.4,1.4,0.2,2.8-0.4,4.1c-0.7,1.3-1.8,2.2-3.2,2.6C405,184.9,404.5,185,404,185z M404,175.8c-0.4,0-0.7,0.1-1.1,0.2
		c-2,0.6-3.2,2.7-2.6,4.7c0.6,2,2.7,3.2,4.7,2.6c1-0.3,1.8-0.9,2.3-1.8s0.6-1.9,0.3-2.9c-0.3-1-0.9-1.8-1.8-2.3
		C405.2,176,404.6,175.8,404,175.8z"/>
	<path class="st0" d="M412.2,207.2c-0.9,0-1.8-0.2-2.6-0.7c-1.3-0.7-2.2-1.8-2.6-3.2c-0.8-2.8,0.8-5.8,3.7-6.7
		c2.8-0.8,5.8,0.8,6.7,3.7l0,0c0.4,1.4,0.2,2.8-0.4,4.1c-0.7,1.3-1.8,2.2-3.2,2.6C413.2,207.1,412.7,207.2,412.2,207.2z M412.2,198
		c-0.3,0-0.7,0-1.1,0.2c-2,0.6-3.2,2.7-2.6,4.7c0.3,1,0.9,1.8,1.8,2.3c0.9,0.5,1.9,0.6,2.9,0.3s1.8-0.9,2.3-1.8
		c0.5-0.9,0.6-1.9,0.3-2.9l0,0C415.3,199.1,413.8,198,412.2,198z"/>
	<path class="st0" d="M416.5,247.8c-1.7,0-3.3-0.8-4.4-2.3c-1.7-2.4-1.1-5.8,1.3-7.5s5.8-1.1,7.5,1.3c1.7,2.4,1.1,5.8-1.3,7.5
		C418.7,247.5,417.6,247.8,416.5,247.8z M416.5,238.6c-0.8,0-1.5,0.2-2.2,0.7c-1.7,1.2-2.1,3.6-0.9,5.3c1.2,1.7,3.6,2.1,5.3,0.9
		c1.7-1.2,2.1-3.6,0.9-5.3C418.9,239.2,417.7,238.6,416.5,238.6z"/>
	<path class="st0" d="M437.5,254.9c-0.3,0-0.6,0-0.9-0.1c-1.4-0.2-2.6-1-3.5-2.2c-1.7-2.4-1.1-5.8,1.3-7.5c1.2-0.8,2.6-1.1,4-0.9
		s2.6,1,3.5,2.2c0.8,1.2,1.1,2.6,0.9,4c-0.2,1.4-1,2.6-2.2,3.5C439.7,254.5,438.6,254.9,437.5,254.9z M437.5,245.7
		c-0.8,0-1.5,0.2-2.2,0.7c-1.7,1.2-2.1,3.6-0.9,5.3c0.6,0.8,1.5,1.4,2.5,1.5c1,0.2,2-0.1,2.8-0.6c0.8-0.6,1.4-1.5,1.5-2.5
		c0.2-1-0.1-2-0.6-2.8l0,0C439.9,246.3,438.7,245.7,437.5,245.7z"/>
	<path class="st0" d="M498,279.6c-1.7,0-3.3-0.8-4.4-2.3c-0.8-1.2-1.1-2.6-0.9-4c0.2-1.4,1-2.6,2.2-3.5c2.4-1.7,5.8-1.1,7.5,1.3
		c0.8,1.2,1.1,2.6,0.9,4c-0.2,1.4-1,2.6-2.2,3.5C500.1,279.3,499.1,279.6,498,279.6z M498,270.4c-0.8,0-1.5,0.2-2.2,0.7
		c-0.8,0.6-1.4,1.5-1.5,2.5c-0.2,1,0.1,2,0.6,2.8c1.2,1.7,3.6,2.1,5.3,0.9c0.8-0.6,1.4-1.5,1.5-2.5c0.2-1-0.1-2-0.6-2.8
		c-0.6-0.8-1.5-1.4-2.5-1.5C498.4,270.5,498.2,270.4,498,270.4z"/>
	<path class="st0" d="M449.6,334.6c-1.7,0-3.3-0.8-4.4-2.3c-1.7-2.4-1.1-5.8,1.3-7.5c2.4-1.7,5.8-1.1,7.5,1.3l0,0
		c0.8,1.2,1.1,2.6,0.9,4c-0.2,1.4-1,2.6-2.2,3.5C451.7,334.3,450.6,334.6,449.6,334.6z M449.6,325.5c-0.8,0-1.5,0.2-2.2,0.7
		c-1.7,1.2-2.1,3.6-0.9,5.3c0.6,0.8,1.5,1.4,2.5,1.5c1,0.2,2-0.1,2.8-0.6c0.8-0.6,1.4-1.5,1.5-2.5c0.2-1-0.1-2-0.6-2.8l0,0
		C451.9,326,450.8,325.5,449.6,325.5z"/>
	<path class="st0" d="M465,404.9c-0.3,0-0.6,0-0.9-0.1c-1.4-0.2-2.6-1-3.5-2.2c-1.7-2.4-1.1-5.8,1.3-7.5c1.2-0.8,2.6-1.1,4-0.9
		c1.4,0.2,2.6,1,3.5,2.2c1.7,2.4,1.1,5.8-1.3,7.5C467.2,404.5,466.1,404.9,465,404.9z M465,395.7c-0.8,0-1.5,0.2-2.2,0.7
		c-1.7,1.2-2.1,3.6-0.9,5.3c1.2,1.7,3.6,2.1,5.3,0.9c0.8-0.6,1.4-1.5,1.5-2.5c0.2-1-0.1-2-0.6-2.8l0,0c-0.6-0.8-1.5-1.4-2.5-1.5
		C465.4,395.7,465.2,395.7,465,395.7z"/>
	<path class="st0" d="M556.1,356.4c-0.3,0-0.7,0-1-0.1c-1.6-0.3-2.9-1.1-3.9-2.4c-1.9-2.7-1.3-6.4,1.4-8.3c2.7-1.9,6.4-1.3,8.3,1.4
		c0.9,1.3,1.3,2.9,1,4.5c-0.3,1.6-1.1,2.9-2.4,3.9C558.5,356.1,557.3,356.4,556.1,356.4z M556,346.1c-0.9,0-1.8,0.3-2.5,0.8
		c-2,1.4-2.4,4.1-1.1,6.1c0.7,1,1.7,1.6,2.8,1.8c1.2,0.2,2.3-0.1,3.3-0.7c1-0.7,1.6-1.7,1.8-2.8c0.2-1.2-0.1-2.3-0.7-3.3l0,0
		C558.8,346.7,557.4,346.1,556,346.1z"/>
	<path class="st0" d="M426.5,394.2c-1.7,0-3.3-0.8-4.4-2.3c-1.7-2.4-1.1-5.8,1.3-7.5c2.4-1.7,5.8-1.1,7.5,1.3l0,0
		c1.7,2.4,1.1,5.8-1.3,7.5C428.7,393.9,427.6,394.2,426.5,394.2z M426.5,385.1c-0.8,0-1.5,0.2-2.2,0.7c-0.8,0.6-1.4,1.5-1.5,2.5
		c-0.2,1,0.1,2,0.6,2.8c1.2,1.7,3.6,2.1,5.3,0.9c1.7-1.2,2.1-3.6,0.9-5.3l0,0C428.9,385.6,427.7,385.1,426.5,385.1z"/>
	<path class="st0" d="M404.2,505.9c-0.3,0-0.6,0-0.9-0.1c-1.4-0.2-2.6-1-3.5-2.2c-1.7-2.4-1.1-5.8,1.3-7.5c2.4-1.7,5.8-1.1,7.5,1.3
		l0,0c1.7,2.4,1.1,5.8-1.3,7.5C406.4,505.6,405.3,505.9,404.2,505.9z M404.2,496.7c-0.8,0-1.5,0.2-2.2,0.7c-0.8,0.6-1.4,1.5-1.5,2.5
		c-0.2,1,0.1,2,0.6,2.8c0.6,0.8,1.5,1.4,2.5,1.5c1,0.2,2-0.1,2.8-0.6c1.7-1.2,2.1-3.6,0.9-5.3l0,0
		C406.6,497.3,405.4,496.7,404.2,496.7z"/>
	<path class="st0" d="M390.3,442.6c-0.2,0-0.5,0-0.7-0.1c-1-0.2-2-0.8-2.6-1.6c-1.3-1.8-0.8-4.3,1-5.5c0.9-0.6,1.9-0.9,3-0.7
		c1,0.2,2,0.8,2.6,1.6l0,0c1.3,1.8,0.8,4.3-1,5.5C391.9,442.4,391.1,442.6,390.3,442.6z M390.3,436.2c-0.5,0-1,0.2-1.4,0.4
		c-0.5,0.4-0.9,0.9-1,1.6c-0.1,0.6,0,1.3,0.4,1.8c0.4,0.5,0.9,0.9,1.6,1c0.6,0.1,1.3,0,1.8-0.4c1.1-0.8,1.3-2.3,0.6-3.3l0,0
		c-0.4-0.5-0.9-0.9-1.6-1C390.6,436.2,390.4,436.2,390.3,436.2z"/>
	<path class="st0" d="M343.2,472.2c-0.2,0-0.5,0-0.7-0.1c-1-0.2-2-0.8-2.6-1.6c-1.3-1.8-0.8-4.3,1-5.5c0.9-0.6,1.9-0.9,3-0.7
		c1,0.2,2,0.8,2.6,1.6l0,0c1.3,1.8,0.8,4.3-1,5.5C344.8,471.9,344,472.2,343.2,472.2z M343.1,465.8c-0.5,0-1,0.1-1.4,0.4
		c-0.5,0.4-0.9,0.9-1,1.6c-0.1,0.6,0,1.3,0.4,1.8s0.9,0.9,1.6,1c0.6,0.1,1.3,0,1.8-0.4c1.1-0.8,1.3-2.3,0.6-3.3l0,0
		C344.6,466.1,343.9,465.8,343.1,465.8z"/>
	<path class="st0" d="M363.9,482c-1.3,0-2.5-0.6-3.3-1.7c-0.6-0.9-0.9-1.9-0.7-3c0.2-1,0.8-2,1.6-2.6c1.8-1.3,4.3-0.8,5.5,1l0,0
		c1.3,1.8,0.8,4.3-1,5.5C365.5,481.8,364.7,482,363.9,482z M363.9,475.6c-0.5,0-1,0.2-1.4,0.4c-0.5,0.4-0.9,0.9-1,1.6
		c-0.1,0.6,0,1.3,0.4,1.8c0.8,1.1,2.3,1.3,3.3,0.6c1.1-0.8,1.3-2.3,0.6-3.3l0,0c-0.4-0.5-0.9-0.9-1.6-1
		C364.2,475.6,364.1,475.6,363.9,475.6z"/>
	<path class="st0" d="M391.5,363.3c-1.7,0-3.3-0.8-4.4-2.3c-0.8-1.2-1.1-2.6-0.9-4c0.2-1.4,1-2.6,2.2-3.5c2.4-1.7,5.8-1.1,7.5,1.3
		c0.8,1.2,1.1,2.6,0.9,4c-0.2,1.4-1,2.6-2.2,3.5C393.6,362.9,392.5,363.3,391.5,363.3z M391.5,354.1c-0.8,0-1.5,0.2-2.2,0.7
		c-0.8,0.6-1.4,1.5-1.5,2.5c-0.2,1,0.1,2,0.6,2.8c1.2,1.7,3.6,2.1,5.3,0.9c0.8-0.6,1.4-1.5,1.5-2.5c0.2-1-0.1-2-0.6-2.8
		c-0.6-0.8-1.5-1.4-2.5-1.5C391.9,354.1,391.7,354.1,391.5,354.1z"/>
	<path class="st0" d="M372.4,420.8c-0.3,0-0.6,0-0.9-0.1c-1.4-0.2-2.6-1-3.5-2.2c-1.7-2.4-1.1-5.8,1.3-7.5c1.2-0.8,2.6-1.1,4-0.9
		c1.4,0.2,2.6,1,3.5,2.2l0,0c1.7,2.4,1.1,5.8-1.3,7.5C374.6,420.5,373.5,420.8,372.4,420.8z M372.4,411.7c-0.8,0-1.5,0.2-2.2,0.7
		c-0.8,0.6-1.4,1.5-1.5,2.5c-0.2,1,0.1,2,0.6,2.8c0.6,0.8,1.5,1.4,2.5,1.5c1,0.2,2-0.1,2.8-0.6c1.7-1.2,2.1-3.6,0.9-5.3l0,0
		C374.8,412.2,373.6,411.7,372.4,411.7z"/>
	<path class="st0" d="M498,292.8c-1.7,0-3.3-0.8-4.4-2.3c-1.7-2.4-1.1-5.8,1.3-7.5s5.8-1.1,7.5,1.3c1.7,2.4,1.1,5.8-1.3,7.5
		C500.1,292.5,499.1,292.8,498,292.8z M498,283.7c-0.8,0-1.5,0.2-2.2,0.7c-1.7,1.2-2.1,3.6-0.9,5.3c1.2,1.7,3.6,2.1,5.3,0.9
		c1.7-1.2,2.1-3.6,0.9-5.3C500.3,284.2,499.2,283.7,498,283.7z"/>
	<path class="st0" d="M578.8,294.2c-1.7,0-3.3-0.8-4.4-2.3c-0.8-1.2-1.1-2.6-0.9-4s1-2.6,2.2-3.5c2.4-1.7,5.8-1.1,7.5,1.3
		c1.7,2.4,1.1,5.8-1.3,7.5C581,293.9,579.9,294.2,578.8,294.2z M578.8,285.1c-0.8,0-1.5,0.2-2.2,0.7c-0.8,0.6-1.4,1.5-1.5,2.5
		c-0.2,1,0.1,2,0.6,2.8c1.2,1.7,3.6,2.1,5.3,0.9s2.1-3.6,0.9-5.3c-0.6-0.8-1.5-1.4-2.5-1.5C579.2,285.1,579,285.1,578.8,285.1z"/>
	<path class="st0" d="M577.2,249.7c-1.7,0-3.3-0.8-4.4-2.3c-0.8-1.2-1.1-2.6-0.9-4c0.2-1.4,1-2.6,2.2-3.5c2.4-1.7,5.8-1.1,7.5,1.3
		l0,0c0.8,1.2,1.1,2.6,0.9,4c-0.2,1.4-1,2.6-2.2,3.5C579.4,249.4,578.3,249.7,577.2,249.7z M577.2,240.5c-0.8,0-1.5,0.2-2.2,0.7
		c-0.8,0.6-1.4,1.5-1.5,2.5c-0.2,1,0.1,2,0.6,2.8c0.6,0.8,1.5,1.4,2.5,1.5c1,0.2,2-0.1,2.8-0.6c1.7-1.2,2.1-3.6,0.9-5.3l0,0
		c-0.6-0.8-1.5-1.4-2.5-1.5C577.6,240.5,577.4,240.5,577.2,240.5z"/>
	<path class="st0" d="M574.5,320.4c-1.7,0-3.3-0.8-4.4-2.3c-0.8-1.2-1.1-2.6-0.9-4s1-2.6,2.2-3.5c2.4-1.7,5.8-1.1,7.5,1.3l0,0
		c0.8,1.2,1.1,2.6,0.9,4s-1,2.6-2.2,3.5C576.7,320.1,575.6,320.4,574.5,320.4z M574.5,311.3c-0.8,0-1.5,0.2-2.2,0.7
		c-0.8,0.6-1.4,1.5-1.5,2.5c-0.2,1,0.1,2,0.6,2.8c1.2,1.7,3.6,2.1,5.3,0.9c1.7-1.2,2.1-3.6,0.9-5.3l0,0
		C576.9,311.8,575.7,311.3,574.5,311.3z"/>
	<path class="st0" d="M517.6,319.7c-1.7,0-3.3-0.8-4.4-2.3c-1.7-2.4-1.1-5.8,1.3-7.5c2.4-1.7,5.8-1.1,7.5,1.3c0.8,1.2,1.1,2.6,0.9,4
		c-0.2,1.4-1,2.6-2.2,3.5C519.7,319.4,518.6,319.7,517.6,319.7z M517.6,310.6c-0.8,0-1.5,0.2-2.2,0.7c-1.7,1.2-2.1,3.6-0.9,5.3
		c1.2,1.7,3.6,2.1,5.3,0.9c0.8-0.6,1.4-1.5,1.5-2.5c0.2-1-0.1-2-0.6-2.8l0,0C519.9,311.1,518.7,310.6,517.6,310.6z"/>
	<path class="st0" d="M488.5,357.8c-1.7,0-3.3-0.8-4.4-2.3c-0.8-1.2-1.1-2.6-0.9-4c0.2-1.4,1-2.6,2.2-3.5c2.4-1.7,5.8-1.1,7.5,1.3
		c0.8,1.2,1.1,2.6,0.9,4c-0.2,1.4-1,2.6-2.2,3.5C490.6,357.4,489.5,357.8,488.5,357.8z M488.4,348.6c-0.8,0-1.5,0.2-2.2,0.7
		c-1.7,1.2-2.1,3.6-0.9,5.3c0.6,0.8,1.5,1.4,2.5,1.5c1,0.2,2-0.1,2.8-0.6c0.8-0.6,1.4-1.5,1.5-2.5c0.2-1-0.1-2-0.6-2.8
		c-0.6-0.8-1.5-1.4-2.5-1.5C488.9,348.6,488.7,348.6,488.4,348.6z"/>
	<path class="st0" d="M496,381.6c-1.7,0-3.3-0.8-4.4-2.3c-1.7-2.4-1.1-5.8,1.3-7.5c2.4-1.7,5.8-1.1,7.5,1.3c1.7,2.4,1.1,5.8-1.3,7.5
		C498.1,381.2,497.1,381.6,496,381.6z M496,372.4c-0.8,0-1.5,0.2-2.2,0.7c-1.7,1.2-2.1,3.6-0.9,5.3c1.2,1.7,3.6,2.1,5.3,0.9
		c1.7-1.2,2.1-3.6,0.9-5.3C498.3,373,497.2,372.4,496,372.4z"/>
	<path class="st0" d="M486.2,371.6c-0.3,0-0.6,0-0.9-0.1c-1.4-0.2-2.6-1-3.5-2.2c-0.8-1.2-1.1-2.6-0.9-4c0.2-1.4,1-2.6,2.2-3.5
		c1.2-0.8,2.6-1.1,4-0.9c1.4,0.2,2.6,1,3.5,2.2l0,0c0.8,1.2,1.1,2.6,0.9,4s-1,2.6-2.2,3.5C488.4,371.3,487.3,371.6,486.2,371.6z
		 M486.2,362.5c-0.8,0-1.5,0.2-2.2,0.7c-0.8,0.6-1.4,1.5-1.5,2.5c-0.2,1,0.1,2,0.6,2.8c0.6,0.8,1.5,1.4,2.5,1.5c1,0.2,2-0.1,2.8-0.6
		c0.8-0.6,1.4-1.5,1.5-2.5c0.2-1-0.1-2-0.6-2.8l0,0c-0.6-0.8-1.5-1.4-2.5-1.5C486.6,362.5,486.4,362.5,486.2,362.5z"/>
	<path class="st0" d="M397.6,231.1c-0.9,0-1.8-0.2-2.6-0.7c-1.3-0.7-2.2-1.8-2.6-3.2c-0.4-1.4-0.2-2.8,0.4-4.1
		c0.7-1.3,1.8-2.2,3.2-2.6s2.8-0.2,4.1,0.4c1.3,0.7,2.2,1.8,2.6,3.2l0,0c0.4,1.4,0.2,2.8-0.4,4.1c-0.7,1.3-1.8,2.2-3.2,2.6
		C398.6,231.1,398.1,231.1,397.6,231.1z M397.6,222c-0.4,0-0.7,0.1-1.1,0.2c-1,0.3-1.8,0.9-2.3,1.8s-0.6,1.9-0.3,2.9
		c0.3,1,0.9,1.8,1.8,2.3c0.9,0.5,1.9,0.6,2.9,0.3s1.8-0.9,2.3-1.8c0.5-0.9,0.6-1.9,0.3-2.9l0,0c-0.3-1-0.9-1.8-1.8-2.3
		C398.8,222.1,398.2,222,397.6,222z"/>
	<path class="st0" d="M401.2,165.8c-0.9,0-1.8-0.2-2.6-0.7c-1.3-0.7-2.2-1.8-2.6-3.2c-0.4-1.4-0.2-2.8,0.4-4.1
		c0.7-1.3,1.8-2.2,3.2-2.6c1.4-0.4,2.8-0.2,4.1,0.4c1.3,0.7,2.2,1.8,2.6,3.2c0.4,1.4,0.2,2.8-0.4,4.1c-0.7,1.3-1.8,2.2-3.2,2.6
		C402.2,165.7,401.7,165.8,401.2,165.8z M401.2,156.7c-0.4,0-0.7,0.1-1.1,0.2c-1,0.3-1.8,0.9-2.3,1.8c-0.5,0.9-0.6,1.9-0.3,2.9
		s0.9,1.8,1.8,2.3c0.9,0.5,1.9,0.6,2.9,0.3s1.8-0.9,2.3-1.8c0.5-0.9,0.6-1.9,0.3-2.9c-0.3-1-0.9-1.8-1.8-2.3
		C402.5,156.8,401.9,156.7,401.2,156.7z"/>
	<path class="st0" d="M367.3,251.8c-0.7,0-1.3-0.1-1.9-0.4c-2.8-1.1-4.1-4.2-3.1-6.9c0.5-1.3,1.5-2.4,2.8-3c1.3-0.6,2.8-0.6,4.1-0.1
		c2.8,1.1,4.1,4.2,3.1,6.9c-0.5,1.3-1.5,2.4-2.8,3C368.8,251.6,368.1,251.8,367.3,251.8z M367.3,242.6c-1.5,0-3,0.9-3.5,2.4
		c-0.8,1.9,0.2,4.1,2.2,4.9c1.9,0.8,4.1-0.2,4.9-2.2c0.8-1.9-0.2-4.1-2.2-4.9l0,0C368.2,242.7,367.8,242.6,367.3,242.6z"/>
	<path class="st0" d="M331.4,64c-3,0-5.4-2.4-5.4-5.4s2.4-5.4,5.4-5.4s5.4,2.4,5.4,5.4S334.4,64,331.4,64z M331.4,54.9
		c-2.1,0-3.8,1.7-3.8,3.8c0,2.1,1.7,3.8,3.8,3.8s3.8-1.7,3.8-3.8C335.2,56.6,333.5,54.9,331.4,54.9z"/>
	<path class="st0" d="M248.8,327.7c-4.4,0-8-3.6-8-8c0-4.4,3.6-8,8-8c4.4,0,8,3.6,8,8C256.8,324.1,253.2,327.7,248.8,327.7z
		 M248.8,313.2c-3.5,0-6.4,2.9-6.4,6.4s2.9,6.4,6.4,6.4s6.4-2.9,6.4-6.4S252.3,313.2,248.8,313.2z"/>
	<path class="st0" d="M136.4,335.6c-5,0-9.1-4.1-9.1-9.1s4.1-9.1,9.1-9.1s9.1,4.1,9.1,9.1S141.4,335.6,136.4,335.6z M136.4,319.1
		c-4.1,0-7.5,3.4-7.5,7.5s3.4,7.5,7.5,7.5c4.1,0,7.5-3.4,7.5-7.5C143.9,322.4,140.6,319.1,136.4,319.1z"/>
	<path class="st0" d="M284.6,292.4c-4.4,0-8-3.6-8-8s3.6-8,8-8s8,3.6,8,8S289,292.4,284.6,292.4z M284.6,278c-3.5,0-6.4,2.9-6.4,6.4
		s2.9,6.4,6.4,6.4s6.4-2.9,6.4-6.4S288.1,278,284.6,278z"/>
	<path class="st0" d="M169.7,29.3c-3.3,0-5.9-2.7-5.9-5.9c0-3.3,2.7-5.9,5.9-5.9c3.3,0,5.9,2.7,5.9,5.9S173,29.3,169.7,29.3z
		 M169.7,19c-2.4,0-4.3,2-4.3,4.3c0,2.4,2,4.3,4.3,4.3c2.4,0,4.3-2,4.3-4.3S172.1,19,169.7,19z"/>
	<path class="st0" d="M7.9,249.5c-3.3,0-5.9-2.7-5.9-5.9c0-3.3,2.7-5.9,5.9-5.9c3.3,0,5.9,2.7,5.9,5.9
		C13.9,246.9,11.2,249.5,7.9,249.5z M7.9,239.3c-2.4,0-4.3,2-4.3,4.3c0,2.4,2,4.3,4.3,4.3c2.4,0,4.3-2,4.3-4.3
		C12.3,241.2,10.3,239.3,7.9,239.3z"/>
	<path class="st0" d="M194.1,396.5c-3.3,0-5.9-2.7-5.9-5.9c0-3.3,2.7-5.9,5.9-5.9c3.3,0,5.9,2.7,5.9,5.9
		C200,393.8,197.4,396.5,194.1,396.5z M194.1,386.2c-2.4,0-4.3,2-4.3,4.3c0,2.4,2,4.3,4.3,4.3c2.4,0,4.3-2,4.3-4.3
		S196.5,386.2,194.1,386.2z"/>
	<path class="st0" d="M224.9,370.3c-3.3,0-5.9-2.7-5.9-5.9c0-3.3,2.7-5.9,5.9-5.9c3.3,0,5.9,2.7,5.9,5.9
		C230.9,367.6,228.2,370.3,224.9,370.3z M224.9,360c-2.4,0-4.3,2-4.3,4.3c0,2.4,2,4.3,4.3,4.3c2.4,0,4.3-2,4.3-4.3
		C229.3,361.9,227.3,360,224.9,360z"/>
	<path class="st0" d="M29.9,274.9c-2.3,0-4.2-1.9-4.2-4.2c0-2.3,1.9-4.2,4.2-4.2s4.2,1.9,4.2,4.2C34.1,273,32.2,274.9,29.9,274.9z
		 M29.9,268c-1.5,0-2.6,1.2-2.6,2.6c0,1.5,1.2,2.6,2.6,2.6c1.5,0,2.6-1.2,2.6-2.6S31.3,268,29.9,268z"/>
	<path class="st0" d="M48,285.5c-2.3,0-4.2-1.9-4.2-4.2c0-2.3,1.9-4.2,4.2-4.2s4.2,1.9,4.2,4.2C52.2,283.6,50.3,285.5,48,285.5z
		 M48,278.6c-1.5,0-2.6,1.2-2.6,2.6c0,1.5,1.2,2.6,2.6,2.6c1.5,0,2.6-1.2,2.6-2.6C50.6,279.8,49.5,278.6,48,278.6z"/>
	<path class="st0" d="M95.3,297.5c-2.3,0-4.2-1.9-4.2-4.2c0-2.3,1.9-4.2,4.2-4.2c2.3,0,4.2,1.9,4.2,4.2
		C99.5,295.6,97.6,297.5,95.3,297.5z M95.3,290.6c-1.5,0-2.6,1.2-2.6,2.6c0,1.5,1.2,2.6,2.6,2.6c1.5,0,2.6-1.2,2.6-2.6
		C97.9,291.8,96.7,290.6,95.3,290.6z"/>
	<path class="st0" d="M112.6,275.1c-2.3,0-4.2-1.9-4.2-4.2c0-2.3,1.9-4.2,4.2-4.2c2.3,0,4.2,1.9,4.2,4.2
		C116.8,273.2,115,275.1,112.6,275.1z M112.6,268.3c-1.5,0-2.6,1.2-2.6,2.6c0,1.5,1.2,2.6,2.6,2.6c1.5,0,2.6-1.2,2.6-2.6
		C115.3,269.4,114.1,268.3,112.6,268.3z"/>
	<path class="st0" d="M112.6,258.7c-2.3,0-4.2-1.9-4.2-4.2c0-2.3,1.9-4.2,4.2-4.2c2.3,0,4.2,1.9,4.2,4.2
		C116.8,256.8,115,258.7,112.6,258.7z M112.6,251.8c-1.5,0-2.6,1.2-2.6,2.6c0,1.5,1.2,2.6,2.6,2.6c1.5,0,2.6-1.2,2.6-2.6
		C115.3,253,114.1,251.8,112.6,251.8z"/>
	<path class="st0" d="M177,210.5c-2.3,0-4.2-1.9-4.2-4.2s1.9-4.2,4.2-4.2s4.2,1.9,4.2,4.2S179.4,210.5,177,210.5z M177,203.6
		c-1.5,0-2.6,1.2-2.6,2.6c0,1.5,1.2,2.6,2.6,2.6c1.5,0,2.6-1.2,2.6-2.6C179.7,204.8,178.5,203.6,177,203.6z"/>
	<path class="st0" d="M149.6,193.8c-2.3,0-4.2-1.9-4.2-4.2c0-2.3,1.9-4.2,4.2-4.2c2.3,0,4.2,1.9,4.2,4.2
		C153.8,191.9,152,193.8,149.6,193.8z M149.6,187c-1.5,0-2.6,1.2-2.6,2.6c0,1.5,1.2,2.6,2.6,2.6c1.5,0,2.6-1.2,2.6-2.6
		C152.3,188.1,151.1,187,149.6,187z"/>
	<path class="st0" d="M61.7,218c-2.3,0-4.2-1.9-4.2-4.2s1.9-4.2,4.2-4.2s4.2,1.9,4.2,4.2S64,218,61.7,218z M61.7,211.2
		c-1.5,0-2.6,1.2-2.6,2.6c0,1.5,1.2,2.6,2.6,2.6c1.5,0,2.6-1.2,2.6-2.6C64.3,212.3,63.2,211.2,61.7,211.2z"/>
	<path class="st0" d="M125.4,219.7c-2.3,0-4.2-1.9-4.2-4.2s1.9-4.2,4.2-4.2c2.3,0,4.2,1.9,4.2,4.2S127.7,219.7,125.4,219.7z
		 M125.4,212.9c-1.5,0-2.6,1.2-2.6,2.6c0,1.5,1.2,2.6,2.6,2.6c1.5,0,2.6-1.2,2.6-2.6C128.1,214.1,126.9,212.9,125.4,212.9z"/>
	<path class="st0" d="M111,159.4c-2.3,0-4.2-1.9-4.2-4.2s1.9-4.2,4.2-4.2s4.2,1.9,4.2,4.2S113.4,159.4,111,159.4z M111,152.6
		c-1.5,0-2.6,1.2-2.6,2.6c0,1.5,1.2,2.6,2.6,2.6c1.5,0,2.6-1.2,2.6-2.6C113.7,153.8,112.5,152.6,111,152.6z"/>
	<path class="st0" d="M202.2,149.8c-2.3,0-4.2-1.9-4.2-4.2c0-2.3,1.9-4.2,4.2-4.2s4.2,1.9,4.2,4.2
		C206.4,148,204.5,149.8,202.2,149.8z M202.2,143c-1.5,0-2.6,1.2-2.6,2.6c0,1.5,1.2,2.6,2.6,2.6c1.5,0,2.6-1.2,2.6-2.6
		C204.8,144.2,203.6,143,202.2,143z"/>
	<path class="st0" d="M261.3,103.7c-2.3,0-4.2-1.9-4.2-4.2s1.9-4.2,4.2-4.2c2.3,0,4.2,1.9,4.2,4.2S263.6,103.7,261.3,103.7z
		 M261.3,96.9c-1.5,0-2.6,1.2-2.6,2.6c0,1.5,1.2,2.6,2.6,2.6c1.5,0,2.6-1.2,2.6-2.6C263.9,98,262.7,96.9,261.3,96.9z"/>
	<path class="st0" d="M276.1,174.1c-2.2,0-4-1.7-4.2-3.9c-0.2-2.3,1.6-4.3,3.9-4.5c2.3-0.2,4.3,1.6,4.5,3.9l0,0
		c0.1,1.1-0.3,2.2-1,3.1c-0.7,0.9-1.8,1.4-2.9,1.5C276.4,174,276.2,174.1,276.1,174.1z M276.1,167.2c-0.1,0-0.1,0-0.2,0
		c-0.7,0.1-1.3,0.4-1.8,0.9s-0.7,1.2-0.6,1.9c0.1,1.4,1.4,2.5,2.8,2.4c0.7-0.1,1.3-0.4,1.8-0.9s0.7-1.2,0.6-1.9l0,0
		C278.7,168.3,277.5,167.2,276.1,167.2z"/>
	<path class="st0" d="M312.2,158.1c-1,0-2-0.4-2.7-1c-0.9-0.7-1.4-1.8-1.5-2.9c-0.1-1.1,0.3-2.2,1-3.1c0.7-0.9,1.8-1.4,2.9-1.5
		c1.1-0.1,2.2,0.3,3.1,1c0.9,0.7,1.4,1.8,1.5,2.9l0,0c0.1,1.1-0.3,2.2-1,3.1c-0.7,0.9-1.8,1.4-2.9,1.5
		C312.4,158.1,312.3,158.1,312.2,158.1z M312.2,151.2c-0.1,0-0.1,0-0.2,0c-0.7,0.1-1.3,0.4-1.8,0.9s-0.7,1.2-0.6,1.9
		s0.4,1.3,0.9,1.8s1.2,0.7,1.9,0.6c0.7-0.1,1.3-0.4,1.8-0.9s0.7-1.2,0.6-1.9l0,0c-0.1-0.7-0.4-1.3-0.9-1.8
		C313.4,151.4,312.8,151.2,312.2,151.2z"/>
	<path class="st0" d="M306.6,180.5c-2.2,0-4-1.7-4.2-3.9c-0.1-1.1,0.3-2.2,1-3.1c0.7-0.9,1.8-1.4,2.9-1.5c1.1-0.1,2.2,0.3,3.1,1
		s1.4,1.8,1.5,2.9l0,0c0.2,2.3-1.6,4.3-3.9,4.5C306.8,180.5,306.7,180.5,306.6,180.5z M306.6,173.6c-0.1,0-0.1,0-0.2,0
		c-0.7,0.1-1.3,0.4-1.8,0.9s-0.7,1.2-0.6,1.9c0.1,0.7,0.4,1.3,0.9,1.8s1.2,0.7,1.9,0.6c1.4-0.1,2.5-1.4,2.4-2.8l0,0
		c-0.1-0.7-0.4-1.3-0.9-1.8C307.8,173.8,307.2,173.6,306.6,173.6z"/>
	<path class="st0" d="M356.2,154.3c-2.2,0-4-1.7-4.2-3.9c-0.1-1.1,0.3-2.2,1-3.1c0.7-0.9,1.8-1.4,2.9-1.5c2.3-0.2,4.3,1.6,4.5,3.9
		l0,0c0.2,2.3-1.6,4.3-3.9,4.5C356.4,154.3,356.3,154.3,356.2,154.3z M356.2,147.5c-0.1,0-0.1,0-0.2,0c-0.7,0.1-1.3,0.4-1.8,0.9
		s-0.7,1.2-0.6,1.9c0.1,1.4,1.4,2.5,2.8,2.4c0.7-0.1,1.3-0.4,1.8-0.9s0.7-1.2,0.6-1.9l0,0C358.7,148.5,357.6,147.5,356.2,147.5z"/>
	<path class="st0" d="M325.7,224.9c-2.2,0-4-1.7-4.2-3.9c-0.2-2.3,1.6-4.3,3.9-4.5c1.1-0.1,2.2,0.3,3.1,1s1.4,1.8,1.5,2.9l0,0
		c0.1,1.1-0.3,2.2-1,3.1s-1.8,1.4-2.9,1.5C325.9,224.9,325.8,224.9,325.7,224.9z M325.7,218c-0.1,0-0.1,0-0.2,0
		c-0.7,0.1-1.3,0.4-1.8,0.9s-0.7,1.2-0.6,1.9c0.1,1.4,1.4,2.5,2.8,2.4c0.7-0.1,1.3-0.4,1.8-0.9s0.7-1.2,0.6-1.9l0,0
		c-0.1-0.7-0.4-1.3-0.9-1.8C326.9,218.2,326.3,218,325.7,218z"/>
	<path class="st0" d="M288,195.3c-2.7,0-5-2.1-5.2-4.8c-0.2-2.9,1.9-5.4,4.8-5.6c1.4-0.1,2.7,0.3,3.8,1.2c1.1,0.9,1.7,2.2,1.8,3.6
		l0,0c0.1,1.4-0.3,2.7-1.2,3.8s-2.2,1.7-3.6,1.8C288.2,195.3,288.1,195.3,288,195.3z M288,186.4c-0.1,0-0.2,0-0.3,0
		c-2,0.2-3.5,1.9-3.4,3.9c0.2,2,1.9,3.5,3.9,3.4c1-0.1,1.9-0.5,2.5-1.3c0.6-0.7,0.9-1.7,0.9-2.7l0,0c-0.1-1-0.5-1.9-1.3-2.5
		C289.7,186.7,288.8,186.4,288,186.4z"/>
	<path class="st0" d="M176.1,223.5c-2.3,0-4.2-1.9-4.2-4.2s1.9-4.2,4.2-4.2c2.3,0,4.2,1.9,4.2,4.2S178.4,223.5,176.1,223.5z
		 M176.1,216.6c-1.5,0-2.6,1.2-2.6,2.6c0,1.5,1.2,2.6,2.6,2.6c1.4,0,2.6-1.2,2.6-2.6C178.8,217.8,177.6,216.6,176.1,216.6z"/>
	<path class="st0" d="M167.9,230.6c-2.3,0-4.2-1.9-4.2-4.2c0-2.3,1.9-4.2,4.2-4.2c2.3,0,4.2,1.9,4.2,4.2
		C172.1,228.7,170.2,230.6,167.9,230.6z M167.9,223.7c-1.5,0-2.6,1.2-2.6,2.6c0,1.5,1.2,2.6,2.6,2.6c1.5,0,2.6-1.2,2.6-2.6
		C170.5,224.9,169.3,223.7,167.9,223.7z"/>
	<path class="st0" d="M261.1,279.9c-2.3,0-4.2-1.9-4.2-4.2c0-2.3,1.9-4.2,4.2-4.2c2.3,0,4.2,1.9,4.2,4.2
		C265.3,278,263.4,279.9,261.1,279.9z M261.1,273c-1.5,0-2.6,1.2-2.6,2.6c0,1.5,1.2,2.6,2.6,2.6c1.5,0,2.6-1.2,2.6-2.6
		S262.5,273,261.1,273z"/>
	<path class="st0" d="M393.1,326.9c-2.3,0-4.2-1.9-4.2-4.2c0-2.3,1.9-4.2,4.2-4.2c2.3,0,4.2,1.9,4.2,4.2
		C397.3,325.1,395.4,326.9,393.1,326.9z M393.1,320.1c-1.5,0-2.6,1.2-2.6,2.6c0,1.5,1.2,2.6,2.6,2.6c1.5,0,2.6-1.2,2.6-2.6
		C395.7,321.3,394.5,320.1,393.1,320.1z"/>
	<path class="st0" d="M261.1,241.1c-2.3,0-4.2-1.9-4.2-4.2c0-2.3,1.9-4.2,4.2-4.2c2.3,0,4.2,1.9,4.2,4.2
		C265.3,239.2,263.4,241.1,261.1,241.1z M261.1,234.2c-1.5,0-2.6,1.2-2.6,2.6c0,1.5,1.2,2.6,2.6,2.6c1.5,0,2.6-1.2,2.6-2.6
		C263.7,235.4,262.5,234.2,261.1,234.2z"/>
	<path class="st0" d="M283.7,206.6c-2.3,0-4.2-1.9-4.2-4.2c0-2.3,1.9-4.2,4.2-4.2c2.3,0,4.2,1.9,4.2,4.2
		C287.9,204.7,286,206.6,283.7,206.6z M283.7,199.7c-1.5,0-2.6,1.2-2.6,2.6c0,1.5,1.2,2.6,2.6,2.6c1.5,0,2.6-1.2,2.6-2.6
		C286.3,200.9,285.1,199.7,283.7,199.7z"/>
	<path class="st0" d="M248.3,214.8c-2.3,0-4.2-1.9-4.2-4.2c0-2.3,1.9-4.2,4.2-4.2s4.2,1.9,4.2,4.2
		C252.5,212.9,250.6,214.8,248.3,214.8z M248.3,208c-1.5,0-2.6,1.2-2.6,2.6c0,1.5,1.2,2.6,2.6,2.6c1.5,0,2.6-1.2,2.6-2.6
		C250.9,209.1,249.7,208,248.3,208z"/>
	<path class="st0" d="M147.8,226c-2.3,0-4.2-1.9-4.2-4.2s1.9-4.2,4.2-4.2s4.2,1.9,4.2,4.2S150.1,226,147.8,226z M147.8,219.2
		c-1.5,0-2.6,1.2-2.6,2.6c0,1.5,1.2,2.6,2.6,2.6c1.5,0,2.6-1.2,2.6-2.6C150.4,220.3,149.3,219.2,147.8,219.2z"/>
	<path class="st0" d="M151.3,368.1c-2.3,0-4.2-1.9-4.2-4.2c0-2.3,1.9-4.2,4.2-4.2s4.2,1.9,4.2,4.2
		C155.5,366.2,153.7,368.1,151.3,368.1z M151.3,361.3c-1.5,0-2.6,1.2-2.6,2.6c0,1.5,1.2,2.6,2.6,2.6c1.4,0,2.6-1.2,2.6-2.6
		C154,362.4,152.8,361.3,151.3,361.3z"/>
	<path class="st0" d="M239.3,362.2c-2.3,0-4.2-1.9-4.2-4.2s1.9-4.2,4.2-4.2s4.2,1.9,4.2,4.2S241.6,362.2,239.3,362.2z M239.3,355.3
		c-1.5,0-2.6,1.2-2.6,2.6c0,1.5,1.2,2.6,2.6,2.6c1.5,0,2.6-1.2,2.6-2.6S240.7,355.3,239.3,355.3z"/>
	<path class="st0" d="M294.3,350.7c-1.5,0-3-0.8-3.7-2.2c-0.5-1-0.6-2.1-0.3-3.2c0.3-1.1,1.1-2,2.1-2.5s2.1-0.6,3.2-0.3
		s2,1.1,2.5,2.1l0,0c1.1,2.1,0.3,4.6-1.8,5.7C295.6,350.6,295,350.7,294.3,350.7z M294.3,343.9c-0.4,0-0.8,0.1-1.2,0.3
		c-0.6,0.3-1.1,0.9-1.3,1.6c-0.2,0.7-0.1,1.4,0.2,2c0.7,1.3,2.3,1.8,3.6,1.1c1.3-0.7,1.8-2.3,1.1-3.6c-0.3-0.6-0.9-1.1-1.6-1.3
		C294.8,343.9,294.6,343.9,294.3,343.9z"/>
	<path class="st0" d="M303.9,364.8c-1.5,0-3-0.8-3.7-2.2c-1.1-2.1-0.3-4.6,1.8-5.7s4.6-0.3,5.7,1.8c0.5,1,0.6,2.1,0.3,3.2
		s-1.1,2-2.1,2.5C305.2,364.6,304.6,364.8,303.9,364.8z M303.9,357.9c-0.4,0-0.8,0.1-1.2,0.3c-1.3,0.7-1.8,2.3-1.1,3.6
		c0.7,1.3,2.3,1.8,3.6,1.1c0.6-0.3,1.1-0.9,1.3-1.6c0.2-0.7,0.1-1.4-0.2-2C305.7,358.5,304.8,357.9,303.9,357.9z"/>
	<path class="st0" d="M250.7,362.2c-2.3,0-4.2-1.9-4.2-4.2s1.9-4.2,4.2-4.2s4.2,1.9,4.2,4.2S253,362.2,250.7,362.2z M250.7,355.3
		c-1.5,0-2.6,1.2-2.6,2.6c0,1.5,1.2,2.6,2.6,2.6c1.5,0,2.6-1.2,2.6-2.6S252.1,355.3,250.7,355.3z"/>
	<path class="st0" d="M275.5,362.2c-2.3,0-4.2-1.9-4.2-4.2s1.9-4.2,4.2-4.2s4.2,1.9,4.2,4.2S277.8,362.2,275.5,362.2z M275.5,355.3
		c-1.5,0-2.6,1.2-2.6,2.6c0,1.5,1.2,2.6,2.6,2.6c1.5,0,2.6-1.2,2.6-2.6S276.9,355.3,275.5,355.3z"/>
	<path class="st0" d="M263.9,401.7c-2.3,0-4.2-1.9-4.2-4.2s1.9-4.2,4.2-4.2c2.3,0,4.2,1.9,4.2,4.2S266.2,401.7,263.9,401.7z
		 M263.9,394.8c-1.5,0-2.6,1.2-2.6,2.6c0,1.5,1.2,2.6,2.6,2.6c1.5,0,2.6-1.2,2.6-2.6C266.6,396,265.4,394.8,263.9,394.8z"/>
	<path class="st0" d="M275.6,401.7c-2.3,0-4.2-1.9-4.2-4.2s1.9-4.2,4.2-4.2c2.3,0,4.2,1.9,4.2,4.2S277.9,401.7,275.6,401.7z
		 M275.6,394.8c-1.5,0-2.6,1.2-2.6,2.6c0,1.5,1.2,2.6,2.6,2.6c1.5,0,2.6-1.2,2.6-2.6S277,394.8,275.6,394.8z"/>
	<path class="st0" d="M22.7,126.9c-2.3,0-4.2-1.9-4.2-4.2c0-2.3,1.9-4.2,4.2-4.2s4.2,1.9,4.2,4.2C26.9,125,25,126.9,22.7,126.9z
		 M22.7,120c-1.5,0-2.6,1.2-2.6,2.6c0,1.5,1.2,2.6,2.6,2.6c1.5,0,2.6-1.2,2.6-2.6S24.1,120,22.7,120z"/>
	<path class="st0" d="M64.9,116.6c-2.3,0-4.2-1.9-4.2-4.2c0-2.3,1.9-4.2,4.2-4.2c2.3,0,4.2,1.9,4.2,4.2
		C69.1,114.7,67.2,116.6,64.9,116.6z M64.9,109.8c-1.5,0-2.6,1.2-2.6,2.6c0,1.5,1.2,2.6,2.6,2.6c1.5,0,2.6-1.2,2.6-2.6
		S66.4,109.8,64.9,109.8z"/>
	<path class="st0" d="M75.9,95.8c-2.3,0-4.2-1.9-4.2-4.2c0-2.3,1.9-4.2,4.2-4.2c2.3,0,4.2,1.9,4.2,4.2
		C80.1,93.9,78.2,95.8,75.9,95.8z M75.9,89c-1.5,0-2.6,1.2-2.6,2.6c0,1.5,1.2,2.6,2.6,2.6c1.5,0,2.6-1.2,2.6-2.6S77.3,89,75.9,89z"
		/>
	<path class="st0" d="M62.4,73.2c-2.3,0-4.2-1.9-4.2-4.2s1.9-4.2,4.2-4.2c2.3,0,4.2,1.9,4.2,4.2S64.7,73.2,62.4,73.2z M62.4,66.4
		c-1.5,0-2.6,1.2-2.6,2.6c0,1.5,1.2,2.6,2.6,2.6c1.5,0,2.6-1.2,2.6-2.6S63.8,66.4,62.4,66.4z"/>
	<path class="st0" d="M97.8,47.7c-2.3,0-4.2-1.9-4.2-4.2s1.9-4.2,4.2-4.2c2.3,0,4.2,1.9,4.2,4.2S100.1,47.7,97.8,47.7z M97.8,40.8
		c-1.5,0-2.6,1.2-2.6,2.6c0,1.5,1.2,2.6,2.6,2.6c1.5,0,2.6-1.2,2.6-2.6C100.4,42,99.2,40.8,97.8,40.8z"/>
	<path class="st0" d="M49.4,89.7c-2.3,0-4.2-1.9-4.2-4.2s1.9-4.2,4.2-4.2c2.3,0,4.2,1.9,4.2,4.2S51.7,89.7,49.4,89.7z M49.4,82.8
		c-1.5,0-2.6,1.2-2.6,2.6c0,1.5,1.2,2.6,2.6,2.6c1.5,0,2.6-1.2,2.6-2.6S50.8,82.8,49.4,82.8z"/>
	<path class="st0" d="M41.8,200.9c-2.3,0-4.2-1.9-4.2-4.2s1.9-4.2,4.2-4.2s4.2,1.9,4.2,4.2C46.1,199,44.2,200.9,41.8,200.9z
		 M41.8,194c-1.5,0-2.6,1.2-2.6,2.6c0,1.5,1.2,2.6,2.6,2.6c1.5,0,2.6-1.2,2.6-2.6C44.5,195.2,43.3,194,41.8,194z"/>
	<path class="st0" d="M86.4,102c-2.3,0-4.2-1.9-4.2-4.2c0-2.3,1.9-4.2,4.2-4.2c2.3,0,4.2,1.9,4.2,4.2C90.6,100.1,88.7,102,86.4,102z
		 M86.4,95.2c-1.5,0-2.6,1.2-2.6,2.6c0,1.4,1.2,2.6,2.6,2.6c1.5,0,2.6-1.2,2.6-2.6C89,96.4,87.8,95.2,86.4,95.2z"/>
	<path class="st0" d="M96.6,94.9c-2.3,0-4.2-1.9-4.2-4.2c0-2.3,1.9-4.2,4.2-4.2c2.3,0,4.2,1.9,4.2,4.2C100.9,93,99,94.9,96.6,94.9z
		 M96.6,88.1c-1.5,0-2.6,1.2-2.6,2.6c0,1.5,1.2,2.6,2.6,2.6c1.5,0,2.6-1.2,2.6-2.6C99.3,89.3,98.1,88.1,96.6,88.1z"/>
	<path class="st0" d="M125.4,39.4c-2.3,0-4.2-1.9-4.2-4.2s1.9-4.2,4.2-4.2c2.3,0,4.2,1.9,4.2,4.2S127.7,39.4,125.4,39.4z
		 M125.4,32.6c-1.5,0-2.6,1.2-2.6,2.6c0,1.5,1.2,2.6,2.6,2.6c1.5,0,2.6-1.2,2.6-2.6C128.1,33.8,126.9,32.6,125.4,32.6z"/>
	<path class="st0" d="M228.9,15c-2.3,0-4.2-1.9-4.2-4.2s1.9-4.2,4.2-4.2c2.3,0,4.2,1.9,4.2,4.2S231.2,15,228.9,15z M228.9,8.1
		c-1.5,0-2.6,1.2-2.6,2.6s1.2,2.6,2.6,2.6c1.5,0,2.6-1.2,2.6-2.6S230.3,8.1,228.9,8.1z"/>
	<path class="st0" d="M252.4,28c-2.3,0-4.2-1.9-4.2-4.2s1.9-4.2,4.2-4.2c2.3,0,4.2,1.9,4.2,4.2S254.7,28,252.4,28z M252.4,21.2
		c-1.5,0-2.6,1.2-2.6,2.6c0,1.5,1.2,2.6,2.6,2.6c1.5,0,2.6-1.2,2.6-2.6C255,22.3,253.8,21.2,252.4,21.2z"/>
	<path class="st0" d="M262.4,10.4c-2.3,0-4.2-1.9-4.2-4.2s1.9-4.2,4.2-4.2c2.3,0,4.2,1.9,4.2,4.2C266.7,8.5,264.8,10.4,262.4,10.4z
		 M262.4,3.6c-1.5,0-2.6,1.2-2.6,2.6c0,1.5,1.2,2.6,2.6,2.6c1.5,0,2.6-1.2,2.6-2.6C265.1,4.8,263.9,3.6,262.4,3.6z"/>
	<path class="st0" d="M272.9,15.7c-3,0-5.5-2.5-5.5-5.5s2.5-5.5,5.5-5.5s5.5,2.5,5.5,5.5C278.5,13.2,276,15.7,272.9,15.7z
		 M272.9,6.2c-2.2,0-3.9,1.8-3.9,3.9c0,2.2,1.8,3.9,3.9,3.9c2.2,0,3.9-1.8,3.9-3.9C276.9,8,275.1,6.2,272.9,6.2z"/>
	<path class="st0" d="M40.5,216c-2.3,0-4.2-1.9-4.2-4.2s1.9-4.2,4.2-4.2s4.2,1.9,4.2,4.2S42.8,216,40.5,216z M40.5,209.1
		c-1.5,0-2.6,1.2-2.6,2.6c0,1.5,1.2,2.6,2.6,2.6c1.5,0,2.6-1.2,2.6-2.6C43.1,210.3,41.9,209.1,40.5,209.1z"/>
	<path class="st0" d="M55.8,296l-31.7-18.6l-12.4-20.7l1.4-0.8l12.2,20.3l31.3,18.4L55.8,296z"/>
	<path class="st0" d="M205.3,155.7c0,1.7-1.4,3.1-3.1,3.1s-3.1-1.4-3.1-3.1s1.4-3.1,3.1-3.1C204,152.6,205.3,154,205.3,155.7z"/>
	<path class="st0" d="M156.6,24.7c0,1.7-1.4,3.1-3.1,3.1s-3.1-1.4-3.1-3.1c0-1.7,1.4-3.1,3.1-3.1S156.6,23,156.6,24.7z"/>
	<path class="st0" d="M188.4,20.6c0,1.7-1.4,3.1-3.1,3.1s-3.1-1.4-3.1-3.1c0-1.7,1.4-3.1,3.1-3.1C187.1,17.5,188.4,18.9,188.4,20.6z
		"/>
	<path class="st0" d="M280.5,82.5c0,1.7-1.4,3.1-3.1,3.1c-1.7,0-3.1-1.4-3.1-3.1s1.4-3.1,3.1-3.1C279.1,79.4,280.5,80.8,280.5,82.5z
		"/>
	<path class="st0" d="M333,156.5c0,1.7-1.4,3.1-3.1,3.1c-1.7,0-3.1-1.4-3.1-3.1s1.4-3.1,3.1-3.1C331.6,153.4,333,154.8,333,156.5z"
		/>
	<path class="st0" d="M302.2,199.6c0,1.7-1.4,3.1-3.1,3.1c-1.7,0-3.1-1.4-3.1-3.1c0-1.7,1.4-3.1,3.1-3.1
		C300.8,196.6,302.2,197.9,302.2,199.6z"/>
	<path class="st0" d="M279.5,154.1c0,1.7-1.4,3.1-3.1,3.1c-1.7,0-3.1-1.4-3.1-3.1c0-1.7,1.4-3.1,3.1-3.1
		C278.1,151,279.5,152.4,279.5,154.1z"/>
	<path class="st0" d="M283.4,120.5c0,1.7-1.4,3.1-3.1,3.1c-1.7,0-3.1-1.4-3.1-3.1s1.4-3.1,3.1-3.1
		C282.1,117.4,283.4,118.8,283.4,120.5z"/>
	<path class="st0" d="M325.6,161c0,1.7-1.4,3.1-3.1,3.1s-3.1-1.4-3.1-3.1s1.4-3.1,3.1-3.1C324.2,158,325.6,159.3,325.6,161z"/>
	<path class="st0" d="M290.7,155.9c0,2.2-1.8,4-4,4c-2.2,0-4-1.8-4-4c0-2.2,1.8-4,4-4C288.9,151.9,290.7,153.7,290.7,155.9z"/>
	<path class="st0" d="M290.7,175.5c0,2.2-1.8,4-4,4c-2.2,0-4-1.8-4-4s1.8-4,4-4C288.9,171.5,290.7,173.3,290.7,175.5z"/>
	<path class="st0" d="M300.7,178.3c0,2.2-1.8,4-4,4c-2.2,0-4-1.8-4-4s1.8-4,4-4C298.9,174.2,300.7,176,300.7,178.3z"/>
	<path class="st0" d="M397.7,123.7c0,1.7-1.4,3.1-3.1,3.1c-1.7,0-3.1-1.4-3.1-3.1c0-1.7,1.4-3.1,3.1-3.1
		C396.4,120.6,397.7,122,397.7,123.7z"/>
	<path class="st0" d="M435.1,49.7c0,1.7-1.4,3.1-3.1,3.1s-3.1-1.4-3.1-3.1s1.4-3.1,3.1-3.1S435.1,48,435.1,49.7z"/>
	<path class="st0" d="M502.4,159.4c0,1.7-1.4,3.1-3.1,3.1c-1.7,0-3.1-1.4-3.1-3.1c0-1.7,1.4-3.1,3.1-3.1
		C501.1,156.3,502.4,157.7,502.4,159.4z"/>
	<path class="st0" d="M502.4,171.4c0,1.7-1.4,3.1-3.1,3.1c-1.7,0-3.1-1.4-3.1-3.1c0-1.7,1.4-3.1,3.1-3.1
		C501.1,168.3,502.4,169.7,502.4,171.4z"/>
	<path class="st0" d="M498.1,199.8c0,1.7-1.4,3.1-3.1,3.1s-3.1-1.4-3.1-3.1s1.4-3.1,3.1-3.1S498.1,198.1,498.1,199.8z"/>
	<path class="st0" d="M460.7,229.9c0,1.7-1.4,3.1-3.1,3.1c-1.7,0-3.1-1.4-3.1-3.1c0-1.7,1.4-3.1,3.1-3.1
		C459.3,226.8,460.7,228.2,460.7,229.9z"/>
	<path class="st0" d="M421.9,133.6c0,1.7-1.4,3.1-3.1,3.1c-1.7,0-3.1-1.4-3.1-3.1c0-1.7,1.4-3.1,3.1-3.1
		C420.5,130.6,421.9,131.9,421.9,133.6z"/>
	<path class="st0" d="M355.6,249.4c0,1.7-1.4,3.1-3.1,3.1s-3.1-1.4-3.1-3.1c0-1.7,1.4-3.1,3.1-3.1S355.6,247.7,355.6,249.4z"/>
	<path class="st0" d="M343.2,274.4c0,1.7-1.4,3.1-3.1,3.1c-1.7,0-3.1-1.4-3.1-3.1c0-1.7,1.4-3.1,3.1-3.1
		C341.8,271.3,343.2,272.7,343.2,274.4z"/>
	<path class="st0" d="M397.1,171c0,1.7-1.4,3.1-3.1,3.1s-3.1-1.4-3.1-3.1s1.4-3.1,3.1-3.1S397.1,169.3,397.1,171z"/>
	<path class="st0" d="M383.4,247.3c0,1.7-1.4,3.1-3.1,3.1c-1.7,0-3.1-1.4-3.1-3.1s1.4-3.1,3.1-3.1
		C382,244.2,383.4,245.5,383.4,247.3z"/>
	<path class="st0" d="M414.2,190.2c0,1.7-1.4,3.1-3.1,3.1c-1.7,0-3.1-1.4-3.1-3.1s1.4-3.1,3.1-3.1
		C412.8,187.1,414.2,188.5,414.2,190.2z"/>
	<path class="st0" d="M430.9,250.4c0,1.7-1.4,3.1-3.1,3.1c-1.7,0-3.1-1.4-3.1-3.1c0-1.7,1.4-3.1,3.1-3.1
		C429.5,247.4,430.9,248.7,430.9,250.4z"/>
	<path class="st0" d="M481.6,314.2c0,1.7-1.4,3.1-3.1,3.1s-3.1-1.4-3.1-3.1c0-1.7,1.4-3.1,3.1-3.1S481.6,312.5,481.6,314.2z"/>
	<path class="st0" d="M535.5,271.3c0,1.7-1.4,3.1-3.1,3.1c-1.7,0-3.1-1.4-3.1-3.1c0-1.7,1.4-3.1,3.1-3.1
		C534.1,268.3,535.5,269.6,535.5,271.3z"/>
	<path class="st0" d="M535.5,278.7c0,1.7-1.4,3.1-3.1,3.1c-1.7,0-3.1-1.4-3.1-3.1c0-1.7,1.4-3.1,3.1-3.1
		C534.1,275.6,535.5,277,535.5,278.7z"/>
	<path class="st0" d="M577.4,271.3c0,1.7-1.4,3.1-3.1,3.1s-3.1-1.4-3.1-3.1c0-1.7,1.4-3.1,3.1-3.1
		C576,268.3,577.4,269.6,577.4,271.3z"/>
	<path class="st0" d="M579.3,300.3c0,1.7-1.4,3.1-3.1,3.1s-3.1-1.4-3.1-3.1c0-1.7,1.4-3.1,3.1-3.1S579.3,298.6,579.3,300.3z"/>
	<path class="st0" d="M568.8,326.2c0,1.7-1.4,3.1-3.1,3.1s-3.1-1.4-3.1-3.1c0-1.7,1.4-3.1,3.1-3.1
		C567.5,323.1,568.8,324.4,568.8,326.2z"/>
	<path class="st0" d="M563.9,338.5c0,1.7-1.4,3.1-3.1,3.1s-3.1-1.4-3.1-3.1s1.4-3.1,3.1-3.1S563.9,336.8,563.9,338.5z"/>
	<path class="st0" d="M488.9,402.5c0,1.7-1.4,3.1-3.1,3.1c-1.7,0-3.1-1.4-3.1-3.1s1.4-3.1,3.1-3.1
		C487.5,399.4,488.9,400.8,488.9,402.5z"/>
	<path class="st0" d="M441.1,428.7c0,1.7-1.4,3.1-3.1,3.1s-3.1-1.4-3.1-3.1c0-1.7,1.4-3.1,3.1-3.1
		C439.8,425.6,441.1,427,441.1,428.7z"/>
	<path class="st0" d="M406.8,455.9c0,1.7-1.4,3.1-3.1,3.1c-1.7,0-3.1-1.4-3.1-3.1c0-1.7,1.4-3.1,3.1-3.1
		C405.4,452.8,406.8,454.2,406.8,455.9z"/>
	<path class="st0" d="M397.2,463.1c0,1.7-1.4,3.1-3.1,3.1c-1.7,0-3.1-1.4-3.1-3.1c0-1.7,1.4-3.1,3.1-3.1
		C395.8,460,397.2,461.4,397.2,463.1z"/>
	<path class="st0" d="M361.2,469.9c0,1.7-1.4,3.1-3.1,3.1c-1.7,0-3.1-1.4-3.1-3.1c0-1.7,1.4-3.1,3.1-3.1
		C359.8,466.8,361.2,468.2,361.2,469.9z"/>
	<path class="st0" d="M288.9,392.1c0,1.7-1.4,3.1-3.1,3.1c-1.7,0-3.1-1.4-3.1-3.1c0-1.7,1.4-3.1,3.1-3.1
		C287.5,389.1,288.9,390.4,288.9,392.1z"/>
	<path class="st0" d="M398.4,505.6c0,1.7-1.4,3.1-3.1,3.1c-1.7,0-3.1-1.4-3.1-3.1c0-1.7,1.4-3.1,3.1-3.1
		C397,502.6,398.4,503.9,398.4,505.6z"/>
	<path class="st0" d="M363.5,401.5c0,1.7-1.4,3.1-3.1,3.1c-1.7,0-3.1-1.4-3.1-3.1s1.4-3.1,3.1-3.1
		C362.1,398.4,363.5,399.8,363.5,401.5z"/>
	<path class="st0" d="M384.5,314.2c0,1.7-1.4,3.1-3.1,3.1c-1.7,0-3.1-1.4-3.1-3.1c0-1.7,1.4-3.1,3.1-3.1
		C383.1,311.1,384.5,312.5,384.5,314.2z"/>
	<path class="st0" d="M429.3,329.7c0,1.7-1.4,3.1-3.1,3.1c-1.7,0-3.1-1.4-3.1-3.1c0-1.7,1.4-3.1,3.1-3.1
		C427.9,326.6,429.3,328,429.3,329.7z"/>
	<path class="st0" d="M379.7,341.3c0,1.7-1.4,3.1-3.1,3.1c-1.7,0-3.1-1.4-3.1-3.1c0-1.7,1.4-3.1,3.1-3.1
		C378.3,338.3,379.7,339.6,379.7,341.3z"/>
	<path class="st0" d="M363,311.7c0,1.7-1.4,3.1-3.1,3.1c-1.7,0-3.1-1.4-3.1-3.1c0-1.7,1.4-3.1,3.1-3.1
		C361.7,308.6,363,309.9,363,311.7z"/>
	<path class="st0" d="M450.3,221.4c0,1.7-1.4,3.1-3.1,3.1c-1.7,0-3.1-1.4-3.1-3.1c0-1.7,1.4-3.1,3.1-3.1
		C448.9,218.4,450.3,219.7,450.3,221.4z"/>
	<path class="st0" d="M249.2,98.2c0,1.7-1.4,3.1-3.1,3.1c-1.7,0-3.1-1.4-3.1-3.1c0-1.7,1.4-3.1,3.1-3.1
		C247.8,95.2,249.2,96.5,249.2,98.2z"/>
	<path class="st0" d="M387.8,27.8c0,1.7-1.4,3.1-3.1,3.1c-1.7,0-3.1-1.4-3.1-3.1c0-1.7,1.4-3.1,3.1-3.1
		C386.4,24.7,387.8,26.1,387.8,27.8z"/>
	<path class="st0" d="M74.7,300.8c0,1.7-1.4,3.1-3.1,3.1c-1.7,0-3.1-1.4-3.1-3.1c0-1.7,1.4-3.1,3.1-3.1
		C73.3,297.7,74.7,299.1,74.7,300.8z"/>
	<path class="st0" d="M44.2,271.3c0,1.7-1.4,3.1-3.1,3.1c-1.7,0-3.1-1.4-3.1-3.1c0-1.7,1.4-3.1,3.1-3.1
		C42.9,268.3,44.2,269.6,44.2,271.3z"/>
	<path class="st0" d="M174.1,255.2c0,1.7-1.4,3.1-3.1,3.1s-3.1-1.4-3.1-3.1s1.4-3.1,3.1-3.1C172.7,252.2,174.1,253.5,174.1,255.2z"
		/>
	<path class="st0" d="M152.4,179.7c0,1.7-1.4,3.1-3.1,3.1s-3.1-1.4-3.1-3.1s1.4-3.1,3.1-3.1S152.4,178,152.4,179.7z"/>
	<path class="st0" d="M67.2,186.8c1.5,0.9,2,2.7,1.1,4.2c-0.9,1.5-2.7,2-4.2,1.1c-1.5-0.9-2-2.7-1.1-4.2
		C63.9,186.5,65.8,186,67.2,186.8z"/>
	<path class="st0" d="M99.6,215.5c0,1.7-1.4,3.1-3.1,3.1s-3.1-1.4-3.1-3.1s1.4-3.1,3.1-3.1S99.6,213.8,99.6,215.5z"/>
	<path class="st0" d="M179.2,233.4c0.5,1.6-0.5,3.3-2.1,3.8c-1.6,0.5-3.3-0.5-3.8-2.1c-0.5-1.6,0.5-3.3,2.1-3.8
		C177,230.8,178.7,231.8,179.2,233.4z"/>
	<path class="st0" d="M170.8,234.8c0.5,1.6-0.5,3.3-2.1,3.8c-1.6,0.5-3.3-0.5-3.8-2.1s0.5-3.3,2.1-3.8S170.3,233.1,170.8,234.8z"/>
	<path class="st0" d="M170.8,203.5c0.5,1.6-0.5,3.3-2.1,3.8c-1.6,0.5-3.3-0.5-3.8-2.1c-0.5-1.6,0.5-3.3,2.1-3.8
		S170.3,201.9,170.8,203.5z"/>
	<path class="st0" d="M179.2,243.7c0.5,1.6-0.5,3.3-2.1,3.8c-1.6,0.5-3.3-0.5-3.8-2.1c-0.5-1.6,0.5-3.3,2.1-3.8
		C177,241.1,178.7,242,179.2,243.7z"/>
	<path class="st0" d="M110.8,308.9c0,3.2-2.6,5.7-5.7,5.7s-5.7-2.6-5.7-5.7c0-3.2,2.6-5.7,5.7-5.7S110.8,305.8,110.8,308.9z"/>
	<path class="st0" d="M119.5,285.8c0,1.7-1.4,3.1-3.1,3.1c-1.7,0-3.1-1.4-3.1-3.1c0-1.7,1.4-3.1,3.1-3.1
		C118.1,282.7,119.5,284.1,119.5,285.8z"/>
	<path class="st0" d="M98.5,303.9c0,1.7-1.4,3.1-3.1,3.1c-1.7,0-3.1-1.4-3.1-3.1c0-1.7,1.4-3.1,3.1-3.1
		C97.1,300.8,98.5,302.2,98.5,303.9z"/>
	<path class="st0" d="M191.1,297.7c0.7,1.6-0.1,3.4-1.6,4c-1.6,0.7-3.4-0.1-4-1.6c-0.7-1.6,0.1-3.4,1.6-4S190.5,296.1,191.1,297.7z"
		/>
	<path class="st0" d="M233.7,317.9c0.5,1.6-0.5,3.3-2.1,3.8c-1.6,0.5-3.3-0.5-3.8-2.1s0.5-3.3,2.1-3.8
		C231.6,315.3,233.3,316.3,233.7,317.9z"/>
	<path class="st0" d="M278.8,297.7c0.5,1.6-0.5,3.3-2.1,3.8c-1.6,0.5-3.3-0.5-3.8-2.1s0.5-3.3,2.1-3.8S278.3,296,278.8,297.7z"/>
	<path class="st0" d="M313.4,312.8c0.5,1.6-0.5,3.3-2.1,3.8c-1.6,0.5-3.3-0.5-3.8-2.1s0.5-3.3,2.1-3.8S312.9,311.1,313.4,312.8z"/>
	<path class="st0" d="M318.3,325.8c0.5,1.6-0.5,3.3-2.1,3.8c-1.6,0.5-3.3-0.5-3.8-2.1s0.5-3.3,2.1-3.8
		C316.2,323.2,317.9,324.1,318.3,325.8z"/>
	<path class="st0" d="M269.3,284.3c1.4,1,1.7,2.9,0.7,4.3s-2.9,1.7-4.3,0.7c-1.4-1-1.7-2.9-0.7-4.3S268,283.3,269.3,284.3z"/>
	<path class="st0" d="M273.2,269.5c1.4,1,1.7,2.9,0.7,4.3c-1,1.4-2.9,1.7-4.3,0.7s-1.7-2.9-0.7-4.3
		C269.9,268.8,271.8,268.5,273.2,269.5z"/>
	<path class="st0" d="M242.4,199.4c1.4,1,1.7,2.9,0.7,4.3c-1,1.4-2.9,1.7-4.3,0.7c-1.4-1-1.7-2.9-0.7-4.3
		C239.1,198.7,241,198.4,242.4,199.4z"/>
	<path class="st0" d="M240.8,186.8c1.4,1,1.7,2.9,0.7,4.3c-1,1.4-2.9,1.7-4.3,0.7c-1.4-1-1.7-2.9-0.7-4.3S239.4,185.8,240.8,186.8z"
		/>
	<path class="st0" d="M242.4,151.9c1.4,1,1.7,2.9,0.7,4.3c-1,1.4-2.9,1.7-4.3,0.7c-1.4-1-1.7-2.9-0.7-4.3
		C239.1,151.2,241,150.9,242.4,151.9z"/>
	<path class="st0" d="M248.4,222c1.2-1.7,3.6-2.1,5.3-0.8c1.7,1.2,2.1,3.6,0.8,5.3c-1.2,1.7-3.6,2.1-5.3,0.8
		C247.6,226,247.2,223.7,248.4,222z"/>
	<path class="st0" d="M266.5,359.3c0,1.7-1.4,3.1-3.1,3.1c-1.7,0-3.1-1.4-3.1-3.1c0-1.7,1.4-3.1,3.1-3.1
		C265.1,356.2,266.5,357.6,266.5,359.3z"/>
	<path class="st0" d="M224.5,396.8c0,1.7-1.4,3.1-3.1,3.1c-1.7,0-3.1-1.4-3.1-3.1c0-1.7,1.4-3.1,3.1-3.1
		C223.1,393.7,224.5,395.1,224.5,396.8z"/>
	<path class="st0" d="M46.6,247.7c0,2.8-2.3,5.1-5.1,5.1s-5.1-2.3-5.1-5.1s2.3-5.1,5.1-5.1S46.6,244.9,46.6,247.7z"/>
	<path class="st0" d="M289.2,308.7c0,2.8-2.3,5.1-5.1,5.1c-2.8,0-5.1-2.3-5.1-5.1c0-2.8,2.3-5.1,5.1-5.1
		C286.9,303.5,289.2,305.8,289.2,308.7z"/>
	<path class="st0" d="M295.3,363.2c0,2.8-2.3,5.1-5.1,5.1c-2.8,0-5.1-2.3-5.1-5.1c0-2.8,2.3-5.1,5.1-5.1
		C293,358.1,295.3,360.4,295.3,363.2z"/>
	<path class="st0" d="M129.9,122.3c0,2.8-2.3,5.1-5.1,5.1c-2.8,0-5.1-2.3-5.1-5.1c0-2.8,2.3-5.1,5.1-5.1
		C127.6,117.2,129.9,119.5,129.9,122.3z"/>
	<path class="st0" d="M169.5,101.7c3.7,0,6.7,3,6.7,6.7c0,3.7-3,6.7-6.7,6.7s-6.7-3-6.7-6.7C162.8,104.7,165.8,101.7,169.5,101.7z"
		/>
	<path class="st0" d="M405,62.1c4,0,7.3,3.3,7.3,7.3s-3.3,7.3-7.3,7.3s-7.3-3.3-7.3-7.3S401,62.1,405,62.1z"/>
	<path class="st0" d="M436.9,207.5c3.4,0,6.2,2.8,6.2,6.2c0,3.4-2.8,6.2-6.2,6.2s-6.2-2.8-6.2-6.2
		C430.7,210.3,433.5,207.5,436.9,207.5z"/>
	<path class="st0" d="M350.8,19.8c4,0,7.3,3.3,7.3,7.3s-3.3,7.3-7.3,7.3s-7.3-3.3-7.3-7.3S346.7,19.8,350.8,19.8z"/>
	<rect x="19.8" y="174.7" class="st0" width="1.6" height="69.9"/>
	<path class="st0" d="M31,267.9h-1.6V144l-6.1-18.3l1.5-0.5l6.2,18.6V267.9z"/>
	<path class="st0" d="M42.6,193.9H41v-58.1l-11.1-29.1L43.4,96l1,1.3l-12.6,9.9l10.8,28.4V193.9z"/>
	<path class="st0" d="M169.3,255.7h-29L106,233.8H39.7v-18.6h1.6v17h65.2l34.2,21.9h28.6V255.7z"/>
	<path class="st0" d="M105.7,305.6h-1.6v-56.8H40.5v-1.5h65.2V305.6z"/>
	<path class="st0" d="M152.2,360.4h-1.5V287h32.8v-16.2h-46l-22.8-14.5l0.9-1.4l22.4,14.3h47.1v19.4h-32.9V360.4z"/>
	<path class="st0" d="M359.5,401.7l-59.1-70l-82.3,2.1L200,286.6V186.1h1.6v100.2l17.5,45.9l82.1-2.1l59.5,70.6L359.5,401.7z"/>
	<path class="st0" d="M207.1,348.9l-19.4-48.5l1.5-0.6l19,47.5l83-1.4v1.6L207.1,348.9z"/>
	<path class="st0" d="M477,407h-1.6v-66.6h32.9v-80.6H475v-1.6h34.9V342H477V407z"/>
	<path class="st0" d="M47.1,113l-0.9-1.2l11.1-8.5l-6.9-14l1.4-0.7l7.5,15.1L47.1,113z"/>
	<path class="st0" d="M52.2,220h-1.6l1.4-97.7l9.9-8.4l1,1.2l-9.3,7.9L52.2,220z"/>
	<path class="st0" d="M64.9,212.4l-0.9-1.3l16.8-10.8v-65l0.3-0.2l71.6-55.3V24.7h1.6v55.9l-0.3,0.2l-71.6,55.3v65.1L64.9,212.4z"/>
	<path class="st0" d="M97.4,215.2h-1.5v-72.4l27.7-20.4l0.9,1.3l-27.1,19.9V215.2z"/>
	<path class="st0" d="M66.6,189.1H65l0.3-59l50.1-38.2l0.9,1.3l-49.5,37.6L66.6,189.1z"/>
	<path class="st0" d="M147.8,106.2l-0.9-1.3l22.3-17.5V29.2h1.5v58.9L147.8,106.2z"/>
	<path class="st0" d="M229.5,318.9l-14.4-37.8V132.6h1.5v148.2l14.4,37.5L229.5,318.9z"/>
	<path class="st0" d="M466.6,415.3h-75.7l-0.3-0.3l-76-87.6l1.2-1.1l75.8,87.4h75V415.3z"/>
	<path class="st0" d="M189.1,389l-23.4-12.4v-75.9h11.8v1.6h-10.2v73.4l22.5,11.9L189.1,389z"/>
	<path class="st0" d="M220,364.6h-21.8l-19.4-48.4l1.5-0.6l19,47.4H220V364.6z"/>
	<path class="st0" d="M223.1,396.7l-0.8-1.4l16.1-9.3v-24.9h1.5v25.8L223.1,396.7z"/>
	
		<rect x="250.3" y="361.1" transform="matrix(0.9998 -2.082575e-02 2.082575e-02 0.9998 -7.8084 5.3113)" class="st0" width="1.6" height="32.9"/>
	
		<rect x="262.7" y="361.1" transform="matrix(0.9998 -2.082575e-02 2.082575e-02 0.9998 -7.8057 5.5696)" class="st0" width="1.6" height="32.9"/>
	<rect x="274.7" y="361.8" class="st0" width="1.6" height="32.9"/>
	
		<rect x="344.9" y="348.2" transform="matrix(0.7577 -0.6527 0.6527 0.7577 -182.8448 324.657)" class="st0" width="1.6" height="120.7"/>
	<path class="st0" d="M394.6,506.4l-3-24.1L289.8,364.7l1.2-1l102.1,117.9l3,24.6L394.6,506.4z"/>
	<path class="st0" d="M358.8,470.1l-1.6-0.2l1.7-9.9l-73.1-81.9l1.2-1.1l73.6,82.5L358.8,470.1z"/>
	<path class="st0" d="M344.1,465.4l-1.6-0.3l1.3-7.9l-58-64.1l1.2-1l58.5,64.7L344.1,465.4z"/>
	<path class="st0" d="M376.1,498.1l-0.7-19.1h-8.8v-1.6h10.3l0.7,20.7H376.1z"/>
	<path class="st0" d="M403.5,496.1l-0.7-22.3l-10.1-11.5l1.2-1l10.4,11.8l0.1,0.3L405,496L403.5,496.1z"/>
	<path class="st0" d="M437.8,429.7h-54.5l-9.1-10.5l1.2-1.1l8.7,10h53.7V429.7z"/>
	<path class="st0" d="M113.5,154.2l-0.9-1.3l28.3-19.4h0.3l61,0.7l-0.1,1.6l-60.7-0.7L113.5,154.2z"/>
	<path class="st0" d="M139.2,240.7L113,221v-33.9h1.6v33.2l23,17.3v-88l8.8-5.1h53v1.6h-52.5l-7.7,4.4V240.7z"/>
	<rect x="124.6" y="156.9" class="st0" width="1.6" height="56.2"/>
	<path class="st0" d="M187.2,255.6h-1.6v-84.9h-37v-15.9h53.6v1.6h-52v12.8h37V255.6z"/>
	<path class="st0" d="M177.9,203.5h-1.5v-9.6l-13.6-13.6h-14.1v-1.5h14.7l14.5,14.5V203.5z"/>
	<path class="st0" d="M168.7,202.4h-1.6v-4.1l-7.1-7.7h-7.2V189h7.9l8,8.7V202.4z"/>
	<path class="st0" d="M176.1,245.4h-28.9v-20.6h1.6v19h27.3V245.4z"/>
	<path class="st0" d="M167.9,236.5h-12.4v-11.7h1.5v10.1h10.9V236.5z"/>
	<path class="st0" d="M168.7,222.9h-1.6v-9H148v-1.6h20.7V222.9z"/>
	<rect x="175.3" y="222.7" class="st0" width="1.6" height="13"/>
	<path class="st0" d="M202.3,123.5h-50.2v-1.6h48.6V27.2h1.6V123.5z"/>
	<path class="st0" d="M186.5,111.1h-15.9v-1.5h14.3V22.3h1.6V111.1z"/>
	<path class="st0" d="M71,109.5L55.3,77.4l1.4-0.7l14.9,30.4L83,99.4l0.8,1.3L71,109.5z"/>
	<path class="st0" d="M129.3,82.2l-0.9-1.2l9.2-7.3V30.2h1.6v44.2L129.3,82.2z"/>
	<path class="st0" d="M98.9,89.3L98,88l26-19.2l0.4-29.9h1.6l-0.5,30.7L98.9,89.3z"/>
	<path class="st0" d="M78.8,90.2l-0.9-1.3l28.9-20.1l-0.7-26.7l6.6-3.7l0.8,1.4l-5.8,3.2l0.7,26.6L78.8,90.2z"/>
	<rect x="115" y="49.4" class="st0" width="1.6" height="15.8"/>
	<path class="st0" d="M70.1,85.7l-7-14l1.4-0.8l6.2,12.5l27.6-18.9l0.8,1.3L70.1,85.7z"/>
	<path class="st0" d="M73,71.8l-3.1-7l1.4-0.7l2.4,5.3l22.8-15v-7.8h1.6v8.7L73,71.8z"/>
	<path class="st0" d="M96.1,290.5h-1.6v-30.7H41.2v-1.6h54.9V290.5z"/>
	<path class="st0" d="M97.3,304.3H82.8v-32.2H41.2v-1.5h43.2v32.2h12.9V304.3z"/>
	<path class="st0" d="M72.1,300.8h-1.6v-17.7H50.7v-1.6h21.4V300.8z"/>
	<path class="st0" d="M137.2,317.9h-1.6v-32.4l-20.9-12.8l0.9-1.3l21.6,13.2V317.9z"/>
	<path class="st0" d="M128.2,305h-12.5v-18.6h1.6v17h10.9V305z"/>
	<path class="st0" d="M255.6,320.1v-1.6l42.3-0.7l-1.3-103.7l0.3-0.2l87.4-74.5l-0.7-111.3h1.6l0.7,112.1l-0.3,0.2l-87.4,74.4
		l1.3,104.6L255.6,320.1z"/>
	<path class="st0" d="M509.2,243.4h-52.9v-1.6h51.3V116.2l-47.1-48.5l1.2-1.1l47.5,48.9V243.4z"/>
	<path class="st0" d="M362,103.2l-51.7-42.5V8.3h1.6V60l51.1,42L362,103.2z"/>
	<path class="st0" d="M366.1,126l-70.2-57.1V6.2h1.6v62l69.6,56.6L366.1,126z"/>
	<path class="st0" d="M495.4,200.2h-35.3l-0.3-0.3l-56.3-61.2V70.6h1.5v67.5l55.8,60.5h34.6V200.2z"/>
	<path class="st0" d="M498.1,217.3h-43.5l-0.2-0.2l-50.7-53.5l1.1-1l50.5,53.1h42.8V217.3z"/>
	<path class="st0" d="M285.7,309.1h-47.8l-10.5-31.5V113.5l-12.3-8.2V13.1h1.5v91.3l12.4,8.3v164.7l10,30.1h46.7V309.1z"/>
	<path class="st0" d="M240.6,120.6H239v-16l-10.9-7.5V14.4h1.6v81.8l10.9,7.6V120.6z"/>
	<path class="st0" d="M280.5,201l-40.8-25.8v-21.7h1.6v20.8l40.1,25.4L280.5,201z"/>
	<path class="st0" d="M285.2,276.8h-1.6v-59.1l-44.9-27.9l0.9-1.3l45.6,28.3V276.8z"/>
	<path class="st0" d="M275.5,299.5h-28l-7.8-23.9v-72.8h1.6v72.5l7.3,22.7h26.9V299.5z"/>
	<path class="st0" d="M272.1,272h-1.5v-46.8l-19.8-12.1l0.9-1.3l20.4,12.5V272z"/>
	<path class="st0" d="M266.4,287.2h-12.1l-3.6-15.2v-46.6h1.6v46.5l3.2,13.7h10.9V287.2z"/>
	<rect x="260.3" y="239.8" class="st0" width="1.6" height="32.2"/>
	<path class="st0" d="M241.1,87.6l-1.2-1.1l43-50.4V6.2h1.6v30.5L241.1,87.6z"/>
	<path class="st0" d="M242.5,65l-1.2-1.1l30.6-34V14.4h1.6v16.1L242.5,65z"/>
	<path class="st0" d="M241.1,50.1V22h1.6v23.9l18.9-21.5V9.9h1.6V25L241.1,50.1z"/>
	<rect x="251.4" y="6.2" class="st0" width="1.6" height="14.4"/>
	<path class="st0" d="M340.6,152.5l-0.6-0.4l-81.6-66l-12.5,13.1l-1.2-1l13.6-14.3l82.2,66.5l13.2-11.9l1.1,1.2L340.6,152.5z"/>
	
		<rect x="261.9" y="66.4" transform="matrix(0.6549 -0.7557 0.7557 0.6549 44.3072 231.3783)" class="st0" width="27.2" height="1.6"/>
	
		<rect x="307.2" y="67.7" transform="matrix(0.641 -0.7675 0.7675 0.641 27.4397 275.2726)" class="st0" width="1.6" height="81.2"/>
	
		<rect x="317.3" y="75.4" transform="matrix(0.6372 -0.7707 0.7707 0.6372 36.9025 282.0922)" class="st0" width="1.6" height="53"/>
	
		<rect x="290" y="175.2" transform="matrix(0.7576 -0.6527 0.6527 0.7576 -35.8745 255.4437)" class="st0" width="71.9" height="1.6"/>
	<path class="st0" d="M374.9,128.3h-1.6V28.5l-6.1-6l1.1-1.1l6.6,6.4V128.3z"/>
	<path class="st0" d="M333.1,43.4h-1.6v-7.3l7.6-3.5V19.2h1.6v14.4l-7.6,3.6V43.4z"/>
	<path class="st0" d="M359.1,84.3h-1.5l0.6-48.3l-10-10l1.1-1.2l10.5,10.6L359.1,84.3z"/>
	<rect x="322.6" y="10.3" class="st0" width="1.6" height="41.1"/>
	<path class="st0" d="M346.8,70.7l-12.6-8.6l0.8-1.3l10.2,7V42.5h1.6V70.7z"/>
	<path class="st0" d="M311.2,313.1h-1.6v-94.9l73.6-62.6l1,1.3l-73,62.1V313.1z"/>
	<path class="st0" d="M283.1,188.3l-31-20v-53.6h1.5v52.8L284,187L283.1,188.3z"/>
	<path class="st0" d="M297.5,175.4h-1.6v-28h-27.4v-27.5h1.6v26h27.4V175.4z"/>
	<path class="st0" d="M329.1,156.9l-26.9-22l-22.7-0.5v-13.8h1.5v12.3l21.8,0.4l27.3,22.3L329.1,156.9z"/>
	
		<rect x="306.3" y="166.5" transform="matrix(0.7454 -0.6666 0.6666 0.7454 -31.159 253.0293)" class="st0" width="18.8" height="1.6"/>
	
		<rect x="301.8" y="158" transform="matrix(0.7566 -0.6538 0.6538 0.7566 -29.3022 238.857)" class="st0" width="8.9" height="1.6"/>
	<rect x="285.6" y="158.5" class="st0" width="1.6" height="19"/>
	<rect x="275.3" y="154.9" class="st0" width="1.6" height="11.6"/>
	<rect x="260.3" y="102.8" class="st0" width="1.6" height="46.8"/>
	<path class="st0" d="M395.5,122h-1.6V55.8l18.8-13.9l0.9,1.3l-18.1,13.4V122z"/>
	<path class="st0" d="M410.3,31.8c0,1.7-1.3,3.1-3,3.1c-1.7,0-3.1-1.3-3.1-3s1.3-3.1,3-3.1C408.9,28.7,410.3,30.1,410.3,31.8z"/>
	
		<rect x="394.8" y="35.6" transform="matrix(0.8056 -0.5924 0.5924 0.8056 56.5756 245.1882)" class="st0" width="14.3" height="1.6"/>
	<path class="st0" d="M416,113.8h-1.6V61.3l17.5-12.6l0.9,1.3L416,62.1V113.8z"/>
	
		<rect x="396.1" y="440" transform="matrix(0.7918 -0.6108 0.6108 0.7918 -190.7289 335.5984)" class="st0" width="1.6" height="15.1"/>
	<path class="st0" d="M490.9,185.1h-25.3l-0.3-0.2l-47.2-50.7l1.1-1.1l47.1,50.4h24.6V185.1z"/>
	<path class="st0" d="M460.4,400.2h-64.1l-0.2-0.2l-71.4-85.2v-90.7h1.6v90.1l70.8,84.5h63.3V400.2z"/>
	<rect x="339.2" y="273.3" class="st0" width="154.1" height="1.6"/>
	<rect x="339.2" y="285.6" class="st0" width="154.1" height="1.6"/>
	<path class="st0" d="M395.9,379.9l-52.5-63.5l1.2-1l51.6,62.5l65.9-39.4l0.8,1.3L395.9,379.9z"/>
	<path class="st0" d="M498.9,317.9h-1.6v-16.3H339.2V300h159.7V317.9z"/>
	<path class="st0" d="M409.9,387.9h-10.4v-1.6h10l54-30.7l0.7,1.4L409.9,387.9z"/>
	<path class="st0" d="M447.4,259.8H337.7v-41.6l0.3-0.2l54.4-46.9l1.1,1.2L339.3,219v39.2h108.1V259.8z"/>
	
		<rect x="446.5" y="220.6" transform="matrix(0.9997 -2.273594e-02 2.273594e-02 0.9997 -5.243 10.2303)" class="st0" width="1.6" height="30.2"/>
	
		<rect x="436" y="211.1" transform="matrix(0.9998 -1.999350e-02 1.999350e-02 0.9998 -4.4762 8.7788)" class="st0" width="1.6" height="34.3"/>
	
		<rect x="426.4" y="200.1" transform="matrix(0.9999 -1.350862e-02 1.350862e-02 0.9999 -3.0065 5.7914)" class="st0" width="1.6" height="50.7"/>
	<path class="st0" d="M353,250.1h-1.6V223l0.3-0.2l48.6-41.1l1,1.2L353,223.8V250.1z"/>
	<path class="st0" d="M368,242.6h-1.5v-16.2l0.2-0.2l42.5-35.6l1,1.2L368,227.2V242.6z"/>
	<path class="st0" d="M417.4,237.5h-1.6v-31l-1-1.1l1.2-1l1.4,1.6V237.5z"/>
	<path class="st0" d="M407.8,248.2h-28.2v-1.6h26.6v-33.1l-4.5-3.9l1-1.2l5.1,4.3V248.2z"/>
	<path class="st0" d="M398.2,236.5h-14.5v-1.6h12.9v-4.4h1.6V236.5z"/>
	<path class="st0" d="M216.5,377l-27.9-0.7l-9.8-26.6l1.5-0.5l9.4,25.5l26.9,0.7L216.5,377z"/>
	<rect x="470.6" y="103.5" class="st0" width="1.6" height="68.5"/>
	<rect x="471.4" y="135.6" class="st0" width="26.7" height="1.6"/>
	<rect x="471.4" y="147.2" class="st0" width="23.8" height="1.6"/>
	<rect x="471.4" y="158.9" class="st0" width="26.7" height="1.6"/>
	<rect x="471.4" y="170.5" class="st0" width="26.7" height="1.6"/>
	<path class="st0" d="M457.1,156.9h-1.6l0.7-71.6l-18.3-23.1l1.2-1l18.7,23.5L457.1,156.9z"/>
	<path class="st0" d="M442.7,137.8h-1.6V89.4l-11.4-13.8l1.2-1l11.8,14.2V137.8z"/>
	<rect x="428.1" y="101.8" class="st0" width="1.6" height="26.4"/>
	<path class="st0" d="M496.1,121.4h-12.5V110h1.6v9.8h10.9V121.4z"/>
	<path class="st0" d="M464,389.3h-33v-1.6h31.4v-15.6h1.6V389.3z"/>
	<rect x="456.3" y="228.8" class="st0" width="36.3" height="1.6"/>
	<path class="st0" d="M518.3,353h-25.5v-1.6h24.8l13.1-13l29-0.7l0.1,1.6l-28.5,0.7L518.3,353z"/>
	<path class="st0" d="M521.7,363.9h-23.9v-1.5h23.3l12.3-13.1h18.1v1.6h-17.4L521.7,363.9z"/>
	<rect x="485" y="370.7" class="st0" width="1.6" height="31.5"/>
	<rect x="495.3" y="381" class="st0" width="1.6" height="12.3"/>
	<rect x="531" y="299.3" class="st0" width="42.5" height="1.6"/>
	<rect x="531" y="313.7" class="st0" width="39" height="1.6"/>
	<path class="st0" d="M574.2,263.9h-42.1l-13.5-12.1V137.3h1.5v113.8l12.6,11.2h41.5V263.9z"/>
	<path class="st0" d="M574.2,289.3h-44.9l-9.1-9.2l1.1-1.1l8.6,8.7h44.3V289.3z"/>
	<path class="st0" d="M565.9,326.9h-36.6l-9.1-9.1l1.1-1.1l8.6,8.7h36V326.9z"/>
	<rect x="532.4" y="278.1" class="st0" width="41.8" height="1.6"/>
	<rect x="532.4" y="270.6" class="st0" width="41.8" height="1.6"/>
	<path class="st0" d="M574.2,254.3h-37.3l-8.1-7.3v-0.3l-0.7-104.8h1.6l0.7,104.4l7.1,6.4h36.7V254.3z"/>
	<path class="st0" d="M536.7,198.6c-2.2,0-3.9-1.8-3.9-3.9c0-2.1,1.8-3.9,3.9-3.9c2.2,0,3.9,1.8,3.9,3.9
		C540.6,196.8,538.9,198.6,536.7,198.6z M536.7,192.3c-1.3,0-2.4,1.1-2.4,2.4s1.1,2.4,2.4,2.4s2.4-1.1,2.4-2.4
		S538,192.3,536.7,192.3z"/>
	<path class="st0" d="M558.6,202.3h-10.1l-6.9-6.9h-1.9v-1.6h2.6l6.8,6.9h9.5V202.3z"/>
	<path class="st0" d="M536.7,210c-2.2,0-3.9-1.8-3.9-3.9c0-2.1,1.8-3.9,3.9-3.9c2.2,0,3.9,1.8,3.9,3.9
		C540.6,208.2,538.9,210,536.7,210z M536.7,203.7c-1.3,0-2.4,1.1-2.4,2.4c0,1.3,1.1,2.4,2.4,2.4s2.4-1.1,2.4-2.4
		C539.1,204.8,538,203.7,536.7,203.7z"/>
	<path class="st0" d="M558.6,213.7h-10.1l-6.9-6.9h-1.9v-1.6h2.6l6.8,6.9h9.5V213.7z"/>
	<path class="st0" d="M536.7,221.4c-2.2,0-3.9-1.8-3.9-3.9c0-2.2,1.8-3.9,3.9-3.9c2.2,0,3.9,1.8,3.9,3.9
		C540.6,219.7,538.9,221.4,536.7,221.4z M536.7,215.1c-1.3,0-2.4,1.1-2.4,2.4s1.1,2.4,2.4,2.4s2.4-1.1,2.4-2.4
		S538,215.1,536.7,215.1z"/>
	<path class="st0" d="M563.1,224c0,1.7-1.4,3.1-3.1,3.1s-3.1-1.4-3.1-3.1s1.4-3.1,3.1-3.1S563.1,222.3,563.1,224z"/>
	<path class="st0" d="M558.6,225.1h-10.1l-6.9-6.9h-1.9v-1.5h2.6l6.8,6.8h9.5V225.1z"/>
	<path class="st0" d="M536.7,232.9c-2.2,0-3.9-1.8-3.9-3.9c0-2.2,1.8-3.9,3.9-3.9c2.2,0,3.9,1.8,3.9,3.9S538.9,232.9,536.7,232.9z
		 M536.7,226.6c-1.3,0-2.4,1.1-2.4,2.4s1.1,2.4,2.4,2.4s2.4-1.1,2.4-2.4C539.1,227.6,538,226.6,536.7,226.6z"/>
	<path class="st0" d="M563.1,235.4c0,1.7-1.4,3.1-3.1,3.1s-3.1-1.4-3.1-3.1c0-1.7,1.4-3.1,3.1-3.1S563.1,233.7,563.1,235.4z"/>
	<path class="st0" d="M558.6,236.5h-10.1l-6.9-6.8h-1.9v-1.6h2.6l6.8,6.8h9.5V236.5z"/>
	<rect x="540.6" y="244.5" class="st0" width="32.2" height="1.6"/>
	<path class="st0" d="M553.6,187.9h-17.2v-31h1.5v29.4h15.7V187.9z"/>
	<rect x="543.2" y="165.8" class="st0" width="1.6" height="14.4"/>
	<path class="st0" d="M426.3,345.5l-52-13.9l-15.2-19.3l1.2-1l15,19l50.7,13.5l19.6-12.8l0.9,1.3L426.3,345.5z"/>
	
		<rect x="394.9" y="326.6" transform="matrix(0.2858 -0.9583 0.9583 0.2858 -49.9252 627.096)" class="st0" width="1.6" height="40.8"/>
	<path class="st0" d="M397.2,366.9l-4.1-4.8l1.3-1.1l3.2,3.8l11-7.1l0.9,1.3L397.2,366.9z"/>
	<rect x="381" y="313.7" class="st0" width="96.1" height="1.6"/>
	<rect x="410.1" y="311.7" transform="matrix(0.1991 -0.98 0.98 0.1991 9.0358 664.2258)" class="st0" width="1.6" height="29.8"/>
	<path class="st0" d="M47.3,96.3c0,1.7-1.4,3.1-3.1,3.1s-3.1-1.4-3.1-3.1c0-1.7,1.4-3.1,3.1-3.1S47.3,94.6,47.3,96.3z"/>
	<path class="st0" d="M101.9,65c0,1.7-1.4,3.1-3.1,3.1c-1.7,0-3.1-1.4-3.1-3.1c0-1.7,1.4-3.1,3.1-3.1
		C100.5,61.9,101.9,63.3,101.9,65z"/>
	<path class="st0" d="M205.3,135.1c0,1.7-1.4,3.1-3.1,3.1s-3.1-1.4-3.1-3.1c0-1.7,1.4-3.1,3.1-3.1C204,132,205.3,133.4,205.3,135.1z
		"/>
	<path class="st0" d="M119,47.7c0,1.7-1.4,3.1-3.1,3.1c-1.7,0-3.1-1.4-3.1-3.1s1.4-3.1,3.1-3.1C117.6,44.6,119,46,119,47.7z"/>
	<ellipse class="st0" cx="20.6" cy="171.9" rx="6.7" ry="6.7"/>
	<ellipse class="st0" cx="201.2" cy="20.4" rx="7.3" ry="7.3"/>
	<ellipse class="st0" cx="242.3" cy="63.9" rx="7.3" ry="7.3"/>
	<ellipse transform="matrix(0.9232 -0.3844 0.3844 0.9232 -17.7017 180.226)" class="st0" cx="442" cy="134.4" rx="7.3" ry="7.3"/>
	
		<ellipse transform="matrix(0.7071 -0.7071 0.7071 0.7071 -7.0591 413.9939)" class="st0" cx="496.2" cy="215.5" rx="7.3" ry="7.3"/>
	<ellipse class="st0" cx="530.9" cy="300.8" rx="7.3" ry="7.3"/>
	<ellipse class="st0" cx="386" cy="453.1" rx="7.3" ry="7.3"/>
	<ellipse class="st0" cx="376.8" cy="500.7" rx="7.3" ry="7.3"/>
	<ellipse transform="matrix(0.229 -0.9734 0.9734 0.229 247.2349 685.3321)" class="st0" cx="556.3" cy="186.6" rx="7.3" ry="7.3"/>
	
		<ellipse transform="matrix(0.2305 -0.9731 0.9731 0.2305 146.2248 424.0121)" class="st0" cx="341.2" cy="119.6" rx="7.3" ry="7.3"/>
	<circle class="st0" cx="186.9" cy="254.7" r="3.1"/>
	<circle class="st0" cx="128.5" cy="82.1" r="3.1"/>
	<circle class="st0" cx="138.6" cy="29.4" r="3.1"/>
	<circle class="st0" cx="215.7" cy="12.8" r="3.1"/>
	<circle class="st0" cx="266.7" cy="77.2" r="3.1"/>
	<circle class="st0" cx="339.3" cy="134.1" r="3.1"/>
	<circle class="st0" cx="303.7" cy="161.6" r="3.1"/>
	<circle class="st0" cx="365.5" cy="124.7" r="3.1"/>
	<circle class="st0" cx="437.8" cy="60" r="3.1"/>
	<circle class="st0" cx="456.3" cy="157.3" r="3.1"/>
	<circle class="st0" cx="528.9" cy="142.2" r="3.1"/>
	<circle class="st0" cx="537.4" cy="156.4" r="3.1"/>
	<circle class="st0" cx="498.3" cy="136.3" r="3.1"/>
	<circle class="st0" cx="457.6" cy="242.9" r="3.1"/>
	<circle class="st0" cx="496.1" cy="120.6" r="3.1"/>
	<circle class="st0" cx="428.9" cy="126.1" r="3.1"/>
	<circle class="st0" cx="340.1" cy="286.1" r="3.1"/>
	<circle class="st0" cx="340.1" cy="300.5" r="3.1"/>
	<circle class="st0" cx="384.8" cy="235.6" r="3.1"/>
	<circle class="st0" cx="402.7" cy="208.7" r="3.1"/>
	<circle class="st0" cx="426.9" cy="200.7" r="3.1"/>
	<circle class="st0" cx="447.2" cy="250.4" r="3.1"/>
	<circle class="st0" cx="447.4" cy="258.9" r="3.1"/>
	<circle class="st0" cx="540.8" cy="245.1" r="3.1"/>
	<circle class="st0" cx="574.3" cy="253.5" r="3.1"/>
	<circle class="st0" cx="574.3" cy="262.2" r="3.1"/>
	<circle class="st0" cx="574.3" cy="278.7" r="3.1"/>
	<circle class="st0" cx="531.7" cy="315.2" r="3.1"/>
	<circle class="st0" cx="497.3" cy="362.6" r="3.1"/>
	<circle class="st0" cx="496.2" cy="392.6" r="3.1"/>
	<circle class="st0" cx="476.2" cy="406.5" r="3.1"/>
	<circle class="st0" cx="463.6" cy="338.4" r="3.1"/>
	<circle class="st0" cx="466" cy="414.8" r="3.1"/>
	<circle class="st0" cx="463.6" cy="373" r="3.1"/>
	<circle class="st0" cx="286.5" cy="377.8" r="3.1"/>
	<circle class="st0" cx="401.1" cy="387.1" r="3.1"/>
	<circle class="st0" cx="416.1" cy="352.8" r="3.1"/>
	<circle class="st0" cx="407.7" cy="359.4" r="3.1"/>
	<circle class="st0" cx="343.7" cy="315.5" r="3.1"/>
	<circle class="st0" cx="358.7" cy="82.9" r="3.1"/>
	<circle class="st0" cx="252.8" cy="113.9" r="3.1"/>
	<circle class="st0" cx="240.9" cy="86.6" r="3.1"/>
	<circle class="st0" cx="252" cy="6.4" r="3.1"/>
	<circle class="st0" cx="283.8" cy="6.9" r="3.1"/>
	<circle class="st0" cx="323.5" cy="10.6" r="3.1"/>
	<circle class="st0" cx="323.5" cy="51" r="3.1"/>
	<circle class="st0" cx="332" cy="45" r="3.1"/>
	<circle class="st0" cx="346.1" cy="42.5" r="3.1"/>
	<circle class="st0" cx="367.5" cy="21.6" r="3.1"/>
	<circle class="st0" cx="296.6" cy="7.1" r="3.1"/>
	<circle class="st0" cx="70.3" cy="64.1" r="3.1"/>
	<circle class="st0" cx="55.9" cy="295.7" r="3.1"/>
	<circle class="st0" cx="41.2" cy="259" r="3.1"/>
	<circle class="st0" cx="147.9" cy="213.2" r="3.1"/>
	<circle class="st0" cx="156.4" cy="222.4" r="3.1"/>
	<circle class="st0" cx="51.4" cy="219.5" r="3.1"/>
	<circle class="st0" cx="128.5" cy="304.3" r="3.1"/>
	<circle class="st0" cx="178.9" cy="301.6" r="3.1"/>
	<circle class="st0" cx="178.9" cy="313.9" r="3.1"/>
	<circle class="st0" cx="179.4" cy="348.2" r="3.1"/>
	<circle class="st0" cx="217.6" cy="376.3" r="3.1"/>
	<circle class="st0" cx="251.6" cy="393.9" r="3.1"/>
	<circle class="st0" cx="471.8" cy="259.6" r="7.3"/>
	<circle class="st0" cx="498.3" cy="321.2" r="7.3"/>
	<circle class="st0" cx="471.8" cy="102.6" r="7.3"/>
	<ellipse transform="matrix(0.1602 -0.9871 0.9871 0.1602 67.8719 386.3739)" class="st0" cx="261" cy="153.3" rx="5.3" ry="5.3"/>
	<circle class="st0" cx="311.3" cy="10.4" r="7.3"/>
	<circle class="st0" cx="560" cy="201.1" r="3.1"/>
	<circle class="st0" cx="560" cy="212.5" r="3.1"/>
	<circle class="st0" cx="12" cy="255.9" r="3.1"/>
	<circle class="st0" cx="20.9" cy="247.7" r="3.1"/>
	<circle class="st0" cx="46.5" cy="112.5" r="3.1"/>
	<circle class="st0" cx="55.9" cy="76.7" r="3.1"/>
	<circle class="st0" cx="114.6" cy="38.5" r="3.1"/>
	<circle class="st0" cx="115.7" cy="64.3" r="3.1"/>
	<circle class="st0" cx="116.6" cy="92" r="3.1"/>
	<circle class="st0" cx="151.2" cy="122.1" r="3.1"/>
	<circle class="st0" cx="125.5" cy="158.8" r="3.1"/>
	<circle class="st0" cx="216" cy="131" r="3.1"/>
</g>
</svg>
