<svg id="Layer_1" data-name="Layer 1" xmlns="http://www.w3.org/2000/svg" xmlns:xlink="http://www.w3.org/1999/xlink" viewBox="0 0 500 500"><defs><linearGradient id="linear-gradient" x1="93.9" y1="93.9" x2="461.83" y2="461.83" gradientUnits="userSpaceOnUse"><stop offset="0" stop-color="#db9125"/><stop offset="0" stop-color="#dc9327"/><stop offset="0.04" stop-color="#e8b744"/><stop offset="0.08" stop-color="#f2d35b"/><stop offset="0.12" stop-color="#f9e76b"/><stop offset="0.16" stop-color="#fef375"/><stop offset="0.2" stop-color="#fff778"/><stop offset="0.28" stop-color="#eac34a"/><stop offset="0.34" stop-color="#d99a26"/><stop offset="0.36" stop-color="#cb8e24"/><stop offset="0.4" stop-color="#b77e21"/><stop offset="0.43" stop-color="#ab741f"/><stop offset="0.47" stop-color="#a7711e"/><stop offset="0.51" stop-color="#ab7622"/><stop offset="0.56" stop-color="#b8852e"/><stop offset="0.61" stop-color="#cd9e42"/><stop offset="0.66" stop-color="#ebc15e"/><stop offset="0.68" stop-color="#f6ce69"/><stop offset="0.72" stop-color="#f3c962"/><stop offset="0.78" stop-color="#ebba4f"/><stop offset="0.85" stop-color="#dea231"/><stop offset="0.87" stop-color="#d99a26"/><stop offset="1" stop-color="#f6ce69"/></linearGradient><linearGradient id="linear-gradient-2" x1="696.95" y1="304.45" x2="348.93" y2="652.48" gradientTransform="translate(482.57 -208.34) rotate(45.69)" xlink:href="#linear-gradient"/><linearGradient id="linear-gradient-3" x1="320.35" y1="320.35" x2="688.41" y2="688.41" gradientTransform="translate(500 -207.11) rotate(45)" xlink:href="#linear-gradient"/><linearGradient id="linear-gradient-4" x1="556.29" y1="237.44" x2="216.64" y2="577.1" xlink:href="#linear-gradient"/><linearGradient id="linear-gradient-5" x1="563.42" y1="244.56" x2="223.76" y2="584.22" xlink:href="#linear-gradient"/><linearGradient id="linear-gradient-6" x1="569.99" y1="251.14" x2="230.34" y2="590.8" xlink:href="#linear-gradient"/><linearGradient id="linear-gradient-7" x1="576.22" y1="257.37" x2="236.57" y2="597.03" xlink:href="#linear-gradient"/><linearGradient id="linear-gradient-8" x1="583.23" y1="264.38" x2="243.58" y2="604.03" xlink:href="#linear-gradient"/><linearGradient id="linear-gradient-9" x1="589.18" y1="270.32" x2="249.52" y2="609.98" xlink:href="#linear-gradient"/><linearGradient id="linear-gradient-10" x1="597.51" y1="278.66" x2="257.86" y2="618.32" xlink:href="#linear-gradient"/><linearGradient id="linear-gradient-11" x1="606.57" y1="287.72" x2="266.91" y2="627.37" xlink:href="#linear-gradient"/><linearGradient id="linear-gradient-12" x1="612.87" y1="294.02" x2="273.21" y2="633.67" xlink:href="#linear-gradient"/><linearGradient id="linear-gradient-13" x1="617.55" y1="298.7" x2="277.9" y2="638.35" xlink:href="#linear-gradient"/><linearGradient id="linear-gradient-14" x1="623.2" y1="304.35" x2="283.55" y2="644" xlink:href="#linear-gradient"/><linearGradient id="linear-gradient-15" x1="630.75" y1="311.9" x2="291.1" y2="651.55" xlink:href="#linear-gradient"/><linearGradient id="linear-gradient-16" x1="638.93" y1="320.08" x2="299.28" y2="659.73" xlink:href="#linear-gradient"/><linearGradient id="linear-gradient-17" x1="655.01" y1="336.16" x2="315.36" y2="675.82" xlink:href="#linear-gradient"/><linearGradient id="linear-gradient-18" x1="661.33" y1="342.48" x2="321.68" y2="682.14" xlink:href="#linear-gradient"/><linearGradient id="linear-gradient-19" x1="667.6" y1="348.75" x2="327.95" y2="688.41" xlink:href="#linear-gradient"/><linearGradient id="linear-gradient-20" x1="673.89" y1="355.04" x2="334.23" y2="694.69" xlink:href="#linear-gradient"/><linearGradient id="linear-gradient-21" x1="679.67" y1="360.82" x2="340.01" y2="700.47" xlink:href="#linear-gradient"/><linearGradient id="linear-gradient-22" x1="685.93" y1="367.08" x2="346.28" y2="706.74" xlink:href="#linear-gradient"/><linearGradient id="linear-gradient-23" x1="693.97" y1="375.12" x2="354.32" y2="714.77" xlink:href="#linear-gradient"/><linearGradient id="linear-gradient-24" x1="708.16" y1="389.31" x2="368.51" y2="728.97" xlink:href="#linear-gradient"/><linearGradient id="linear-gradient-25" x1="716.35" y1="397.5" x2="376.7" y2="737.15" xlink:href="#linear-gradient"/><linearGradient id="linear-gradient-26" x1="723.56" y1="404.71" x2="383.9" y2="744.36" xlink:href="#linear-gradient"/><linearGradient id="linear-gradient-27" x1="730.99" y1="412.14" x2="391.34" y2="751.79" xlink:href="#linear-gradient"/><linearGradient id="linear-gradient-28" x1="738.31" y1="419.46" x2="398.66" y2="759.11" xlink:href="#linear-gradient"/><linearGradient id="linear-gradient-29" x1="745.26" y1="426.4" x2="405.6" y2="766.06" xlink:href="#linear-gradient"/><linearGradient id="linear-gradient-30" x1="752.72" y1="433.87" x2="413.07" y2="773.53" xlink:href="#linear-gradient"/><linearGradient id="linear-gradient-31" x1="759.54" y1="440.69" x2="419.89" y2="780.34" xlink:href="#linear-gradient"/><linearGradient id="linear-gradient-32" x1="764.83" y1="445.98" x2="425.19" y2="785.62" xlink:href="#linear-gradient"/><linearGradient id="linear-gradient-33" x1="774.72" y1="455.86" x2="435.06" y2="795.52" xlink:href="#linear-gradient"/><linearGradient id="linear-gradient-34" x1="779.03" y1="460.17" x2="439.37" y2="799.83" xlink:href="#linear-gradient"/><linearGradient id="linear-gradient-35" x1="782.92" y1="464.07" x2="443.27" y2="803.73" xlink:href="#linear-gradient"/><linearGradient id="linear-gradient-36" x1="786.7" y1="467.85" x2="447.05" y2="807.51" xlink:href="#linear-gradient"/><linearGradient id="linear-gradient-37" x1="790.84" y1="471.99" x2="451.19" y2="811.64" xlink:href="#linear-gradient"/><linearGradient id="linear-gradient-38" x1="793.92" y1="475.07" x2="454.27" y2="814.72" xlink:href="#linear-gradient"/><linearGradient id="linear-gradient-39" x1="796.66" y1="477.81" x2="457" y2="817.47" xlink:href="#linear-gradient"/><linearGradient id="linear-gradient-40" x1="798.41" y1="479.56" x2="458.76" y2="819.22" xlink:href="#linear-gradient"/><linearGradient id="linear-gradient-41" x1="804.39" y1="485.53" x2="464.73" y2="825.19" xlink:href="#linear-gradient"/><linearGradient id="linear-gradient-42" x1="806.61" y1="487.76" x2="466.96" y2="827.41" xlink:href="#linear-gradient"/><linearGradient id="linear-gradient-43" x1="807.93" y1="489.08" x2="468.28" y2="828.74" xlink:href="#linear-gradient"/><linearGradient id="linear-gradient-44" x1="808.71" y1="489.86" x2="469.06" y2="829.51" xlink:href="#linear-gradient"/><linearGradient id="linear-gradient-45" x1="809.14" y1="490.28" x2="469.48" y2="829.94" xlink:href="#linear-gradient"/><linearGradient id="linear-gradient-46" x1="809.15" y1="490.29" x2="469.49" y2="829.95" xlink:href="#linear-gradient"/><linearGradient id="linear-gradient-47" x1="808.66" y1="489.8" x2="469" y2="829.46" xlink:href="#linear-gradient"/><linearGradient id="linear-gradient-48" x1="807.51" y1="488.65" x2="467.85" y2="828.31" xlink:href="#linear-gradient"/><linearGradient id="linear-gradient-49" x1="806.38" y1="487.53" x2="466.72" y2="827.18" xlink:href="#linear-gradient"/><linearGradient id="linear-gradient-50" x1="805.36" y1="486.52" x2="465.71" y2="826.16" xlink:href="#linear-gradient"/><linearGradient id="linear-gradient-51" x1="803.95" y1="485.09" x2="464.29" y2="824.75" xlink:href="#linear-gradient"/><linearGradient id="linear-gradient-52" x1="801.74" y1="482.88" x2="462.08" y2="822.54" xlink:href="#linear-gradient"/><linearGradient id="linear-gradient-53" x1="799.43" y1="480.59" x2="459.78" y2="820.24" xlink:href="#linear-gradient"/><linearGradient id="linear-gradient-54" x1="792.94" y1="474.09" x2="453.29" y2="813.75" xlink:href="#linear-gradient"/><linearGradient id="linear-gradient-55" x1="789.21" y1="470.35" x2="449.55" y2="810.01" xlink:href="#linear-gradient"/><linearGradient id="linear-gradient-56" x1="785.69" y1="466.83" x2="446.03" y2="806.49" xlink:href="#linear-gradient"/><linearGradient id="linear-gradient-57" x1="782.47" y1="463.62" x2="442.82" y2="803.27" xlink:href="#linear-gradient"/><linearGradient id="linear-gradient-58" x1="780.07" y1="461.21" x2="440.41" y2="800.87" xlink:href="#linear-gradient"/><linearGradient id="linear-gradient-59" x1="773.56" y1="454.71" x2="433.91" y2="794.37" xlink:href="#linear-gradient"/><linearGradient id="linear-gradient-60" x1="769.21" y1="450.36" x2="429.55" y2="790.01" xlink:href="#linear-gradient"/><linearGradient id="linear-gradient-61" x1="759.09" y1="440.24" x2="419.44" y2="779.89" xlink:href="#linear-gradient"/><linearGradient id="linear-gradient-62" x1="753.54" y1="434.69" x2="413.89" y2="774.34" xlink:href="#linear-gradient"/><linearGradient id="linear-gradient-63" x1="745.79" y1="426.94" x2="406.14" y2="766.59" xlink:href="#linear-gradient"/><linearGradient id="linear-gradient-64" x1="738.8" y1="419.94" x2="399.14" y2="759.6" xlink:href="#linear-gradient"/><linearGradient id="linear-gradient-65" x1="731.93" y1="413.08" x2="392.27" y2="752.73" xlink:href="#linear-gradient"/><linearGradient id="linear-gradient-66" x1="724.65" y1="405.81" x2="385" y2="745.46" xlink:href="#linear-gradient"/><linearGradient id="linear-gradient-67" x1="716.21" y1="397.36" x2="376.55" y2="737.01" xlink:href="#linear-gradient"/><linearGradient id="linear-gradient-68" x1="710.47" y1="391.63" x2="370.82" y2="731.28" xlink:href="#linear-gradient"/><linearGradient id="linear-gradient-69" x1="697.18" y1="378.31" x2="357.52" y2="717.98" xlink:href="#linear-gradient"/><linearGradient id="linear-gradient-70" x1="685.85" y1="367" x2="346.2" y2="706.65" xlink:href="#linear-gradient"/><linearGradient id="linear-gradient-71" x1="679.7" y1="360.84" x2="340.04" y2="700.5" xlink:href="#linear-gradient"/><linearGradient id="linear-gradient-72" x1="674.65" y1="355.8" x2="335" y2="695.45" xlink:href="#linear-gradient"/><linearGradient id="linear-gradient-73" x1="666.69" y1="347.84" x2="327.04" y2="687.5" xlink:href="#linear-gradient"/><linearGradient id="linear-gradient-74" x1="657.97" y1="339.11" x2="318.31" y2="678.77" xlink:href="#linear-gradient"/><linearGradient id="linear-gradient-75" x1="651.34" y1="332.5" x2="311.69" y2="672.15" xlink:href="#linear-gradient"/><linearGradient id="linear-gradient-76" x1="644.85" y1="326" x2="305.2" y2="665.65" xlink:href="#linear-gradient"/><linearGradient id="linear-gradient-77" x1="632.9" y1="314.05" x2="293.25" y2="653.7" xlink:href="#linear-gradient"/><linearGradient id="linear-gradient-78" x1="620.26" y1="301.4" x2="280.6" y2="641.06" xlink:href="#linear-gradient"/><linearGradient id="linear-gradient-79" x1="611.8" y1="292.95" x2="272.14" y2="632.6" xlink:href="#linear-gradient"/><linearGradient id="linear-gradient-80" x1="603.99" y1="285.14" x2="264.34" y2="624.79" xlink:href="#linear-gradient"/><linearGradient id="linear-gradient-81" x1="596.87" y1="278.02" x2="257.22" y2="617.67" xlink:href="#linear-gradient"/><linearGradient id="linear-gradient-82" x1="589.48" y1="270.62" x2="249.82" y2="610.28" xlink:href="#linear-gradient"/><linearGradient id="linear-gradient-83" x1="581.26" y1="262.4" x2="241.6" y2="602.06" xlink:href="#linear-gradient"/><linearGradient id="linear-gradient-84" x1="576.23" y1="257.37" x2="236.57" y2="597.03" xlink:href="#linear-gradient"/><linearGradient id="linear-gradient-85" x1="570.29" y1="251.44" x2="230.64" y2="591.09" xlink:href="#linear-gradient"/><linearGradient id="linear-gradient-86" x1="563.98" y1="245.14" x2="224.33" y2="584.79" xlink:href="#linear-gradient"/><linearGradient id="linear-gradient-87" x1="558.81" y1="239.95" x2="219.15" y2="579.61" xlink:href="#linear-gradient"/><linearGradient id="linear-gradient-88" x1="554.66" y1="235.81" x2="215" y2="575.46" xlink:href="#linear-gradient"/><linearGradient id="linear-gradient-89" x1="549.26" y1="230.42" x2="209.61" y2="570.07" xlink:href="#linear-gradient"/><linearGradient id="linear-gradient-90" x1="544.35" y1="225.49" x2="204.69" y2="565.15" xlink:href="#linear-gradient"/><linearGradient id="linear-gradient-91" x1="534.91" y1="216.05" x2="195.25" y2="555.71" xlink:href="#linear-gradient"/><linearGradient id="linear-gradient-92" x1="530.79" y1="211.94" x2="191.14" y2="551.59" xlink:href="#linear-gradient"/><linearGradient id="linear-gradient-93" x1="527.47" y1="208.61" x2="187.81" y2="548.27" xlink:href="#linear-gradient"/><linearGradient id="linear-gradient-94" x1="524.83" y1="205.98" x2="185.18" y2="545.63" xlink:href="#linear-gradient"/><linearGradient id="linear-gradient-95" x1="522.05" y1="203.19" x2="182.39" y2="542.85" xlink:href="#linear-gradient"/><linearGradient id="linear-gradient-96" x1="520.3" y1="201.45" x2="180.65" y2="541.11" xlink:href="#linear-gradient"/><linearGradient id="linear-gradient-97" x1="517.53" y1="198.68" x2="177.87" y2="538.33" xlink:href="#linear-gradient"/><linearGradient id="linear-gradient-98" x1="513.21" y1="194.35" x2="173.55" y2="534.01" xlink:href="#linear-gradient"/><linearGradient id="linear-gradient-99" x1="511.49" y1="192.64" x2="171.84" y2="532.29" xlink:href="#linear-gradient"/><linearGradient id="linear-gradient-100" x1="510.65" y1="191.81" x2="171" y2="531.46" xlink:href="#linear-gradient"/><linearGradient id="linear-gradient-101" x1="509.93" y1="191.08" x2="170.27" y2="530.73" xlink:href="#linear-gradient"/><linearGradient id="linear-gradient-102" x1="509.67" y1="190.82" x2="170.01" y2="530.47" xlink:href="#linear-gradient"/><linearGradient id="linear-gradient-103" x1="509.93" y1="191.08" x2="170.28" y2="530.73" xlink:href="#linear-gradient"/><linearGradient id="linear-gradient-104" x1="510.78" y1="191.93" x2="171.13" y2="531.58" xlink:href="#linear-gradient"/><linearGradient id="linear-gradient-105" x1="511.59" y1="192.73" x2="171.93" y2="532.39" xlink:href="#linear-gradient"/><linearGradient id="linear-gradient-106" x1="517.15" y1="198.3" x2="177.5" y2="537.96" xlink:href="#linear-gradient"/><linearGradient id="linear-gradient-107" x1="517.57" y1="198.72" x2="177.92" y2="538.38" xlink:href="#linear-gradient"/><linearGradient id="linear-gradient-108" x1="519.98" y1="201.13" x2="180.33" y2="540.79" xlink:href="#linear-gradient"/><linearGradient id="linear-gradient-109" x1="521.55" y1="202.7" x2="181.89" y2="542.35" xlink:href="#linear-gradient"/><linearGradient id="linear-gradient-110" x1="525.5" y1="206.65" x2="185.85" y2="546.3" xlink:href="#linear-gradient"/><linearGradient id="linear-gradient-111" x1="529.42" y1="210.56" x2="189.76" y2="550.22" xlink:href="#linear-gradient"/><linearGradient id="linear-gradient-112" x1="532.83" y1="213.98" x2="193.18" y2="553.63" xlink:href="#linear-gradient"/><linearGradient id="linear-gradient-113" x1="536.45" y1="217.59" x2="196.79" y2="557.25" xlink:href="#linear-gradient"/><linearGradient id="linear-gradient-114" x1="546.3" y1="227.45" x2="206.65" y2="567.11" xlink:href="#linear-gradient"/><linearGradient id="linear-gradient-115" x1="517.94" y1="435.66" x2="692.06" y2="435.66" xlink:href="#linear-gradient"/><linearGradient id="linear-gradient-116" x1="378.66" y1="426.5" x2="459.48" y2="426.5" xlink:href="#linear-gradient"/><linearGradient id="linear-gradient-117" x1="323.86" y1="500" x2="666.89" y2="500" xlink:href="#linear-gradient"/><linearGradient id="linear-gradient-118" x1="389.3" y1="438.51" x2="620.02" y2="438.51" xlink:href="#linear-gradient"/><linearGradient id="linear-gradient-119" x1="389.3" y1="561.49" x2="620.02" y2="561.49" xlink:href="#linear-gradient"/><linearGradient id="linear-gradient-120" x1="401.41" y1="562.19" x2="612.45" y2="562.19" xlink:href="#linear-gradient"/><linearGradient id="linear-gradient-121" x1="401.41" y1="437.81" x2="612.45" y2="437.81" xlink:href="#linear-gradient"/><linearGradient id="linear-gradient-122" x1="376.98" y1="266.03" x2="448.53" y2="290.03" xlink:href="#linear-gradient"/><linearGradient id="linear-gradient-123" x1="344.9" y1="500" x2="688.79" y2="500" xlink:href="#linear-gradient"/><linearGradient id="linear-gradient-124" x1="378.66" y1="573.5" x2="459.48" y2="573.5" xlink:href="#linear-gradient"/><linearGradient id="linear-gradient-125" x1="517.94" y1="564.34" x2="692.06" y2="564.34" xlink:href="#linear-gradient"/><linearGradient id="linear-gradient-126" x1="337.88" y1="500" x2="687.13" y2="500" xlink:href="#linear-gradient"/><linearGradient id="linear-gradient-127" x1="369.11" y1="426.55" x2="460.16" y2="426.55" xlink:href="#linear-gradient"/><linearGradient id="linear-gradient-128" x1="188.67" y1="130.12" x2="335.86" y2="128.31" xlink:href="#linear-gradient"/><linearGradient id="linear-gradient-129" x1="352.39" y1="425.78" x2="472.2" y2="425.78" xlink:href="#linear-gradient"/><linearGradient id="linear-gradient-130" x1="360.41" y1="426.05" x2="466.18" y2="426.05" xlink:href="#linear-gradient"/><linearGradient id="linear-gradient-131" x1="188.67" y1="130.03" x2="335.86" y2="128.22" xlink:href="#linear-gradient"/><linearGradient id="linear-gradient-132" x1="517.06" y1="428.06" x2="691.77" y2="428.06" xlink:href="#linear-gradient"/><linearGradient id="linear-gradient-133" x1="511.03" y1="420.13" x2="691.12" y2="420.13" xlink:href="#linear-gradient"/><linearGradient id="linear-gradient-134" x1="504.99" y1="412.6" x2="690.14" y2="412.6" xlink:href="#linear-gradient"/><linearGradient id="linear-gradient-135" x1="517.07" y1="571.93" x2="650.64" y2="571.93" xlink:href="#linear-gradient"/><linearGradient id="linear-gradient-136" x1="384.31" y1="244.15" x2="455.87" y2="268.15" xlink:href="#linear-gradient"/><linearGradient id="linear-gradient-137" x1="179.35" y1="368.46" x2="359.31" y2="373.29" xlink:href="#linear-gradient"/><linearGradient id="linear-gradient-138" x1="379.44" y1="258.68" x2="451" y2="282.68" xlink:href="#linear-gradient"/><linearGradient id="linear-gradient-139" x1="505" y1="587.58" x2="651.28" y2="587.58" xlink:href="#linear-gradient"/><linearGradient id="linear-gradient-140" x1="381.88" y1="251.39" x2="453.44" y2="275.39" xlink:href="#linear-gradient"/><linearGradient id="linear-gradient-141" x1="511.04" y1="579.75" x2="650.64" y2="579.75" xlink:href="#linear-gradient"/><linearGradient id="linear-gradient-142" x1="179.35" y1="368.7" x2="359.3" y2="373.53" xlink:href="#linear-gradient"/><linearGradient id="linear-gradient-143" x1="369.11" y1="573.45" x2="460.15" y2="573.45" xlink:href="#linear-gradient"/><linearGradient id="linear-gradient-144" x1="360.41" y1="573.95" x2="466.18" y2="573.95" xlink:href="#linear-gradient"/><linearGradient id="linear-gradient-145" x1="352.4" y1="574.22" x2="472.2" y2="574.22" xlink:href="#linear-gradient"/><linearGradient id="linear-gradient-146" x1="188.41" y1="109.23" x2="335.6" y2="107.42" xlink:href="#linear-gradient"/><linearGradient id="linear-gradient-147" x1="188.5" y1="115.79" x2="335.69" y2="113.98" xlink:href="#linear-gradient"/><linearGradient id="linear-gradient-148" x1="188.55" y1="120.14" x2="335.74" y2="118.33" xlink:href="#linear-gradient"/><linearGradient id="linear-gradient-149" x1="178.79" y1="389.31" x2="358.74" y2="394.14" xlink:href="#linear-gradient"/><linearGradient id="linear-gradient-150" x1="178.96" y1="382.96" x2="358.91" y2="387.79" xlink:href="#linear-gradient"/><linearGradient id="linear-gradient-151" x1="179.09" y1="378.38" x2="359.04" y2="383.21" xlink:href="#linear-gradient"/><linearGradient id="linear-gradient-152" x1="170.65" y1="134.34" x2="260.22" y2="97.94" xlink:href="#linear-gradient"/><linearGradient id="linear-gradient-153" x1="337.08" y1="251.35" x2="654.67" y2="244.53" xlink:href="#linear-gradient"/><linearGradient id="linear-gradient-154" x1="336.74" y1="235.46" x2="654.33" y2="228.64" xlink:href="#linear-gradient"/><linearGradient id="linear-gradient-155" x1="89.32" y1="242.73" x2="364.23" y2="210.82" xlink:href="#linear-gradient"/><linearGradient id="linear-gradient-156" x1="91.17" y1="258.4" x2="366.08" y2="226.49" xlink:href="#linear-gradient"/><linearGradient id="linear-gradient-157" x1="288" y1="263.57" x2="473.54" y2="231.84" xlink:href="#linear-gradient"/><linearGradient id="linear-gradient-158" x1="578.24" y1="437.24" x2="631.05" y2="548.08" gradientTransform="translate(125.34 1059.65) rotate(-90)" xlink:href="#linear-gradient"/><linearGradient id="linear-gradient-159" x1="286" y1="251.13" x2="471.54" y2="219.39" xlink:href="#linear-gradient"/><linearGradient id="linear-gradient-160" x1="284.3" y1="240.87" x2="469.85" y2="209.14" xlink:href="#linear-gradient"/><linearGradient id="linear-gradient-161" x1="93.02" y1="274.06" x2="367.93" y2="242.15" xlink:href="#linear-gradient"/><linearGradient id="linear-gradient-162" x1="174.65" y1="143.67" x2="264.23" y2="107.27" xlink:href="#linear-gradient"/><linearGradient id="linear-gradient-163" x1="162.75" y1="387.51" x2="427.51" y2="406.75" xlink:href="#linear-gradient"/><linearGradient id="linear-gradient-164" x1="163.55" y1="376.68" x2="428.3" y2="395.92" xlink:href="#linear-gradient"/><linearGradient id="linear-gradient-165" x1="621.27" y1="513.95" x2="778.2" y2="549.05" xlink:href="#linear-gradient"/><linearGradient id="linear-gradient-166" x1="623.01" y1="506.16" x2="779.94" y2="541.26" gradientTransform="translate(552.58 -312.51) rotate(44.85)" xlink:href="#linear-gradient"/><linearGradient id="linear-gradient-167" x1="619.53" y1="521.73" x2="776.46" y2="556.83" gradientTransform="translate(574.6 -322.74) rotate(44.84)" xlink:href="#linear-gradient"/><linearGradient id="linear-gradient-168" x1="620.28" y1="518.39" x2="777.21" y2="553.49" gradientTransform="translate(572.42 -321.17) rotate(45)" xlink:href="#linear-gradient"/><linearGradient id="linear-gradient-169" x1="374.72" y1="248.53" x2="531.65" y2="283.63" xlink:href="#linear-gradient"/><linearGradient id="linear-gradient-170" x1="621.02" y1="515.06" x2="777.95" y2="550.16" gradientTransform="translate(567.92 -319.31) rotate(45)" xlink:href="#linear-gradient"/><linearGradient id="linear-gradient-171" x1="621.52" y1="512.82" x2="778.45" y2="547.92" gradientTransform="translate(563.79 -316.51) rotate(45)" xlink:href="#linear-gradient"/><linearGradient id="linear-gradient-172" x1="372.26" y1="259.52" x2="529.19" y2="294.62" xlink:href="#linear-gradient"/><linearGradient id="linear-gradient-173" x1="225.6" y1="206.26" x2="273.66" y2="206.26" xlink:href="#linear-gradient"/><linearGradient id="linear-gradient-174" x1="225.6" y1="202.03" x2="264.77" y2="202.03" xlink:href="#linear-gradient"/><linearGradient id="linear-gradient-175" x1="225.6" y1="197.79" x2="253.29" y2="197.79" xlink:href="#linear-gradient"/><linearGradient id="linear-gradient-176" x1="197.42" y1="226.35" x2="346.89" y2="149.59" xlink:href="#linear-gradient"/><linearGradient id="linear-gradient-177" x1="201.86" y1="235.03" x2="351.32" y2="158.27" xlink:href="#linear-gradient"/><linearGradient id="linear-gradient-178" x1="206.31" y1="243.77" x2="355.78" y2="167.01" xlink:href="#linear-gradient"/><linearGradient id="linear-gradient-179" x1="475.6" y1="-2651.92" x2="532.49" y2="-2651.92" gradientTransform="matrix(1, 0, 0, -1, -250, -2358.52)" xlink:href="#linear-gradient"/><linearGradient id="linear-gradient-180" x1="475.6" y1="-2656.19" x2="523.53" y2="-2656.19" gradientTransform="matrix(1, 0, 0, -1, -250, -2358.52)" xlink:href="#linear-gradient"/><linearGradient id="linear-gradient-181" x1="475.6" y1="-2660.46" x2="511.97" y2="-2660.46" gradientTransform="matrix(1, 0, 0, -1, -250, -2358.52)" xlink:href="#linear-gradient"/><linearGradient id="linear-gradient-182" x1="195.23" y1="274.33" x2="376.31" y2="350.88" xlink:href="#linear-gradient"/><linearGradient id="linear-gradient-183" x1="199.18" y1="264.68" x2="380.25" y2="341.23" xlink:href="#linear-gradient"/><linearGradient id="linear-gradient-184" x1="203.09" y1="255.12" x2="384.17" y2="331.67" xlink:href="#linear-gradient"/><linearGradient id="linear-gradient-185" x1="407.85" y1="500" x2="592.15" y2="500" xlink:href="#linear-gradient"/><linearGradient id="linear-gradient-186" x1="307.21" y1="500" x2="692.79" y2="500" xlink:href="#linear-gradient"/><linearGradient id="linear-gradient-187" x1="303.78" y1="500.12" x2="689.24" y2="500.12" xlink:href="#linear-gradient"/></defs><circle cx="250" cy="250" r="250" fill="url(#linear-gradient)"/><circle cx="500" cy="500" r="246.68" transform="translate(-457.11 250) rotate(-45)" fill="url(#linear-gradient-2)"/><circle cx="500" cy="500" r="230.69" transform="translate(-457.11 250) rotate(-45)" fill="url(#linear-gradient-3)"/><circle cx="250" cy="250" r="227.66"/><path d="M501.58,282.6l5.06.15a7.18,7.18,0,0,1,3.18.79,5.18,5.18,0,0,1,2.1,2,5.56,5.56,0,0,1,.68,2.94,5.5,5.5,0,0,1-.86,2.9,5.18,5.18,0,0,1-2.22,1.88,7.25,7.25,0,0,1-3.23.6l-5.05-.16Zm4.65,9.16a3.76,3.76,0,0,0,2.69-.85,3.7,3.7,0,0,0,.16-5,3.78,3.78,0,0,0-2.64-1l-2.35-.07-.21,6.9Z" transform="translate(-250 -250)" fill="url(#linear-gradient-4)"/><path d="M522.92,292.91l-.18,2.06-8.59-.75,1-11.09,8.38.73-.18,2.06-5.83-.51-.21,2.41,5.15.45-.18,2-5.14-.44-.23,2.56Z" transform="translate(-250 -250)" fill="url(#linear-gradient-5)"/><path d="M527,295a5.4,5.4,0,0,1-1.85-2.33,5.94,5.94,0,0,1,.83-5.87,5.52,5.52,0,0,1,2.43-1.73,6.84,6.84,0,0,1,5.68.58,5.2,5.2,0,0,1,1.74,1.72L534,288.61a3.54,3.54,0,0,0-2.59-1.68,3.72,3.72,0,0,0-1.89.18,3.32,3.32,0,0,0-1.43,1.08,3.68,3.68,0,0,0-.7,1.76,3.62,3.62,0,0,0,.19,1.89,3.23,3.23,0,0,0,1.07,1.43,3.79,3.79,0,0,0,1.76.71,3.55,3.55,0,0,0,3-.92l1.42,1.74a5,5,0,0,1-2.16,1.19,6.56,6.56,0,0,1-2.67.14A6.38,6.38,0,0,1,527,295Z" transform="translate(-250 -250)" fill="url(#linear-gradient-6)"/><path d="M544.9,296.51l-.4,2-8.45-1.66L538.19,286l8.25,1.62-.4,2-5.74-1.13-.46,2.37,5.07,1-.39,2-5.07-1-.49,2.53Z" transform="translate(-250 -250)" fill="url(#linear-gradient-7)"/><path d="M559.09,290.72l-2.76,10.78-2.05-.53-3.7-7.92-1.68,6.55-2.46-.64,2.76-10.78,2.07.53,3.68,7.92,1.68-6.54Z" transform="translate(-250 -250)" fill="url(#linear-gradient-8)"/><path d="M563.56,294.29l-3.39-1.07.63-2,9.25,2.91-.63,2-3.4-1.07-2.71,8.62-2.46-.78Z" transform="translate(-250 -250)" fill="url(#linear-gradient-9)"/><path d="M574.56,307.66l-.92-3.66-.12,0-2.1-.79-1.08,2.91-2.42-.9,3.9-10.43,4.51,1.69a6.11,6.11,0,0,1,2.23,1.36,3.72,3.72,0,0,1,1.08,1.89,3.8,3.8,0,0,1-3.57,4.71l1.09,4.23Zm2.38-8.22a2.74,2.74,0,0,0-1.48-1.09l-2-.73-1.36,3.63,2,.74a2.72,2.72,0,0,0,1.83.14,2,2,0,0,0,1-2.69Z" transform="translate(-250 -250)" fill="url(#linear-gradient-10)"/><path d="M586.38,310.05,581.65,308l-1.86,1.79-2.41-1.07,9-8.18,2.33,1,.07,12.19-2.48-1.09Zm0-2.12.1-4.61-3.33,3.19Z" transform="translate(-250 -250)" fill="url(#linear-gradient-11)"/><path d="M594.67,304.27l2.3,1.16-4.06,8.06,5,2.52-.95,1.87-7.28-3.67Z" transform="translate(-250 -250)" fill="url(#linear-gradient-12)"/><path d="M603.49,308.82l2.25,1.25-5.36,9.74-2.25-1.24Z" transform="translate(-250 -250)" fill="url(#linear-gradient-13)"/><path d="M611.43,323.89l-1.08,1.8-8.34-5,.86-1.43,9-3.17L606.77,313l1.08-1.8,8,4.83-.86,1.43-9,3.17Z" transform="translate(-250 -250)" fill="url(#linear-gradient-14)"/><path d="M620,329.63l-1.16,1.72-7.14-4.81,6.21-9.23,7,4.69-1.16,1.72-4.85-3.27-1.35,2,4.28,2.88L620.65,327l-4.29-2.88-1.44,2.13Z" transform="translate(-250 -250)" fill="url(#linear-gradient-15)"/><path d="M627,323.55l4,3.06a7.08,7.08,0,0,1,2.13,2.48,5.25,5.25,0,0,1,.55,2.86,5.89,5.89,0,0,1-3.54,4.66,5.17,5.17,0,0,1-2.9.25,7.29,7.29,0,0,1-3-1.39l-4-3.05Zm-1.52,10.16a3.77,3.77,0,0,0,2.68.87,3.69,3.69,0,0,0,3-4,3.76,3.76,0,0,0-1.56-2.35l-1.88-1.42-4.16,5.5Z" transform="translate(-250 -250)" fill="url(#linear-gradient-16)"/><path d="M645.07,338.07l3.69,3.46a7.14,7.14,0,0,1,1.86,2.7,5.17,5.17,0,0,1,.24,2.9,6,6,0,0,1-4,4.26,5.16,5.16,0,0,1-2.91-.06,7.22,7.22,0,0,1-2.81-1.69l-3.68-3.47ZM642.49,348a3.79,3.79,0,0,0,2.57,1.15,3.72,3.72,0,0,0,3.46-3.68,3.74,3.74,0,0,0-1.31-2.5l-1.71-1.61-4.73,5Z" transform="translate(-250 -250)" fill="url(#linear-gradient-17)"/><path d="M654.73,347.36l1.8,1.84-8,7.77-1.79-1.84Z" transform="translate(-250 -250)" fill="url(#linear-gradient-18)"/><path d="M659.66,360.56l1.57,1.75-3.36,3a6.82,6.82,0,0,1-2.18-.87,8.27,8.27,0,0,1-1.88-1.54,6.55,6.55,0,0,1-1.53-2.81,5.52,5.52,0,0,1,.08-3,5.62,5.62,0,0,1,1.68-2.56,5.56,5.56,0,0,1,2.74-1.39,5.44,5.44,0,0,1,3,.25,6.69,6.69,0,0,1,2.65,1.85,7.05,7.05,0,0,1,1.41,2.31,5.24,5.24,0,0,1,.27,2.44l-2.24-.21a3.83,3.83,0,0,0-1-3,3.94,3.94,0,0,0-1.6-1.11,3.22,3.22,0,0,0-1.79-.12,3.93,3.93,0,0,0-2.76,2.47,3.24,3.24,0,0,0-.09,1.8,3.84,3.84,0,0,0,.91,1.69,4,4,0,0,0,1.69,1.17Z" transform="translate(-250 -250)" fill="url(#linear-gradient-19)"/><path d="M667,360.87l1.64,2L660,369.94l-1.63-2Z" transform="translate(-250 -250)" fill="url(#linear-gradient-20)"/><path d="M670.24,368.25l-2.17-2.83,1.67-1.27,5.89,7.7L674,373.12l-2.17-2.82-7.17,5.48-1.56-2Z" transform="translate(-250 -250)" fill="url(#linear-gradient-21)"/><path d="M673.32,383.85l-2.93-4.25-2.52.54-1.5-2.17,12-2.23,1.45,2.09-6.34,10.41L671.92,386Zm1.15-1.78,2.5-3.86-4.5,1Z" transform="translate(-250 -250)" fill="url(#linear-gradient-22)"/><path d="M683.45,383.34l1.35,2.2-7.69,4.73L680,395l-1.79,1.1L674,389.17Z" transform="translate(-250 -250)" fill="url(#linear-gradient-23)"/><path d="M684.63,406.78a5.43,5.43,0,0,1,.88-2.84,5.63,5.63,0,0,1,2.31-2,5.58,5.58,0,0,1,5.81.43,6.95,6.95,0,0,1,2.72,5,5.27,5.27,0,0,1-.44,2.4l-2.1-.8a3.59,3.59,0,0,0-.07-3.09,3.64,3.64,0,0,0-1.22-1.45,3.12,3.12,0,0,0-1.69-.58,4,4,0,0,0-3.31,1.63,3.3,3.3,0,0,0-.58,1.69,3.81,3.81,0,0,0,.41,1.86,3.53,3.53,0,0,0,2.42,1.92l-.64,2.16a5.09,5.09,0,0,1-2.19-1.12,6.6,6.6,0,0,1-1.62-2.12A6.38,6.38,0,0,1,684.63,406.78Z" transform="translate(-250 -250)" fill="url(#linear-gradient-24)"/><path d="M689.67,416a5,5,0,0,1,3-2.69l5.74-2.42,1,2.37-5.66,2.38q-2.75,1.17-1.79,3.45a2.35,2.35,0,0,0,1.39,1.42,3.38,3.38,0,0,0,2.33-.3l5.65-2.38,1,2.34-5.74,2.42A4.59,4.59,0,0,1,689.9,420,5,5,0,0,1,689.67,416Z" transform="translate(-250 -250)" fill="url(#linear-gradient-25)"/><path d="M695.26,433.44l2.2-3.06,0-.12-.75-2.11-2.92,1-.86-2.43L703.38,423l1.61,4.54a6.11,6.11,0,0,1,.39,2.58,3.81,3.81,0,0,1-.76,2,4.13,4.13,0,0,1-4,1.43,3.74,3.74,0,0,1-1.86-1.14l-2.54,3.55Zm7.82-3.46a2.7,2.7,0,0,0-.12-1.83l-.7-2-3.66,1.3.71,2a2.68,2.68,0,0,0,1.06,1.5,1.81,1.81,0,0,0,1.55.09A1.78,1.78,0,0,0,703.08,430Z" transform="translate(-250 -250)" fill="url(#linear-gradient-26)"/><path d="M698.68,444.48l2.37-2.93,0-.12-.63-2.15-3,.87-.72-2.47,10.68-3.13,1.35,4.63a6.14,6.14,0,0,1,.25,2.6,3.86,3.86,0,0,1-.88,2A4.16,4.16,0,0,1,704,445a3.76,3.76,0,0,1-1.79-1.24l-2.74,3.4Zm8-3a2.72,2.72,0,0,0,0-1.83l-.59-2-3.73,1.09.59,2a2.69,2.69,0,0,0,1,1.55,2,2,0,0,0,2.75-.81Z" transform="translate(-250 -250)" fill="url(#linear-gradient-27)"/><path d="M703.82,456.66l-2,.47-2-8.39,10.83-2.54,1.92,8.18-2,.47-1.34-5.69-2.35.55,1.18,5-2,.46-1.18-5-2.51.59Z" transform="translate(-250 -250)" fill="url(#linear-gradient-28)"/><path d="M714.94,467.15l-11,1.93-.37-2.09,5.69-6.63-6.65,1.17-.44-2.51,11-1.92.37,2.1-5.7,6.61,6.66-1.17Z" transform="translate(-250 -250)" fill="url(#linear-gradient-29)"/><path d="M705.12,473.69a5.44,5.44,0,0,1,1.79-2.38,6,6,0,0,1,5.89-.68,5.41,5.41,0,0,1,2.28,1.91,6.34,6.34,0,0,1,1.09,3,6.47,6.47,0,0,1-.2,2.66,5.31,5.31,0,0,1-1.23,2.12l-1.7-1.47a3.57,3.57,0,0,0,1-2.93,3.75,3.75,0,0,0-.66-1.78A3.31,3.31,0,0,0,712,473a3.82,3.82,0,0,0-1.89-.23,3.69,3.69,0,0,0-1.78.66,3.25,3.25,0,0,0-1.11,1.4,3.78,3.78,0,0,0-.24,1.88,3.56,3.56,0,0,0,1.64,2.63l-1.33,1.82a5.18,5.18,0,0,1-1.69-1.79,6.87,6.87,0,0,1-.43-5.69Z" transform="translate(-250 -250)" fill="url(#linear-gradient-30)"/><path d="M709.83,488l-3.94.25-.16-2.57,4-.25,6.87-4.75.17,2.73L712,486.65l5.12,2.65.16,2.53Z" transform="translate(-250 -250)" fill="url(#linear-gradient-31)"/><path d="M706.53,502.07a1.49,1.49,0,0,1,1.12-.42,1.45,1.45,0,0,1,1.1.46,1.54,1.54,0,0,1,.4,1.1,1.52,1.52,0,0,1-.44,1.09,1.43,1.43,0,0,1-1.11.43,1.54,1.54,0,0,1-1.11-.46,1.5,1.5,0,0,1-.42-1.11A1.47,1.47,0,0,1,706.53,502.07Z" transform="translate(-250 -250)" fill="url(#linear-gradient-32)"/><path d="M709.53,525.45a2.77,2.77,0,0,1-1.78.37,2.56,2.56,0,0,1-2.13-1.35,5.78,5.78,0,0,1-.47-3.37l.56-5.73,11.07,1.07-.52,5.41a5.34,5.34,0,0,1-1.08,3,2.48,2.48,0,0,1-2.21.88,2.68,2.68,0,0,1-2.29-1.71A2.9,2.9,0,0,1,709.53,525.45Zm-2.24-2.8a1.14,1.14,0,0,0,1,.62c.91.09,1.44-.55,1.57-1.91l.29-3-2.74-.27-.29,3A2.87,2.87,0,0,0,707.29,522.65Zm7.32-3.85-2.61-.25-.25,2.55a2.6,2.6,0,0,0,.19,1.47,1.24,1.24,0,0,0,2,.19,2.63,2.63,0,0,0,.46-1.41Z" transform="translate(-250 -250)" fill="url(#linear-gradient-33)"/><path d="M715.44,528.94l-.36,2.55-11-1.53.36-2.55Z" transform="translate(-250 -250)" fill="url(#linear-gradient-34)"/><path d="M712.2,536.33l.61-3.51,2.07.36-1.68,9.55-2.07-.36.62-3.51-8.89-1.56.44-2.54Z" transform="translate(-250 -250)" fill="url(#linear-gradient-35)"/><path d="M702.05,544.18a5.54,5.54,0,0,1,2.48-1.65,5.65,5.65,0,0,1,3.06-.1,5.56,5.56,0,0,1,4.24,4,6.56,6.56,0,0,1,0,3.18,6.7,6.7,0,0,1-1.08,2.44,5.26,5.26,0,0,1-1.87,1.58l-1.12-2a3.55,3.55,0,0,0,1.9-2.44,3.76,3.76,0,0,0,0-1.89,3.2,3.2,0,0,0-.95-1.52,4,4,0,0,0-3.59-.82,3.2,3.2,0,0,0-1.52,1,3.62,3.62,0,0,0-.85,1.69,3.52,3.52,0,0,0,.66,3l-1.86,1.28a5.22,5.22,0,0,1-1-2.25,6.78,6.78,0,0,1,.09-2.68A6.31,6.31,0,0,1,702.05,544.18Z" transform="translate(-250 -250)" fill="url(#linear-gradient-36)"/><path d="M699.37,555.14a5.49,5.49,0,0,1,2.58-1.51,5.9,5.9,0,0,1,5.66,1.65A5.51,5.51,0,0,1,709,558a6.89,6.89,0,0,1-1.75,6,5.64,5.64,0,0,1-2.59,1.51,5.56,5.56,0,0,1-3-.06,5.55,5.55,0,0,1-4-4.26,6.84,6.84,0,0,1,1.75-6Zm.44,5.24a3.21,3.21,0,0,0,.87,1.55,4,4,0,0,0,3.54,1,3.24,3.24,0,0,0,1.56-.85,3.75,3.75,0,0,0,1-3.41,3.26,3.26,0,0,0-.86-1.56,3.76,3.76,0,0,0-1.65-.95,3.7,3.7,0,0,0-1.89-.08,3.29,3.29,0,0,0-1.57.84,3.76,3.76,0,0,0-1,3.42Z" transform="translate(-250 -250)" fill="url(#linear-gradient-37)"/><path d="M706.13,569.12l-.84,2.44L694.76,568l.84-2.44Z" transform="translate(-250 -250)" fill="url(#linear-gradient-38)"/><path d="M700.59,584l-10.37-4.06.78-2,8.31-2.7L693,572.79l.93-2.37,10.36,4.06-.78,2-8.31,2.68,6.29,2.47Z" transform="translate(-250 -250)" fill="url(#linear-gradient-39)"/><path d="M685.9,590.11a1.46,1.46,0,0,1,1.19.09,1.43,1.43,0,0,1,.8.89,1.55,1.55,0,0,1-.11,1.17,1.51,1.51,0,0,1-.86.79,1.47,1.47,0,0,1-1.19-.09,1.49,1.49,0,0,1-.8-.89,1.57,1.57,0,0,1,1-2Z" transform="translate(-250 -250)" fill="url(#linear-gradient-40)"/><path d="M689,607.52l-2.61,4.33a7.05,7.05,0,0,1-2.24,2.38,5.15,5.15,0,0,1-2.78.85,5.91,5.91,0,0,1-5-3,5.14,5.14,0,0,1-.56-2.86,7.26,7.26,0,0,1,1.06-3.1l2.61-4.33Zm-10.26-.43a3.75,3.75,0,0,0-.58,2.76,3.7,3.7,0,0,0,4.32,2.6,3.75,3.75,0,0,0,2.17-1.8l1.21-2L680,605.07Z" transform="translate(-250 -250)" fill="url(#linear-gradient-41)"/><path d="M669.5,621.16,667.79,620l4.86-7.12,9.19,6.28-4.74,6.94-1.71-1.16,3.3-4.83-2-1.36L673.78,623l-1.65-1.13,2.91-4.26-2.12-1.46Z" transform="translate(-250 -250)" fill="url(#linear-gradient-42)"/><path d="M665.75,623.65a5.55,5.55,0,0,1,2.94-.47,5.75,5.75,0,0,1,2.84,1.18,5.66,5.66,0,0,1,1.87,2.42,5.53,5.53,0,0,1,.32,3,6.54,6.54,0,0,1-1.29,2.91,6.47,6.47,0,0,1-2,1.77,5.25,5.25,0,0,1-2.36.67l-.21-2.24a3.58,3.58,0,0,0,2.74-1.43,3.74,3.74,0,0,0,.76-1.74,3.17,3.17,0,0,0-.24-1.77,3.64,3.64,0,0,0-1.19-1.48,3.74,3.74,0,0,0-1.74-.76,3.26,3.26,0,0,0-1.77.23,3.75,3.75,0,0,0-1.48,1.2,3.52,3.52,0,0,0-.65,3l-2.22.39a5.16,5.16,0,0,1,0-2.47,6.85,6.85,0,0,1,3.64-4.39Z" transform="translate(-250 -250)" fill="url(#linear-gradient-43)"/><path d="M655.63,638.51l-1.57-1.34,5.58-6.56,8.47,7.21-5.45,6.41-1.57-1.34,3.79-4.46L663,636.87l-3.35,3.93-1.52-1.3,3.35-3.93-2-1.67Z" transform="translate(-250 -250)" fill="url(#linear-gradient-44)"/><path d="M653.81,653.65,645.75,646l1.46-1.53,8.72.65L651,640.43l1.76-1.84,8.05,7.68-1.47,1.54-8.71-.66,4.89,4.66Z" transform="translate(-250 -250)" fill="url(#linear-gradient-45)"/><path d="M648.45,655.87l2.59-2.44,1.44,1.53-7.06,6.64L644,660.08l2.6-2.45-6.19-6.57,1.87-1.77Z" transform="translate(-250 -250)" fill="url(#linear-gradient-46)"/><path d="M631.47,658.9l3.64,1,.1-.08,1.71-1.45-2-2.36,2-1.67,7.21,8.48-3.67,3.12a6.22,6.22,0,0,1-2.28,1.29,3.85,3.85,0,0,1-2.18,0,3.92,3.92,0,0,1-1.84-1.26,3.7,3.7,0,0,1-.93-2,3.85,3.85,0,0,1,.4-2.15l-4.22-1.11Zm6,6.08a2.74,2.74,0,0,0,1.67-.76l1.6-1.36-2.51-3-1.6,1.36a2.72,2.72,0,0,0-1,1.53,2,2,0,0,0,1.86,2.19Z" transform="translate(-250 -250)" fill="url(#linear-gradient-47)"/><path d="M623.65,668l4.12-3.11-.65-2.5,2.1-1.59L632,672.71l-2,1.53-10.68-5.87,2.15-1.63Zm1.82,1.07,4,2.34L628.29,667Z" transform="translate(-250 -250)" fill="url(#linear-gradient-48)"/><path d="M624.55,678.18l-2.13,1.44-5.07-7.48-4.62,3.13-1.17-1.74,6.75-4.57Z" transform="translate(-250 -250)" fill="url(#linear-gradient-49)"/><path d="M616.31,683.64,614.13,685l-5.91-9.43,2.18-1.37Z" transform="translate(-250 -250)" fill="url(#linear-gradient-50)"/><path d="M599.29,683.24l-1-1.81,8.43-4.85.83,1.45-1.62,9.42,5.18-3,1,1.82L604,691l-.83-1.45,1.61-9.42Z" transform="translate(-250 -250)" fill="url(#linear-gradient-51)"/><path d="M590.16,687.87l-.94-1.84,7.68-3.91L602,692l-7.5,3.81-.94-1.84,5.22-2.65-1.1-2.15-4.6,2.34-.91-1.79,4.61-2.34-1.17-2.29Z" transform="translate(-250 -250)" fill="url(#linear-gradient-52)"/><path d="M592,697.05l-4.63,2a7.18,7.18,0,0,1-3.21.65,5.14,5.14,0,0,1-2.76-.92,5.88,5.88,0,0,1-2.35-5.36,5.12,5.12,0,0,1,1.2-2.65,7.21,7.21,0,0,1,2.65-1.92l4.63-2Zm-8.13-6.28a3.74,3.74,0,0,0-2.07,1.92,3.67,3.67,0,0,0,2,4.61,3.73,3.73,0,0,0,2.81-.21l2.15-1L586,689.82Z" transform="translate(-250 -250)" fill="url(#linear-gradient-53)"/><path d="M570.58,705.69l-4.82,1.53a7.15,7.15,0,0,1-3.26.3,5.24,5.24,0,0,1-2.65-1.2,6,6,0,0,1-1.76-5.58,5.25,5.25,0,0,1,1.47-2.51,7.1,7.1,0,0,1,2.85-1.62l4.82-1.53Zm-7.41-7.11a3.78,3.78,0,0,0-2.26,1.69,3.7,3.7,0,0,0,1.52,4.81,3.73,3.73,0,0,0,2.82.08l2.24-.71-2.08-6.57Z" transform="translate(-250 -250)" fill="url(#linear-gradient-54)"/><path d="M557.67,709.62l-2.49.66-2.88-10.74,2.49-.67Z" transform="translate(-250 -250)" fill="url(#linear-gradient-55)"/><path d="M543.78,707.45l-2.3.51-1-4.4a6.89,6.89,0,0,1,1.82-1.49,8,8,0,0,1,2.27-.87,6.4,6.4,0,0,1,3.2,0,5.38,5.38,0,0,1,2.56,1.53,5.53,5.53,0,0,1,1.42,2.72A5.5,5.5,0,0,1,550,711a6.72,6.72,0,0,1-2.91,1.41,7.09,7.09,0,0,1-2.7.1,5.35,5.35,0,0,1-2.27-1l1.29-1.85a3.8,3.8,0,0,0,3.08.59,3.92,3.92,0,0,0,1.75-.84,3.18,3.18,0,0,0,1-1.51,4,4,0,0,0-.81-3.61,3.3,3.3,0,0,0-1.52-1,3.88,3.88,0,0,0-1.92,0,4.15,4.15,0,0,0-1.86.9Z" transform="translate(-250 -250)" fill="url(#linear-gradient-56)"/><path d="M539.89,713.69l-2.53.46-2-10.95,2.54-.46Z" transform="translate(-250 -250)" fill="url(#linear-gradient-57)"/><path d="M531.87,712.91l3.52-.5.3,2.07-9.6,1.37-.3-2.08,3.53-.5-1.27-8.94,2.55-.36Z" transform="translate(-250 -250)" fill="url(#linear-gradient-58)"/><path d="M516.8,708l5.15-.47.76-2.47,2.63-.24-3.92,11.54-2.53.23-6-10.62,2.69-.25Zm1,1.87,2.14,4.08,1.37-4.4Z" transform="translate(-250 -250)" fill="url(#linear-gradient-59)"/><path d="M512.22,717l-2.57.11-.36-9-5.57.22-.09-2.09,8.15-.33Z" transform="translate(-250 -250)" fill="url(#linear-gradient-60)"/><path d="M491.2,706.59a5.52,5.52,0,0,1,2.05,2.16,5.62,5.62,0,0,1,.63,3,5.68,5.68,0,0,1-.94,2.92,5.54,5.54,0,0,1-2.27,1.93,6.45,6.45,0,0,1-3.12.57,6.3,6.3,0,0,1-2.59-.64,5.2,5.2,0,0,1-1.88-1.56l1.73-1.44a3.54,3.54,0,0,0,2.72,1.45,3.73,3.73,0,0,0,1.87-.36,3.25,3.25,0,0,0,1.33-1.19,3.78,3.78,0,0,0,.55-1.82,3.84,3.84,0,0,0-.36-1.87,3.16,3.16,0,0,0-1.19-1.32,3.67,3.67,0,0,0-1.82-.55,3.51,3.51,0,0,0-2.86,1.17l-1.58-1.62a5.33,5.33,0,0,1,2-1.37,6.51,6.51,0,0,1,2.65-.37A6.4,6.4,0,0,1,491.2,706.59Z" transform="translate(-250 -250)" fill="url(#linear-gradient-61)"/><path d="M480.7,706.49a5.09,5.09,0,0,1,.9,3.89l-.68,6.2-2.56-.28.67-6.1q.33-3-2.14-3.25a2.37,2.37,0,0,0-1.91.52,3.37,3.37,0,0,0-.88,2.18l-.67,6.1-2.53-.28.68-6.19a5.09,5.09,0,0,1,1.74-3.6,5,5,0,0,1,3.83-.9A5,5,0,0,1,480.7,706.49Z" transform="translate(-250 -250)" fill="url(#linear-gradient-62)"/><path d="M462.79,702.89l1.6,3.41.12,0,2.21.38.52-3.06,2.54.43-1.86,11-4.75-.8a6.2,6.2,0,0,1-2.45-.92,3.8,3.8,0,0,1-1.42-1.65,3.9,3.9,0,0,1-.22-2.22,3.86,3.86,0,0,1,.95-2,3.76,3.76,0,0,1,1.9-1.07l-1.87-3.94Zm-.78,8.52a2.73,2.73,0,0,0,1.65.78l2.07.35.65-3.82-2.07-.35a2.64,2.64,0,0,0-1.82.21,1.76,1.76,0,0,0-.84,1.31A1.79,1.79,0,0,0,462,711.41Z" transform="translate(-250 -250)" fill="url(#linear-gradient-63)"/><path d="M451.47,700.49l1.4,3.5.13,0,2.18.5.69-3,2.51.57-2.47,10.85-4.7-1.07a6.18,6.18,0,0,1-2.39-1.05,3.79,3.79,0,0,1-1.33-1.74,4,4,0,0,1-.09-2.22,3.65,3.65,0,0,1,1.06-2,3.72,3.72,0,0,1,2-1l-1.64-4ZM450.21,709a2.7,2.7,0,0,0,1.61.87l2,.47.87-3.78-2.05-.47a2.68,2.68,0,0,0-1.83.11,2,2,0,0,0-.64,2.8Z" transform="translate(-250 -250)" fill="url(#linear-gradient-64)"/><path d="M438.25,699l.56-2,8.29,2.36L444,710.11,436,707.8l.56-2,5.63,1.61.66-2.32-5-1.42.55-1.93,5,1.42.71-2.47Z" transform="translate(-250 -250)" fill="url(#linear-gradient-65)"/><path d="M423.74,703.65l3.65-10.51,2,.69,3,8.21,2.22-6.38,2.4.83L433.38,707l-2-.7-3-8.19-2.22,6.38Z" transform="translate(-250 -250)" fill="url(#linear-gradient-66)"/><path d="M422.76,691.87A5.53,5.53,0,0,1,424,694.6a5.94,5.94,0,0,1-2.28,5.47,5.52,5.52,0,0,1-2.78,1.07,6.95,6.95,0,0,1-5.36-2,5.36,5.36,0,0,1-1.25-2.11l2.11-.77a3.59,3.59,0,0,0,2.09,2.28,3.75,3.75,0,0,0,1.87.29,3.27,3.27,0,0,0,1.66-.69,4,4,0,0,0,1.41-3.4,3.19,3.19,0,0,0-.68-1.65,3.61,3.61,0,0,0-1.53-1.13,3.54,3.54,0,0,0-3.09.14l-.94-2a5.17,5.17,0,0,1,2.39-.61,6.92,6.92,0,0,1,5.17,2.4Z" transform="translate(-250 -250)" fill="url(#linear-gradient-67)"/><path d="M408,689l1.7-3.56,2.32,1.12-1.71,3.58.78,8.31-2.46-1.18-.54-5.74-4.82,3.17-2.28-1.1Z" transform="translate(-250 -250)" fill="url(#linear-gradient-68)"/><path d="M397.33,679.25a1.52,1.52,0,0,1-.17,1.19,1.45,1.45,0,0,1-.94.73,1.54,1.54,0,0,1-1.16-.18,1.56,1.56,0,0,1-.74-.92,1.47,1.47,0,0,1,.17-1.18,1.55,1.55,0,0,1,.95-.74,1.52,1.52,0,0,1,1.17.17A1.48,1.48,0,0,1,397.33,679.25Z" transform="translate(-250 -250)" fill="url(#linear-gradient-69)"/><path d="M375.51,670.45a2.87,2.87,0,0,1,.55-1.74,2.56,2.56,0,0,1,2.22-1.19,5.79,5.79,0,0,1,3.17,1.25l4.72,3.28-6.36,9.13-4.46-3.1a5.39,5.39,0,0,1-2.12-2.43,2.47,2.47,0,0,1,.32-2.35,2.67,2.67,0,0,1,1.15-1,2.76,2.76,0,0,1,1.46-.2A2.94,2.94,0,0,1,375.51,670.45Zm3.31,7.68,1.5-2.15-2.1-1.46a2.58,2.58,0,0,0-1.38-.56,1.23,1.23,0,0,0-1.12,1.61,2.7,2.7,0,0,0,1,1.1Zm.23-8.27a1.13,1.13,0,0,0-1,.56c-.53.75-.23,1.52.89,2.3l2.46,1.72,1.58-2.26-2.47-1.71A2.92,2.92,0,0,0,379.05,669.86Z" transform="translate(-250 -250)" fill="url(#linear-gradient-70)"/><path d="M369.54,673.86l-2.05-1.56,6.74-8.86,2,1.56Z" transform="translate(-250 -250)" fill="url(#linear-gradient-71)"/><path d="M364.7,667.42l2.75,2.26-1.33,1.62-7.5-6.14,1.33-1.63,2.75,2.26,5.72-7,2,1.64Z" transform="translate(-250 -250)" fill="url(#linear-gradient-72)"/><path d="M362.87,654.77a5.53,5.53,0,0,1,.23,3,6,6,0,0,1-4,4.39,5.58,5.58,0,0,1-3,.07,6.43,6.43,0,0,1-2.79-1.53,6.63,6.63,0,0,1-1.6-2.13,5.46,5.46,0,0,1-.47-2.41l2.25,0a3.6,3.6,0,0,0,1.2,2.85,3.76,3.76,0,0,0,1.67.9,3.21,3.21,0,0,0,1.79-.09,4,4,0,0,0,2.47-2.73,3.21,3.21,0,0,0-.09-1.79,3.66,3.66,0,0,0-1.06-1.57,3.51,3.51,0,0,0-3-.9l-.2-2.24a5.16,5.16,0,0,1,2.46.23,6.86,6.86,0,0,1,4.06,4Z" transform="translate(-250 -250)" fill="url(#linear-gradient-73)"/><path d="M354.55,647a5.47,5.47,0,0,1,.06,3,5.62,5.62,0,0,1-1.55,2.62A5.57,5.57,0,0,1,347.4,654a6.53,6.53,0,0,1-2.72-1.7,6.4,6.4,0,0,1-1.64-2.75,5.66,5.66,0,0,1-.06-3,5.89,5.89,0,0,1,4.21-4.13,5.68,5.68,0,0,1,3,.12,6.3,6.3,0,0,1,2.71,1.7A6.4,6.4,0,0,1,354.55,647Zm-4.79-2.17a3.23,3.23,0,0,0-1.77,0,3.87,3.87,0,0,0-1.64,1,3.76,3.76,0,0,0-1,1.62,3.23,3.23,0,0,0,0,1.77,3.49,3.49,0,0,0,.92,1.59,3.44,3.44,0,0,0,1.57,1,3.26,3.26,0,0,0,1.78,0,3.74,3.74,0,0,0,1.63-1,3.78,3.78,0,0,0,1-1.61,3.36,3.36,0,0,0,0-1.78,3.73,3.73,0,0,0-2.5-2.54Z" transform="translate(-250 -250)" fill="url(#linear-gradient-74)"/><path d="M339.1,646.13l-1.72-1.91,8.28-7.44,1.72,1.92Z" transform="translate(-250 -250)" fill="url(#linear-gradient-75)"/><path d="M328.84,634.07l8.59-7.07,1.34,1.63-1.69,8.58,5.22-4.3,1.62,2-8.6,7.07L334,640.3l1.7-8.56L330.45,636Z" transform="translate(-250 -250)" fill="url(#linear-gradient-76)"/><path d="M330.59,618.17a1.5,1.5,0,0,1-.67,1,1.42,1.42,0,0,1-1.16.26,1.51,1.51,0,0,1-1-.66,1.54,1.54,0,0,1-.28-1.14,1.6,1.6,0,0,1,1.83-1.26,1.51,1.51,0,0,1,1,.65A1.49,1.49,0,0,1,330.59,618.17Z" transform="translate(-250 -250)" fill="url(#linear-gradient-77)"/><path d="M313.9,612.46l-2.51-4.39a7.22,7.22,0,0,1-1-3.12,5.19,5.19,0,0,1,.62-2.84,5.89,5.89,0,0,1,5.07-2.91,5.24,5.24,0,0,1,2.77.9,7.15,7.15,0,0,1,2.19,2.44l2.51,4.39Zm5.37-8.76a3.76,3.76,0,0,0-2.13-1.85,3.68,3.68,0,0,0-4.37,2.51,3.73,3.73,0,0,0,.51,2.77l1.17,2,6-3.43Z" transform="translate(-250 -250)" fill="url(#linear-gradient-78)"/><path d="M311.51,588.88l1.85-.93,3.86,7.71-10,5-3.76-7.53,1.85-.92,2.62,5.23,2.16-1.08-2.31-4.62,1.79-.9,2.31,4.63,2.3-1.15Z" transform="translate(-250 -250)" fill="url(#linear-gradient-79)"/><path d="M311.15,584.36a5.39,5.39,0,0,1-1,2.8,5.71,5.71,0,0,1-8.18,1.2,6.86,6.86,0,0,1-2.48-5.14,5.28,5.28,0,0,1,.56-2.39l2.06.91a3.57,3.57,0,0,0-.09,3.09,3.83,3.83,0,0,0,1.15,1.51,3.28,3.28,0,0,0,1.67.65,4,4,0,0,0,3.38-1.47,3.14,3.14,0,0,0,.66-1.66,3.78,3.78,0,0,0-.32-1.87,3.55,3.55,0,0,0-2.33-2l.74-2.13A5.25,5.25,0,0,1,309.1,579a6.71,6.71,0,0,1,1.51,2.21A6.36,6.36,0,0,1,311.15,584.36Z" transform="translate(-250 -250)" fill="url(#linear-gradient-80)"/><path d="M303.08,568.2l1.94-.72,3,8.07-10.43,3.88-2.93-7.89,1.94-.71,2,5.48,2.27-.84-1.8-4.85,1.88-.69,1.79,4.84,2.42-.89Z" transform="translate(-250 -250)" fill="url(#linear-gradient-81)"/><path d="M290.77,559.27,301.4,556l.63,2-4.82,7.3,6.45-2,.75,2.44L293.78,569l-.63-2,4.83-7.28-6.46,2Z" transform="translate(-250 -250)" fill="url(#linear-gradient-82)"/><path d="M291.43,553.42l.86,3.46-2,.5L287.91,548l2-.5.86,3.45,8.76-2.18.62,2.5Z" transform="translate(-250 -250)" fill="url(#linear-gradient-83)"/><path d="M297.1,537.15l-2.63,2.7,0,.12.43,2.2,3-.59.5,2.53-10.93,2.13-.92-4.73a6,6,0,0,1,0-2.61,3.77,3.77,0,0,1,1.05-1.92,3.87,3.87,0,0,1,2-1,3.65,3.65,0,0,1,3.89,1.58l3-3.13Zm-8.25,2.27a2.71,2.71,0,0,0-.15,1.83l.4,2.06,3.81-.74-.4-2.06a2.7,2.7,0,0,0-.84-1.64,1.8,1.8,0,0,0-1.52-.32A1.78,1.78,0,0,0,288.85,539.42Z" transform="translate(-250 -250)" fill="url(#linear-gradient-84)"/><path d="M293,525.82l.7,5.12,2.49.65.36,2.62-11.7-3.42-.34-2.52,10.36-6.43.36,2.68Zm-1.83,1.07-4,2.32,4.46,1.17Z" transform="translate(-250 -250)" fill="url(#linear-gradient-85)"/><path d="M283.7,521.73l-.22-2.57,9-.75-.46-5.56,2.09-.17.68,8.13Z" transform="translate(-250 -250)" fill="url(#linear-gradient-86)"/><path d="M283,511.85l-.13-2.57,11.12-.53.12,2.57Z" transform="translate(-250 -250)" fill="url(#linear-gradient-87)"/><path d="M291.61,497.2l2.1,0,.16,9.72-1.67,0-7.46-6,.1,6-2.1,0-.15-9.37,1.67,0,7.45,6Z" transform="translate(-250 -250)" fill="url(#linear-gradient-88)"/><path d="M292.06,487l2.06.08-.34,8.61-11.11-.44.33-8.41,2.06.09-.23,5.84,2.42.1.2-5.16,2,.08-.2,5.16,2.57.1Z" transform="translate(-250 -250)" fill="url(#linear-gradient-89)"/><path d="M283.17,484l.48-5a7.1,7.1,0,0,1,1-3.12,5.15,5.15,0,0,1,2.15-2,6,6,0,0,1,5.82.56,5.27,5.27,0,0,1,1.73,2.35,7,7,0,0,1,.38,3.25l-.49,5Zm9.44-4a3.71,3.71,0,0,0-.67-2.74,3.25,3.25,0,0,0-2.41-1.23,3.29,3.29,0,0,0-2.6.75,3.71,3.71,0,0,0-1.18,2.56l-.23,2.34,6.87.66Z" transform="translate(-250 -250)" fill="url(#linear-gradient-90)"/><path d="M286,461.18l1-4.95a7.09,7.09,0,0,1,1.32-3,5.16,5.16,0,0,1,2.35-1.72,5.93,5.93,0,0,1,5.73,1.17,5.31,5.31,0,0,1,1.47,2.51,7.09,7.09,0,0,1,0,3.28l-1,4.95Zm9.82-3a3.75,3.75,0,0,0-.37-2.8,3.69,3.69,0,0,0-4.94-1,3.71,3.71,0,0,0-1.44,2.42l-.48,2.31,6.76,1.38Z" transform="translate(-250 -250)" fill="url(#linear-gradient-91)"/><path d="M288.91,448l.63-2.5,10.79,2.72-.63,2.49Z" transform="translate(-250 -250)" fill="url(#linear-gradient-92)"/><path d="M297.58,436.87l.67-2.26,4.33,1.29a6.67,6.67,0,0,1,.41,2.31,8.33,8.33,0,0,1-.33,2.4,6.66,6.66,0,0,1-1.6,2.78,5.83,5.83,0,0,1-8.27-.19,5.53,5.53,0,0,1-1.34-2.69,6.47,6.47,0,0,1,.19-3.22,6.62,6.62,0,0,1,1.23-2.41,5.35,5.35,0,0,1,1.94-1.51l1,2a3.89,3.89,0,0,0-2,2.4,4,4,0,0,0-.11,1.94,3.23,3.23,0,0,0,.84,1.59,3.7,3.7,0,0,0,1.65,1,3.74,3.74,0,0,0,1.9.08,3.25,3.25,0,0,0,1.58-.87,3.8,3.8,0,0,0,1-1.66,4.24,4.24,0,0,0,.12-2.05Z" transform="translate(-250 -250)" fill="url(#linear-gradient-93)"/><path d="M294,430.56l.84-2.43,10.52,3.61-.84,2.44Z" transform="translate(-250 -250)" fill="url(#linear-gradient-94)"/><path d="M298.57,424l-1.28,3.32-2-.75,3.48-9,2,.75-1.28,3.32,8.43,3.25-.93,2.4Z" transform="translate(-250 -250)" fill="url(#linear-gradient-95)"/><path d="M310.28,413.11l-2.1,4.73L310,419.7l-1.07,2.42-8.16-9.05,1-2.33,12.19,0-1.09,2.47Zm-2.12-.05-4.61-.11,3.18,3.34Z" transform="translate(-250 -250)" fill="url(#linear-gradient-96)"/><path d="M304.56,404.73l1.17-2.29,8,4.09,2.52-5,1.87.95-3.69,7.27Z" transform="translate(-250 -250)" fill="url(#linear-gradient-97)"/><path d="M323.93,391.51a5.48,5.48,0,0,1-2.89.73,6,6,0,0,1-5-3.17,5.52,5.52,0,0,1-.58-2.92,6.53,6.53,0,0,1,1-3,6.69,6.69,0,0,1,1.83-1.94,5.18,5.18,0,0,1,2.28-.87l.41,2.21a3.56,3.56,0,0,0-2.6,1.67,3.64,3.64,0,0,0-.6,1.8,3.28,3.28,0,0,0,.39,1.74,3.75,3.75,0,0,0,1.32,1.37,3.64,3.64,0,0,0,1.8.6,3.1,3.1,0,0,0,1.74-.39,3.65,3.65,0,0,0,1.37-1.31,3.55,3.55,0,0,0,.38-3.08l2.17-.58a5.13,5.13,0,0,1,.2,2.46,6.65,6.65,0,0,1-1,2.49A6.44,6.44,0,0,1,323.93,391.51Z" transform="translate(-250 -250)" fill="url(#linear-gradient-98)"/><path d="M329.19,382.35a5,5,0,0,1-3.83-1.12l-5.07-3.63,1.5-2.09,5,3.57q2.43,1.76,3.87-.27a2.3,2.3,0,0,0,.49-1.92,3.35,3.35,0,0,0-1.47-1.84l-5-3.57,1.48-2.07,5.07,3.63a5.06,5.06,0,0,1,2.29,3.28,5,5,0,0,1-1.09,3.78A5.08,5.08,0,0,1,329.19,382.35Z" transform="translate(-250 -250)" fill="url(#linear-gradient-99)"/><path d="M341.11,368.5l-3.76-.27-.08.1-1.41,1.74,2.42,1.95-1.62,2L328,367l3-3.75a6.1,6.1,0,0,1,2-1.69,3.68,3.68,0,0,1,4.17.47,3.68,3.68,0,0,1,1.29,1.81,3.76,3.76,0,0,1,0,2.18l4.35.3Zm-7-4.85a2.71,2.71,0,0,0-1.5,1.06l-1.32,1.63,3,2.44,1.32-1.63a2.71,2.71,0,0,0,.71-1.69,2,2,0,0,0-2.23-1.81Z" transform="translate(-250 -250)" fill="url(#linear-gradient-100)"/><path d="M348.76,359.78l-3.74-.49-.08.1-1.51,1.66,2.3,2.08L344,365l-8.26-7.47L339,354a6.05,6.05,0,0,1,2.08-1.57,3.85,3.85,0,0,1,2.17-.31,3.9,3.9,0,0,1,2,1,3.62,3.62,0,0,1,1.07,4.06l4.33.55ZM342,354.54a2.7,2.7,0,0,0-1.56,1l-1.4,1.56,2.87,2.6,1.41-1.55a2.71,2.71,0,0,0,.81-1.65,2,2,0,0,0-2.13-1.93Z" transform="translate(-250 -250)" fill="url(#linear-gradient-101)"/><path d="M356.42,349l1.46,1.47-6.11,6.07-7.85-7.89,6-5.93,1.45,1.47-4.15,4.12,1.71,1.71,3.66-3.64,1.41,1.42-3.66,3.65,1.82,1.82Z" transform="translate(-250 -250)" fill="url(#linear-gradient-102)"/><path d="M359.49,334.09l7.39,8.32-1.58,1.41-8.63-1.37,4.48,5.05-1.9,1.69-7.39-8.32,1.59-1.41,8.63,1.37-4.49-5.05Z" transform="translate(-250 -250)" fill="url(#linear-gradient-103)"/><path d="M370.27,339a5.54,5.54,0,0,1-3-.27,5.7,5.7,0,0,1-2.46-1.84,5.63,5.63,0,0,1-1.21-2.82,5.52,5.52,0,0,1,.42-2.94,6.45,6.45,0,0,1,2-2.5,6.54,6.54,0,0,1,2.37-1.22,5.21,5.21,0,0,1,2.45-.07l-.36,2.22a3.57,3.57,0,0,0-3,.71,3.8,3.8,0,0,0-1.17,1.5,3.37,3.37,0,0,0-.21,1.78,4,4,0,0,0,2.29,2.89,3.16,3.16,0,0,0,1.77.21,3.8,3.8,0,0,0,1.73-.78,3.58,3.58,0,0,0,1.38-2.77l2.24.17a5,5,0,0,1-.63,2.38,6.49,6.49,0,0,1-1.74,2A6.41,6.41,0,0,1,370.27,339Z" transform="translate(-250 -250)" fill="url(#linear-gradient-104)"/><path d="M379.9,327.5l2.28,3.22-2.11,1.49L377.78,329l-7.65-3.35,2.24-1.58,5.28,2.32-.43-5.75,2.07-1.46Z" transform="translate(-250 -250)" fill="url(#linear-gradient-105)"/><path d="M393.69,322.88a1.5,1.5,0,0,1-.95-.73,1.47,1.47,0,0,1-.18-1.18,1.51,1.51,0,0,1,.73-.92,1.53,1.53,0,0,1,1.15-.2,1.41,1.41,0,0,1,.95.73,1.5,1.5,0,0,1,.19,1.18,1.45,1.45,0,0,1-.72.94A1.47,1.47,0,0,1,393.69,322.88Z" transform="translate(-250 -250)" fill="url(#linear-gradient-106)"/><path d="M412.06,308.08a2.8,2.8,0,0,1,1.25,1.33,2.57,2.57,0,0,1,0,2.52,5.84,5.84,0,0,1-2.64,2.16l-5.17,2.52-4.88-10,4.89-2.38a5.28,5.28,0,0,1,3.15-.67,2.46,2.46,0,0,1,1.9,1.42,2.66,2.66,0,0,1-.25,2.85A2.94,2.94,0,0,1,412.06,308.08Zm-8.32-.85,1.15,2.36,2.3-1.12a2.6,2.6,0,0,0,1.16-.94,1.13,1.13,0,0,0,0-1.1,1.09,1.09,0,0,0-.87-.66,2.67,2.67,0,0,0-1.45.34Zm7.11,4.23a1.12,1.12,0,0,0,0-1.16c-.4-.83-1.22-.94-2.45-.34l-2.7,1.31,1.21,2.48,2.7-1.32A2.85,2.85,0,0,0,410.85,311.46Z" transform="translate(-250 -250)" fill="url(#linear-gradient-107)"/><path d="M411.86,301.26l2.36-1,4.46,10.2-2.36,1Z" transform="translate(-250 -250)" fill="url(#linear-gradient-108)"/><path d="M419.87,300.16l-3.31,1.3-.77-1.95,9-3.56.77,2-3.31,1.3,3.31,8.4-2.4.95Z" transform="translate(-250 -250)" fill="url(#linear-gradient-109)"/><path d="M431.84,304.71a5.51,5.51,0,0,1-2.7-1.25,5.57,5.57,0,0,1-1.69-2.56,5.64,5.64,0,0,1-.2-3.06,5.51,5.51,0,0,1,1.39-2.63,6.45,6.45,0,0,1,2.7-1.69,6.31,6.31,0,0,1,2.64-.35,5.1,5.1,0,0,1,2.32.76l-1.07,2a3.56,3.56,0,0,0-3.07-.34,3.72,3.72,0,0,0-1.61,1,3.23,3.23,0,0,0-.79,1.6,3.74,3.74,0,0,0,.16,1.89,3.68,3.68,0,0,0,1,1.6,3.24,3.24,0,0,0,1.6.8,3.74,3.74,0,0,0,1.89-.16,3.55,3.55,0,0,0,2.23-2.15l2,.92a5.06,5.06,0,0,1-1.39,2,6.47,6.47,0,0,1-2.33,1.32A6.34,6.34,0,0,1,431.84,304.71Z" transform="translate(-250 -250)" fill="url(#linear-gradient-110)"/><path d="M442.69,301.25a5.57,5.57,0,0,1-2.65-1.42,5.73,5.73,0,0,1-1.53-2.64,5.56,5.56,0,0,1,1.55-5.61,6.57,6.57,0,0,1,2.82-1.54,6.46,6.46,0,0,1,3.2-.09,5.65,5.65,0,0,1,2.64,1.41,5.68,5.68,0,0,1,0,8.25,6.89,6.89,0,0,1-6,1.64Zm4.23-3.12a3.28,3.28,0,0,0,.87-1.55,3.72,3.72,0,0,0,0-1.9,3.8,3.8,0,0,0-.92-1.66,3.25,3.25,0,0,0-1.54-.89,3.56,3.56,0,0,0-1.83,0,3.47,3.47,0,0,0-1.6.9,3.21,3.21,0,0,0-.88,1.55,4,4,0,0,0,1,3.56,3.22,3.22,0,0,0,1.53.89,3.59,3.59,0,0,0,1.84,0A3.47,3.47,0,0,0,446.92,298.13Z" transform="translate(-250 -250)" fill="url(#linear-gradient-111)"/><path d="M451,288.2l2.52-.56,2.43,10.85-2.51.57Z" transform="translate(-250 -250)" fill="url(#linear-gradient-112)"/><path d="M466.56,285.15l2,11-2.08.37-6.65-5.67,1.19,6.65-2.51.45-2-11,2.09-.37,6.64,5.67-1.19-6.64Z" transform="translate(-250 -250)" fill="url(#linear-gradient-113)"/><path d="M479.5,294.46a1.49,1.49,0,0,1-.54-1.06,1.4,1.4,0,0,1,.34-1.14,1.52,1.52,0,0,1,1.05-.52,1.5,1.5,0,0,1,1.13.31,1.46,1.46,0,0,1,.55,1.06,1.51,1.51,0,0,1-.34,1.15,1.55,1.55,0,0,1-1.05.55A1.5,1.5,0,0,1,479.5,294.46Z" transform="translate(-250 -250)" fill="url(#linear-gradient-114)"/><path d="M692.06,497.06H632.92l-8.33-7.62,0-.4A124.32,124.32,0,0,0,517.94,376.28l.29-2A126.34,126.34,0,0,1,626.55,488.47l7.17,6.56h58.34Z" transform="translate(-250 -250)" fill="url(#linear-gradient-115)"/><path d="M448.06,473.22H386.73l-8.07-11,.16-.49a127.52,127.52,0,0,1,80-81.94l.66,1.93a125.46,125.46,0,0,0-78.56,80.13l6.84,9.35h60.3Z" transform="translate(-250 -250)" fill="url(#linear-gradient-116)"/><path d="M500,676.14c-97.12,0-176.14-79-176.14-176.14s79-176.14,176.14-176.14A176.25,176.25,0,0,1,666.42,442.3l.47,1.35h-9.55l-.24-.67A167.61,167.61,0,0,0,500,332.91c-92.13,0-167.09,75-167.09,167.09s75,167.09,167.09,167.09c68.89,0,131.66-43.27,156.18-107.67l.24-.66h9.68l-.5,1.37A176.69,176.69,0,0,1,500,676.14Zm0-350.24c-96,0-174.1,78.1-174.1,174.1S404,674.1,500,674.1A174.66,174.66,0,0,0,663.18,560.8h-5.35c-25,64.82-88.33,108.33-157.83,108.33-93.26,0-169.13-75.87-169.13-169.13S406.74,330.87,500,330.87A169.68,169.68,0,0,1,658.77,441.61H664A174.23,174.23,0,0,0,500,325.9Z" transform="translate(-250 -250)" fill="url(#linear-gradient-117)"/><path d="M620,497.07H606.61L591.54,482V453.61h2v27.54L607.46,495h10.45A118,118,0,0,0,391.6,453.27l6.58,10h49.89v2h-51l-7.79-11.79.22-.51A120.06,120.06,0,0,1,620,496Z" transform="translate(-250 -250)" fill="url(#linear-gradient-118)"/><path d="M500,620.05a119.93,119.93,0,0,1-110.48-73l-.22-.51,7.79-11.79h51v2H398.19l-6.58,10A118,118,0,0,0,617.91,505H589.07v-2H620l0,1.05A119.5,119.5,0,0,1,500,620.05Z" transform="translate(-250 -250)" fill="url(#linear-gradient-119)"/><path d="M500,613a113.38,113.38,0,0,1-98.3-57.19l-.29-.51,7.35-12.66h39.31v2H409.94l-6.18,10.63a111,111,0,0,0,206.67-44l2,.21A112.64,112.64,0,0,1,500,613Z" transform="translate(-250 -250)" fill="url(#linear-gradient-120)"/><path d="M610.43,488.65a111,111,0,0,0-206.67-44L410,455.28h38.12v2H408.78l-7.37-12.65.29-.51a113.05,113.05,0,0,1,210.75,44.28Z" transform="translate(-250 -250)" fill="url(#linear-gradient-121)"/><rect x="432.72" y="284.73" width="6.07" height="2.04" fill="url(#linear-gradient-122)"/><path d="M500,655.09c-85.52,0-155.09-69.57-155.09-155.09S414.47,344.91,500,344.91c69.28,0,130.64,46.46,149.34,113l7,5.29h32.5v2H655.6l-8.05-6.12-.09-.33C629.11,393,568.47,346.94,500,346.94c-84.39,0-153.06,68.66-153.06,153.06S415.6,653.06,500,653.06c68.48,0,129.12-46,147.47-111.88l.09-.31,3-2.45,1.28,1.59-2.51,2C630.64,608.62,569.27,655.09,500,655.09Z" transform="translate(-250 -250)" fill="url(#linear-gradient-123)"/><path d="M458.82,620.23a127.52,127.52,0,0,1-80-81.94l-.16-.49,8.07-11h61.33v2h-60.3l-6.84,9.35a125.46,125.46,0,0,0,78.56,80.13Z" transform="translate(-250 -250)" fill="url(#linear-gradient-124)"/><path d="M518.23,625.74l-.29-2A124.31,124.31,0,0,0,624.56,511l0-.4,8.33-7.62,59.14,0v2l-58.34,0-7.17,6.56A126.33,126.33,0,0,1,518.23,625.74Z" transform="translate(-250 -250)" fill="url(#linear-gradient-125)"/><path d="M500,662.12c-89.39,0-162.12-72.73-162.12-162.12S410.61,337.88,500,337.88A161.58,161.58,0,0,1,654.34,450.26l6.88,5h25.91v2H660.56l-8-5.81-.1-.31A159.54,159.54,0,0,0,500,339.92c-88.27,0-160.08,71.81-160.08,160.08S411.73,660.08,500,660.08A159.54,159.54,0,0,0,652.5,548.8l.1-.31,8-5.81h26.57v2H661.22l-6.88,5A161.59,161.59,0,0,1,500,662.12Z" transform="translate(-250 -250)" fill="url(#linear-gradient-126)"/><path d="M448.07,481.15H377.34l-8.23-10.3.11-.48a134.52,134.52,0,0,1,89.61-98l1.33-.43v33.69h-2V374.75a132.5,132.5,0,0,0-86.81,95.59l7,8.78h69.75Z" transform="translate(-250 -250)" fill="url(#linear-gradient-127)"/><polygon points="228.23 155.63 226.19 155.63 226.19 103.66 239.34 103.66 239.34 105.7 228.23 105.7 228.23 155.63" fill="url(#linear-gradient-128)"/><path d="M448.07,497.05H360.79l-8.4-9.14,0-.44c5.48-65.37,54.23-120,118.55-132.72l1.22-.24v51.12h-2V357c-62.69,13-110.12,66.34-115.67,130.2l7.18,7.82h86.39Z" transform="translate(-250 -250)" fill="url(#linear-gradient-129)"/><path d="M448.07,489.1H368.75l-8.34-9.69.07-.46A140.61,140.61,0,0,1,464.91,363.32l1.27-.33v42.64h-2v-40A138.61,138.61,0,0,0,362.56,478.79l7.12,8.27h78.39Z" transform="translate(-250 -250)" fill="url(#linear-gradient-130)"/><rect x="248.98" y="102.92" width="2.04" height="52.7" fill="url(#linear-gradient-131)"/><path d="M691.77,489.12H639.08l-8.28-7.21,0-.38A132.31,132.31,0,0,0,519.09,369.34v36.29h-2V367l1.15.16a134.33,134.33,0,0,1,114.5,113.7l7.13,6.21h51.93Z" transform="translate(-250 -250)" fill="url(#linear-gradient-132)"/><path d="M644.9,481.17l-8.21-6.81-.07-.36c-11.5-60.77-62.22-107-123.55-112.69v44.32h-2V359.08l1.11.1c62.61,5.33,114.55,52.22,126.41,114.08l7.08,5.88h45.49v2Z" transform="translate(-250 -250)" fill="url(#linear-gradient-133)"/><path d="M690.14,473.22H650.37l-8.13-6.45-.08-.34A146.35,146.35,0,0,0,507,354.11l0,51.52h-2V352l1.05,0a148.37,148.37,0,0,1,138,113.58l7,5.57h39.06Z" transform="translate(-250 -250)" fill="url(#linear-gradient-134)"/><path d="M517.07,633V593.63h2v37A132.31,132.31,0,0,0,630.76,518.49l0-.38,8.28-7.23h11.55v2H639.86l-7.13,6.22a134.35,134.35,0,0,1-114.5,113.69Z" transform="translate(-250 -250)" fill="url(#linear-gradient-135)"/><rect x="432.72" y="260.88" width="9.05" height="2.04" fill="url(#linear-gradient-136)"/><rect x="248.98" y="343.64" width="2.04" height="53.44" fill="url(#linear-gradient-137)"/><rect x="432.72" y="276.78" width="7.42" height="2.04" fill="url(#linear-gradient-138)"/><path d="M505,648.08V593.63h2V646a146.43,146.43,0,0,0,135.15-112.4l.08-.35,7.74-6.13,1.27,1.6-7.19,5.69A148.45,148.45,0,0,1,506.07,648Z" transform="translate(-250 -250)" fill="url(#linear-gradient-139)"/><rect x="432.72" y="268.83" width="8.4" height="2.04" fill="url(#linear-gradient-140)"/><path d="M511,640.68v-47h2v44.82A139.33,139.33,0,0,0,636.6,526l.07-.36,8.23-6.83h5.74v2h-5l-7.1,5.89A141.36,141.36,0,0,1,512.14,640.58Z" transform="translate(-250 -250)" fill="url(#linear-gradient-141)"/><polygon points="239.34 396.33 226.19 396.33 226.19 343.64 228.23 343.64 228.23 394.3 239.34 394.3 239.34 396.33" fill="url(#linear-gradient-142)"/><path d="M460.15,628.05l-1.33-.43a134.5,134.5,0,0,1-89.6-98l-.11-.48,8.23-10.3h70.73v2H378.32l-7,8.78a132.53,132.53,0,0,0,86.81,95.59V593.64h2Z" transform="translate(-250 -250)" fill="url(#linear-gradient-143)"/><path d="M466.18,637l-1.27-.33A140.62,140.62,0,0,1,360.48,521.05l-.07-.46,8.34-9.69h79.32v2H369.68l-7.12,8.27A138.58,138.58,0,0,0,464.14,634.37V593.64h2Z" transform="translate(-250 -250)" fill="url(#linear-gradient-144)"/><path d="M472.2,645.49l-1.22-.24c-64.3-12.78-113-67.34-118.55-132.69l0-.45,8.39-9.13,87.28,0v2l-86.39,0-7.18,7.82C360.07,576.67,407.5,630,470.17,643V593.64h2Z" transform="translate(-250 -250)" fill="url(#linear-gradient-145)"/><rect x="227.21" y="107.66" width="12.14" height="2.04" fill="url(#linear-gradient-146)"/><rect x="227.21" y="114.22" width="12.14" height="2.04" fill="url(#linear-gradient-147)"/><rect x="227.21" y="118.57" width="12.14" height="2.04" fill="url(#linear-gradient-148)"/><rect x="227.21" y="389.76" width="12.14" height="2.04" fill="url(#linear-gradient-149)"/><rect x="227.21" y="383.4" width="12.14" height="2.04" fill="url(#linear-gradient-150)"/><rect x="227.21" y="378.82" width="12.14" height="2.04" fill="url(#linear-gradient-151)"/><rect x="231.41" y="102.64" width="15.26" height="7.8" rx="0.79" fill="url(#linear-gradient-152)"/><rect x="409.46" y="245.13" width="21.51" height="8.87" rx="1.02" fill="url(#linear-gradient-153)"/><rect x="409.46" y="229.24" width="21.51" height="8.87" rx="1.02" fill="url(#linear-gradient-154)"/><rect x="152.75" y="229.69" width="21.51" height="8.86" rx="1.02" fill="url(#linear-gradient-155)"/><rect x="152.75" y="245.57" width="21.51" height="8.87" rx="1.02" fill="url(#linear-gradient-156)"/><rect x="334.37" y="249.89" width="19.72" height="8.13" rx="0.93" fill="url(#linear-gradient-157)"/><rect x="581.74" y="462.72" width="21.51" height="8.86" rx="1.02" transform="translate(809.65 -375.34) rotate(90)" fill="url(#linear-gradient-158)"/><rect x="329.54" y="239.71" width="13.6" height="5.61" rx="0.64" fill="url(#linear-gradient-159)"/><rect x="325.46" y="229.86" width="13.61" height="5.61" rx="0.64" fill="url(#linear-gradient-160)"/><rect x="152.75" y="261.45" width="21.51" height="8.87" rx="1.02" fill="url(#linear-gradient-161)"/><rect x="231.41" y="113.6" width="15.26" height="7.8" rx="0.79" fill="url(#linear-gradient-162)"/><rect x="231.41" y="389.15" width="15.26" height="7.8" rx="0.79" fill="url(#linear-gradient-163)"/><rect x="231.41" y="378.27" width="15.26" height="7.8" rx="0.79" fill="url(#linear-gradient-164)"/><path d="M683.74,540.23H649.62V508h34.12Zm-32.08-2h30V510h-30Z" transform="translate(-250 -250)" fill="url(#linear-gradient-165)"/><rect x="648.87" y="512.29" width="12.19" height="2.04" transform="translate(-421.4 361.25) rotate(-44.85)" fill="url(#linear-gradient-166)"/><rect x="672.26" y="533.87" width="12.25" height="2.04" transform="translate(-429.8 384.03) rotate(-44.84)" fill="url(#linear-gradient-167)"/><rect x="661.42" y="529.37" width="24.96" height="2.04" transform="translate(-427.66 381.86) rotate(-45)" fill="url(#linear-gradient-168)"/><polygon points="439.94 263.37 439.94 263.33 441.98 263.33 439.94 263.37" fill="url(#linear-gradient-169)"/><rect x="650.54" y="524.86" width="37.7" height="2.04" transform="translate(-425.79 377.36) rotate(-45)" fill="url(#linear-gradient-170)"/><rect x="645.14" y="521.3" width="37.67" height="2.04" transform="translate(-424.86 372.47) rotate(-45)" fill="url(#linear-gradient-171)"/><polygon points="401.36 277.38 399.92 275.94 417.53 258.29 418.97 259.73 401.36 277.38" fill="url(#linear-gradient-172)"/><polygon points="264.87 222.54 225.6 222.54 225.6 220.5 264.03 220.5 271.63 212.9 271.63 189.99 273.66 189.99 273.66 213.75 264.87 222.54" fill="url(#linear-gradient-173)"/><polygon points="225.6 214.06 225.6 212.02 256.39 212.02 262.73 205.68 262.73 189.99 264.76 189.99 264.76 206.53 257.24 214.05 225.6 214.06" fill="url(#linear-gradient-174)"/><polygon points="253.29 205.59 225.6 205.59 225.6 203.55 251.25 203.55 251.25 189.99 253.29 189.99 253.29 205.59" fill="url(#linear-gradient-175)"/><rect x="232.48" y="201.54" width="14.7" height="6.06" rx="0.69" fill="url(#linear-gradient-176)"/><rect x="237.32" y="210.01" width="14.7" height="6.06" rx="0.69" fill="url(#linear-gradient-177)"/><rect x="242.29" y="218.49" width="14.7" height="6.06" rx="0.69" fill="url(#linear-gradient-178)"/><polygon points="282.5 309.79 280.46 309.79 280.46 286.71 272.8 279.05 225.6 279.05 225.6 277.02 273.65 277.02 282.5 285.87 282.5 309.79" fill="url(#linear-gradient-179)"/><polygon points="273.53 309.79 271.49 309.79 271.49 293.98 265.11 287.6 225.6 287.59 225.6 285.55 265.95 285.56 273.53 293.13 273.53 309.79" fill="url(#linear-gradient-180)"/><polygon points="261.97 309.79 259.94 309.79 259.94 296.13 225.6 296.13 225.6 294.09 261.97 294.09 261.97 309.79" fill="url(#linear-gradient-181)"/><rect x="236.98" y="292.06" width="14.81" height="6.1" rx="0.7" fill="url(#linear-gradient-182)"/><rect x="243.55" y="283.52" width="14.81" height="6.1" rx="0.7" fill="url(#linear-gradient-183)"/><rect x="249.89" y="274.98" width="14.81" height="6.1" rx="0.7" fill="url(#linear-gradient-184)"/><path d="M562.58,491.8a56.18,56.18,0,0,0-39-86.32V377.79H495v27.1H482.33v-27.1H453.72v27.1h-41.8v34.74h29.19V560.37H411.92v34.74h41.8v27.1h28.61v-27.1H495v27.1h28.61v-27.1h8.27A56.22,56.22,0,0,0,562.58,491.8Zm-86.72,25.57h56a21.5,21.5,0,0,1,0,43h-56Zm0-34.74v-43h39.62a21.5,21.5,0,0,1,0,43Z" transform="translate(-250 -250)"/><path d="M523.56,377.79v27.69a56.18,56.18,0,0,1,39,86.32,56.22,56.22,0,0,1-30.75,103.31h-8.27v27.1H495v-27.1H482.33v27.1H453.72v-27.1h-41.8V560.37h29.19V439.63H411.92V404.89h41.8v-27.1h28.61v27.1H495v-27.1h28.61m-47.7,104.84h39.62a21.5,21.5,0,0,0,0-43H475.86v43m0,77.74h56a21.5,21.5,0,0,0,0-43h-56v43m51.78-186.65H490.88v27.09h-4.47V373.72H449.65v27.09h-41.8v42.9H437V556.29H407.85v42.9h41.8v27.09h36.76V599.19h4.47v27.09h36.76V599.19h4.19a60.39,60.39,0,0,0,60.32-60.32A61.08,61.08,0,0,0,568,490.67a59.87,59.87,0,0,0,7.76-29.54,60.63,60.63,0,0,0-48.16-59.08V373.72Zm-47.71,70h35.55a17.42,17.42,0,0,1,0,34.84H479.93V443.71Zm0,77.74h51.9a17.42,17.42,0,1,1,0,34.84h-51.9V521.45Z" transform="translate(-250 -250)" fill="url(#linear-gradient-185)"/><path d="M500,692.79c-106.31,0-192.79-86.49-192.79-192.79S393.69,307.21,500,307.21,692.79,393.7,692.79,500,606.3,692.79,500,692.79Zm0-383.54c-105.18,0-190.75,85.57-190.75,190.75S394.82,690.75,500,690.75,690.75,605.18,690.75,500,605.18,309.25,500,309.25Z" transform="translate(-250 -250)" fill="url(#linear-gradient-186)"/><path d="M489.13,696q-5.24-.3-10.39-.85a5.09,5.09,0,1,1,1.1-10.13,195.14,195.14,0,0,0,20.11,1.1,5,5,0,0,1,5.09,5.1,5.1,5.1,0,0,1-5.1,5.09C496.36,696.34,492.73,696.24,489.13,696Zm-30.53-4.15a4.53,4.53,0,0,1-.81-.12,194.93,194.93,0,0,1-20.47-5.66,5.1,5.1,0,0,1,3.25-9.66,185,185,0,0,0,19.4,5.37,5.1,5.1,0,0,1-1.37,10.07Zm61.71,3.36a5.09,5.09,0,0,1-.25-10.15,187.55,187.55,0,0,0,19.86-3.23,5.09,5.09,0,1,1,2.18,10,195.1,195.1,0,0,1-21,3.41A5.79,5.79,0,0,1,520.31,695.25ZM419.44,678.71a4.94,4.94,0,0,1-1.85-.46,195.89,195.89,0,0,1-18.77-10,5.1,5.1,0,0,1,5.26-8.73A185.77,185.77,0,0,0,421.87,669a5.1,5.1,0,0,1-2.43,9.71Zm141.23,7.7a5.1,5.1,0,0,1-1.35-9.92A184.74,184.74,0,0,0,578,669a5.1,5.1,0,1,1,4.28,9.25,196.19,196.19,0,0,1-19.73,7.86A4.83,4.83,0,0,1,560.67,686.41Zm-176.62-29a5,5,0,0,1-2.8-1,199.6,199.6,0,0,1-16.18-13.76,5.1,5.1,0,0,1,7-7.4,186.73,186.73,0,0,0,15.34,13,5.1,5.1,0,0,1-3.38,9.14Zm214.1,11.68a5.09,5.09,0,0,1-2.35-9.45,186.17,186.17,0,0,0,16.67-11.3,5.1,5.1,0,0,1,6.16,8.12,199.2,199.2,0,0,1-17.57,11.91A5,5,0,0,1,598.15,669.06ZM354.08,629a5.07,5.07,0,0,1-3.6-1.78,195.85,195.85,0,0,1-12.86-16.9,5.09,5.09,0,1,1,8.42-5.72,188.34,188.34,0,0,0,12.2,16,5.09,5.09,0,0,1-4.16,8.38Zm277,15.11a5,5,0,0,1-3.42-1.58,5.1,5.1,0,0,1,.2-7.21,187.39,187.39,0,0,0,13.87-14.59,5.09,5.09,0,1,1,7.75,6.61,198.49,198.49,0,0,1-14.62,15.39A5.05,5.05,0,0,1,631,644.07ZM330.87,594.8a5.09,5.09,0,0,1-4.22-2.7,196.48,196.48,0,0,1-8.94-19.25,5.1,5.1,0,0,1,9.46-3.79,187.77,187.77,0,0,0,8.48,18.26,5.1,5.1,0,0,1-4.78,7.48Zm327,17.83a5.08,5.08,0,0,1-3.92-8,189.2,189.2,0,0,0,10.41-17.24,5.09,5.09,0,0,1,9,4.79,195.87,195.87,0,0,1-11,18.18A5.08,5.08,0,0,1,657.83,612.63ZM315.54,556.45a5.12,5.12,0,0,1-4.63-3.72A197.56,197.56,0,0,1,306.35,532a5.1,5.1,0,1,1,10.06-1.65A184.44,184.44,0,0,0,320.73,550a5.1,5.1,0,0,1-3.54,6.28A5.2,5.2,0,0,1,315.54,556.45Zm361.7,19.71a5.1,5.1,0,0,1-4.45-7,184.37,184.37,0,0,0,6.44-19.08,5.1,5.1,0,0,1,9.82,2.73A196.71,196.71,0,0,1,682.26,573,5.1,5.1,0,0,1,677.24,576.16ZM308.86,515.68a5.1,5.1,0,0,1-4.8-4.81,200.46,200.46,0,0,1,0-21.23,5.09,5.09,0,0,1,5.36-4.81,5.24,5.24,0,0,1,4.81,5.36,187.74,187.74,0,0,0,0,20.13,5.11,5.11,0,0,1-4.81,5.37Zm2.22-41.24a5,5,0,0,1-.54-.06,5.09,5.09,0,0,1-4.21-5.84,199.26,199.26,0,0,1,4.52-20.75,5.09,5.09,0,1,1,9.82,2.71,188.82,188.82,0,0,0-4.28,19.67A5.11,5.11,0,0,1,311.08,474.44Zm11-39.82a5.35,5.35,0,0,1-1.6-.35,5.11,5.11,0,0,1-2.86-6.62,200.22,200.22,0,0,1,8.91-19.29,5.1,5.1,0,0,1,9,4.77,183,183,0,0,0-8.44,18.28A5.1,5.1,0,0,1,322.06,434.62Zm361.74,19a5.11,5.11,0,0,1-4.63-3.71,183.49,183.49,0,0,0-6.48-19.06,5.1,5.1,0,1,1,9.46-3.8,198.14,198.14,0,0,1,6.84,20.1,5.1,5.1,0,0,1-3.53,6.29A5.29,5.29,0,0,1,683.8,453.6ZM341.39,398.1a5.09,5.09,0,0,1-3.93-7.94,194.92,194.92,0,0,1,12.85-16.91,5.09,5.09,0,0,1,7.77,6.59,185.49,185.49,0,0,0-12.19,16A5.08,5.08,0,0,1,341.39,398.1Zm327,17.18a5.1,5.1,0,0,1-4.22-2.69,187.1,187.1,0,0,0-10.43-17.21,5.1,5.1,0,0,1,8.42-5.75,196.16,196.16,0,0,1,11,18.16,5.09,5.09,0,0,1-4.77,7.49ZM368.13,366.6a5,5,0,0,1-3.42-1.58,5.1,5.1,0,0,1,.19-7.2,198.05,198.05,0,0,1,16.17-13.76,5.09,5.09,0,1,1,6.18,8.1,186.88,186.88,0,0,0-15.33,13A5,5,0,0,1,368.13,366.6Zm277,14.56a5.07,5.07,0,0,1-3.59-1.78,189.23,189.23,0,0,0-13.88-14.59,5.1,5.1,0,0,1,7-7.41,196.74,196.74,0,0,1,14.63,15.39,5.09,5.09,0,0,1-4.16,8.39ZM401,341.55a5.09,5.09,0,0,1-2.35-9.44,194.33,194.33,0,0,1,18.73-10,5.1,5.1,0,0,1,4.3,9.24,185.41,185.41,0,0,0-17.76,9.47A5,5,0,0,1,401,341.55Zm214.1,11.25a5,5,0,0,1-2.79-1,187.56,187.56,0,0,0-16.68-11.28,5.1,5.1,0,0,1,5.24-8.74,196.81,196.81,0,0,1,17.6,11.91,5.09,5.09,0,0,1-3.37,9.14ZM438.41,324.14a5.1,5.1,0,0,1-1.35-9.92,197.28,197.28,0,0,1,20.45-5.71,5.1,5.1,0,0,1,2.21,9.95,187.47,187.47,0,0,0-19.39,5.41A5.14,5.14,0,0,1,438.41,324.14Zm141.23,7.41a5.3,5.3,0,0,1-1.84-.46,185,185,0,0,0-18.73-7.42,5.09,5.09,0,1,1,3.24-9.66,198.16,198.16,0,0,1,19.75,7.82,5.1,5.1,0,0,1-2.42,9.72ZM478.73,315.21a5.09,5.09,0,0,1-.26-10.15,199.77,199.77,0,0,1,21.2-1.16,5.1,5.1,0,1,1,0,10.19,189.93,189.93,0,0,0-20.1,1.1A4.72,4.72,0,0,1,478.73,315.21Zm61.74,3.24a4.4,4.4,0,0,1-.8-.11,187,187,0,0,0-19.88-3.19A5.1,5.1,0,0,1,520.87,305a199.69,199.69,0,0,1,21,3.37,5.1,5.1,0,0,1-1.36,10.07Z" transform="translate(-250 -250)" fill="url(#linear-gradient-187)"/></svg>